{
classes = (
{
automatic = 1;
code = "A B C D E F G H I J K L M N O P Q R S T U V W X Y Z";
name = Uppercase;
},
{
code = gjEsign;
name = top;
}
);
copyright = "Copyright \U00A9 Pooja Saxena, 2015";
customParameters = (
{
name = glyphOrder;
value = (
    A,
    B,
    C,
    D,
    E,
    F,
    G,
    H,
    I,
    J,
    K,
    L,
    M,
    N,
    O,
    P,
    Q,
    R,
    S,
    T,
    U,
    V,
    W,
    X,
    Y,
    Z,
    a,
    b,
    c,
    d,
    c,
    e,
    f,
    g,
    h,
    i,
    j,
    k,
    l,
    m,
    n,
    o,
    p,
    q,
    r,
    s,
    t,
    u,
    v,
    w,
    x,
    y,
    z,
    gjCandrabindu,
    gjAnusvara,
    gjVisarga,
    gjA,
    gjAa,
    gjI,
    gjIi,
    gjU,
    gjUu,
    gjRvocal,
    gjLvocal,
    gjEcandra,
    gjE,
    gjAi,
    gjOcandra,
    gjO,
    gjAu,
    gjKa,
    gjKha,
    gjGa,
    gjGha,
    gjNga,
    gjCa,
    gjCha,
    gjJa,
    gjJha,
    gjNya,
    gjTta,
    gjTtha,
    gjDda,
    gjDdha,
    gjNna,
    gjTa,
    gjTha,
    gjDa,
    gjDha,
    gjNa,
    gjPa,
    gjPha,
    gjBa,
    gjBha,
    gjMa,
    gjYa,
    gjRa,
    gjLa,
    gjLla,
    gjVa,
    gjSha,
    gjSsa,
    gjSa,
    gjHa,
    gjK,
    "gjK.alt1",
    "gjK.alt2",
    gjKh,
    "gjKh.alt1",
    "gjKh.alt2",
    gjG,
    gjGh,
    gjNg,
    gjC,
    gjCh,
    gjJ,
    gjJh,
    gjNy,
    gjTt,
    gjTth,
    gjDd,
    gjDdh,
    gjNn,
    gjT,
    "gjT.alt1",
    gjTh,
    gjD,
    gjDh,
    gjN,
    "gjN.alt1",
    "gjN.alt2",
    "gjN.alt3",
    gjP,
    gjF,
    gjB,
    gjBh,
    gjM,
    gjY,
    gjL,
    "gjL.alt1",
    "gjL.alt2",
    "gjL.alt3",
    "gjL.alt4",
    gjLl,
    gjV,
    gjSh,
    gjSs,
    gjS,
    gjH,
    gjKKa,
    gjSKa
);
}
);
date = "2015-09-02 13:02:41 +0000";
designer = "Pooja Saxena";
familyName = "Farsan";
featurePrefixes = (
{
automatic = 1;
code = "languagesystem DFLT dflt;\012languagesystem gujr dflt;\012languagesystem latn dflt;\012";
name = Languagesystems;
}
);
features = (
{

glyphs = (
{
glyphname = H;
lastChange = "2015-08-11 08:04:17 +0000";
layers = (
{
background = {
paths = (
{
closed = 1;
nodes = (
"95 30 LINE",
"93 2 OFFCURVE",
"84 0 OFFCURVE",
"69 -4 CURVE",
"35 -12 OFFCURVE",
"28 -10 OFFCURVE",
"31 13 CURVE",
"105 672 LINE",
"108 700 OFFCURVE",
"114 703 OFFCURVE",
"129 707 CURVE",
"164 714 OFFCURVE",
"171 713 OFFCURVE",
"169 690 CURVE"
);
},
{
closed = 1;
nodes = (
"385 30 LINE",
"383 2 OFFCURVE",
"374 0 OFFCURVE",
"359 -4 CURVE",
"325 -12 OFFCURVE",
"318 -10 OFFCURVE",
"321 13 CURVE",
"395 672 LINE",
"398 700 OFFCURVE",
"404 703 OFFCURVE",
"419 707 CURVE",
"454 714 OFFCURVE",
"461 713 OFFCURVE",
"459 690 CURVE"
);
},
{
closed = 1;
nodes = (
"394 401 OFFCURVE",
"388 405 OFFCURVE",
"359 400 CURVE SMOOTH",
"110 357 LINE",
"147 305 LINE SMOOTH",
"373 344 LINE SMOOTH",
"404 349 OFFCURVE",
"414 357 OFFCURVE",
"404 379 CURVE"
);
}
);
};
guideLines = (
{
position = "{255, 649}";
}
);
layerId = "70F97C4B-94FA-40A4-8E29-E667CA674F9A";
name = Regular;
paths = (
{
closed = 1;
nodes = (
"95 30 LINE",
"93 2 OFFCURVE",
"84 0 OFFCURVE",
"69 -4 CURVE",
"35 -12 OFFCURVE",
"28 -10 OFFCURVE",
"31 13 CURVE",
"105 672 LINE",
"108 700 OFFCURVE",
"114 703 OFFCURVE",
"129 707 CURVE",
"164 714 OFFCURVE",
"171 713 OFFCURVE",
"169 690 CURVE"
);
},
{
closed = 1;
nodes = (
"385 30 LINE",
"383 2 OFFCURVE",
"374 0 OFFCURVE",
"359 -4 CURVE",
"325 -12 OFFCURVE",
"318 -10 OFFCURVE",
"321 13 CURVE",
"395 672 LINE",
"398 700 OFFCURVE",
"404 703 OFFCURVE",
"419 707 CURVE",
"454 714 OFFCURVE",
"461 713 OFFCURVE",
"459 690 CURVE"
);
},
{
closed = 1;
nodes = (
"457 345 OFFCURVE",
"447 336 OFFCURVE",
"415 333 CURVE SMOOTH",
"107 305 LINE SMOOTH",
"114 367 LINE",
"405 391 LINE SMOOTH",
"434 393 OFFCURVE",
"440 390 OFFCURVE",
"449 368 CURVE"
);
}
);
width = 491;
}
);
unicode = 0048;
},
{
glyphname = a;
lastChange = "2015-08-27 13:19:24 +0000";
layers = (
{
background = {
paths = (
{
closed = 1;
nodes = (
"252 35 OFFCURVE",
"252 67 CURVE",
"222 21 OFFCURVE",
"184 -9 OFFCURVE",
"131 -9 CURVE",
"68 -9 OFFCURVE",
"28 47 OFFCURVE",
"28 142 CURVE",
"28 303 OFFCURVE",
"93 445 OFFCURVE",
"212 445 CURVE",
"271 445 OFFCURVE",
"304 414 OFFCURVE",
"348 381 CURVE",
"321 342 LINE",
"278 374 OFFCURVE",
"256 388 OFFCURVE",
"216 388 CURVE",
"114 388 OFFCURVE",
"88 214 OFFCURVE",
"88 146 CURVE",
"88 92 OFFCURVE",
"102 50 OFFCURVE",
"151 50 CURVE",
"207 50 OFFCURVE",
"260 138 OFFCURVE",
"272 240 CURVE",
"291 374 OFFCURVE",
"319 586 OFFCURVE",
"330 671 CURVE",
"333 699 OFFCURVE",
"339 701 OFFCURVE",
"354 705 CURVE",
"390 712 OFFCURVE",
"397 710 OFFCURVE",
"394 687 CURVE",
"365 471 OFFCURVE",
"306 102 OFFCURVE",
"306 40 CURVE",
"338 60 OFFCURVE",
"350 83 OFFCURVE",
"360 83 CURVE",
"373 83 OFFCURVE",
"389 58 OFFCURVE",
"389 42 CURVE",
"389 27 OFFCURVE",
"330 -7 OFFCURVE",
"290 -7 CURVE",
"254 -7 OFFCURVE"
);
}
);
};
layerId = "70F97C4B-94FA-40A4-8E29-E667CA674F9A";
name = Regular;
paths = (
{
closed = 1;
nodes = (
"247 35 OFFCURVE",
"247 67 CURVE",
"217 21 OFFCURVE",
"184 -9 OFFCURVE",
"131 -9 CURVE",
"66 -9 OFFCURVE",
"28 47 OFFCURVE",
"28 142 CURVE",
"28 303 OFFCURVE",
"93 450 OFFCURVE",
"212 450 CURVE",
"266 450 OFFCURVE",
"299 409 OFFCURVE",
"343 366 CURVE",
"316 329 LINE",
"283 361 OFFCURVE",
"261 395 OFFCURVE",
"216 395 CURVE",
"114 395 OFFCURVE",
"88 224 OFFCURVE",
"88 146 CURVE",
"88 92 OFFCURVE",
"102 50 OFFCURVE",
"145 50 CURVE",
"202 50 OFFCURVE",
"255 138 OFFCURVE",
"267 240 CURVE",
"286 374 OFFCURVE",
"279 336 OFFCURVE",
"290 421 CURVE",
"293 449 OFFCURVE",
"299 451 OFFCURVE",
"314 455 CURVE",
"350 462 OFFCURVE",
"357 460 OFFCURVE",
"354 437 CURVE",
"329 271 OFFCURVE",
"301 102 OFFCURVE",
"301 40 CURVE",
"333 60 OFFCURVE",
"345 83 OFFCURVE",
"355 83 CURVE",
"368 83 OFFCURVE",
"384 58 OFFCURVE",
"384 42 CURVE",
"384 27 OFFCURVE",
"325 -7 OFFCURVE",
"285 -7 CURVE",
"249 -7 OFFCURVE"
);
}
);
width = 401;
}
);
unicode = 0061;
},
{
glyphname = b;
lastChange = "2015-08-27 13:19:28 +0000";
layers = (
{
background = {
paths = (
{
closed = 1;
nodes = (
"281 54 OFFCURVE",
"297 218 OFFCURVE",
"297 286 CURVE",
"297 350 OFFCURVE",
"283 392 OFFCURVE",
"246 392 CURVE",
"178 392 OFFCURVE",
"132 305 OFFCURVE",
"117 206 CURVE",
"92 29 LINE",
"89 1 OFFCURVE",
"83 -1 OFFCURVE",
"68 -5 CURVE",
"32 -12 OFFCURVE",
"25 -10 OFFCURVE",
"28 13 CURVE",
"28 39 OFFCURVE",
"92 494 OFFCURVE",
"116 671 CURVE",
"119 699 OFFCURVE",
"125 701 OFFCURVE",
"140 705 CURVE",
"176 712 OFFCURVE",
"183 710 OFFCURVE",
"180 687 CURVE",
"145 416 LINE",
"138 381 LINE",
"169 424 OFFCURVE",
"201 451 OFFCURVE",
"254 451 CURVE",
"322 451 OFFCURVE",
"362 385 OFFCURVE",
"357 290 CURVE",
"357 129 OFFCURVE",
"302 -3 OFFCURVE",
"183 -3 CURVE",
"124 -3 OFFCURVE",
"77 31 OFFCURVE",
"33 64 CURVE",
"64 110 LINE",
"107 68 OFFCURVE",
"129 54 OFFCURVE",
"179 54 CURVE"
);
}
);
};
layerId = "70F97C4B-94FA-40A4-8E29-E667CA674F9A";
name = Regular;
paths = (
{
closed = 1;
nodes = (
"270 49 OFFCURVE",
"292 203 OFFCURVE",
"292 291 CURVE",
"292 355 OFFCURVE",
"276 392 OFFCURVE",
"239 392 CURVE",
"171 391 OFFCURVE",
"127 307 OFFCURVE",
"113 208 CURVE",
"91 30 LINE",
"89 2 OFFCURVE",
"83 0 OFFCURVE",
"68 -4 CURVE",
"32 -12 OFFCURVE",
"25 -10 OFFCURVE",
"28 13 CURVE",
"27 39 OFFCURVE",
"83 495 OFFCURVE",
"104 672 CURVE",
"107 700 OFFCURVE",
"113 703 OFFCURVE",
"128 707 CURVE",
"163 714 OFFCURVE",
"170 713 OFFCURVE",
"168 690 CURVE",
"138 418 LINE",
"131 383 LINE",
"161 426 OFFCURVE",
"193 451 OFFCURVE",
"246 451 CURVE",
"314 451 OFFCURVE",
"352 391 OFFCURVE",
"352 296 CURVE",
"352 135 OFFCURVE",
"292 -9 OFFCURVE",
"173 -9 CURVE",
"114 -9 OFFCURVE",
"76 27 OFFCURVE",
"32 59 CURVE",
"62 106 LINE",
"106 64 OFFCURVE",
"128 47 OFFCURVE",
"168 47 CURVE"
);
}
);
width = 380;
}
);
unicode = 0062;
},
{
glyphname = d;
lastChange = "2015-08-27 13:19:33 +0000";
layers = (
{
background = {
paths = (
{
closed = 1;
nodes = (
"251 -3 OFFCURVE",
"248 39 OFFCURVE",
"248 71 CURVE",
"218 24 OFFCURVE",
"186 -7 OFFCURVE",
"133 -7 CURVE",
"70 -7 OFFCURVE",
"27 47 OFFCURVE",
"27 142 CURVE",
"27 303 OFFCURVE",
"87 448 OFFCURVE",
"206 448 CURVE",
"260 448 OFFCURVE",
"294 419 OFFCURVE",
"338 386 CURVE",
"312 347 LINE",
"268 378 OFFCURVE",
"246 391 OFFCURVE",
"211 391 CURVE",
"109 391 OFFCURVE",
"87 215 OFFCURVE",
"87 147 CURVE",
"87 93 OFFCURVE",
"103 52 OFFCURVE",
"152 52 CURVE",
"208 53 OFFCURVE",
"254 142 OFFCURVE",
"265 244 CURVE",
"281 378 OFFCURVE",
"306 591 OFFCURVE",
"315 676 CURVE",
"318 704 OFFCURVE",
"324 706 OFFCURVE",
"338 710 CURVE",
"374 718 OFFCURVE",
"381 716 OFFCURVE",
"379 693 CURVE",
"354 477 OFFCURVE",
"301 107 OFFCURVE",
"302 45 CURVE",
"334 65 OFFCURVE",
"345 89 OFFCURVE",
"355 89 CURVE",
"368 89 OFFCURVE",
"385 64 OFFCURVE",
"385 48 CURVE",
"385 33 OFFCURVE",
"327 -3 OFFCURVE",
"287 -3 CURVE"
);
}
);
};
layerId = "70F97C4B-94FA-40A4-8E29-E667CA674F9A";
name = Regular;
paths = (
{
closed = 1;
nodes = (
"249 -9 OFFCURVE",
"246 33 OFFCURVE",
"247 65 CURVE",
"216 18 OFFCURVE",
"186 -10 OFFCURVE",
"133 -10 CURVE",
"70 -9 OFFCURVE",
"28 47 OFFCURVE",
"28 142 CURVE",
"30 303 OFFCURVE",
"91 450 OFFCURVE",
"210 449 CURVE",
"264 449 OFFCURVE",
"298 420 OFFCURVE",
"341 386 CURVE",
"315 347 LINE",
"271 379 OFFCURVE",
"250 392 OFFCURVE",
"215 392 CURVE",
"113 393 OFFCURVE",
"89 214 OFFCURVE",
"88 146 CURVE",
"88 92 OFFCURVE",
"104 49 OFFCURVE",
"153 49 CURVE",
"209 49 OFFCURVE",
"255 140 OFFCURVE",
"267 242 CURVE",
"284 379 OFFCURVE",
"311 589 OFFCURVE",
"321 673 CURVE",
"324 701 OFFCURVE",
"330 703 OFFCURVE",
"344 707 CURVE",
"380 715 OFFCURVE",
"387 713 OFFCURVE",
"385 690 CURVE",
"358 474 OFFCURVE",
"300 111 OFFCURVE",
"300 39 CURVE",
"333 58 OFFCURVE",
"344 82 OFFCURVE",
"354 82 CURVE",
"367 82 OFFCURVE",
"384 57 OFFCURVE",
"383 41 CURVE",
"383 26 OFFCURVE",
"325 -10 OFFCURVE",
"285 -9 CURVE"
);
}
);
width = 402;
}
);
unicode = 0064;
},
{
glyphname = c;
lastChange = "2015-08-27 17:40:51 +0000";
layers = (
{
background = {
paths = (
{
closed = 0;
nodes = (
"281 79 LINE",
"313 136 OFFCURVE",
"329 214 OFFCURVE",
"329 297 CURVE",
"329 322 OFFCURVE",
"325 345 OFFCURVE",
"317 367 CURVE"
);
},
{
closed = 0;
nodes = (
"231 107 LINE",
"212 72 OFFCURVE",
"185 47 OFFCURVE",
"147 47 CURVE",
"106 47 OFFCURVE",
"87 94 OFFCURVE",
"87 158 CURVE",
"87 230 OFFCURVE",
"112 392 OFFCURVE",
"210 392 CURVE",
"236 392 OFFCURVE",
"253 374 OFFCURVE",
"262 344 CURVE"
);
},
{
closed = 0;
nodes = (
"262 344 LINE",
"268 327 OFFCURVE",
"270 306 OFFCURVE",
"270 283 CURVE",
"270 239 OFFCURVE",
"261 161 OFFCURVE",
"231 107 CURVE"
);
},
{
closed = 0;
nodes = (
"317 367 LINE",
"301 415 OFFCURVE",
"266 450 OFFCURVE",
"215 451 CURVE",
"88 451 OFFCURVE",
"28 308 OFFCURVE",
"28 144 CURVE",
"29 63 OFFCURVE",
"69 -9 OFFCURVE",
"142 -10 CURVE",
"204 -10 OFFCURVE",
"251 25 OFFCURVE",
"281 79 CURVE"
);
},
{
closed = 1;
nodes = (
"247 120 LINE",
"228 85 OFFCURVE",
"205 47 OFFCURVE",
"157 47 CURVE",
"106 47 OFFCURVE",
"87 94 OFFCURVE",
"87 158 CURVE",
"87 230 OFFCURVE",
"112 392 OFFCURVE",
"210 392 CURVE",
"236 392 OFFCURVE",
"256 371 OFFCURVE",
"265 337 CURVE",
"320 360 LINE",
"304 413 OFFCURVE",
"266 450 OFFCURVE",
"215 451 CURVE",
"88 451 OFFCURVE",
"28 308 OFFCURVE",
"28 152 CURVE",
"29 63 OFFCURVE",
"65 -9 OFFCURVE",
"152 -10 CURVE",
"229 -10 OFFCURVE",
"267 38 OFFCURVE",
"297 92 CURVE"
);
}
);
};
layerId = "70F97C4B-94FA-40A4-8E29-E667CA674F9A";
name = Regular;
paths = (
{
closed = 1;
nodes = (
"278 103 CURVE",
"265 110 LINE",
"254 116 OFFCURVE",
"244 115 OFFCURVE",
"235 99 CURVE SMOOTH",
"219 70 OFFCURVE",
"195 47 OFFCURVE",
"157 47 CURVE",
"106 47 OFFCURVE",
"87 94 OFFCURVE",
"87 158 CURVE",
"87 230 OFFCURVE",
"112 392 OFFCURVE",
"210 392 CURVE",
"229 392 OFFCURVE",
"247 381 OFFCURVE",
"258 357 CURVE SMOOTH",
"265 341 OFFCURVE",
"270 339 OFFCURVE",
"286 346 CURVE",
"301 352 LINE",
"316 358 OFFCURVE",
"319 366 OFFCURVE",
"311 384 CURVE SMOOTH",
"292 426 OFFCURVE",
"258 450 OFFCURVE",
"215 451 CURVE",
"88 451 OFFCURVE",
"28 308 OFFCURVE",
"28 152 CURVE",
"29 63 OFFCURVE",
"65 -9 OFFCURVE",
"152 -10 CURVE",
"221 -10 OFFCURVE",
"260 28 OFFCURVE",
"287 75 CURVE SMOOTH",
"295 89 OFFCURVE",
"291 96 OFFCURVE"
);
}
);
width = 325;
}
);
unicode = 0063;
},
{
glyphname = h;
lastChange = "2015-08-11 09:13:11 +0000";
layers = (
{
background = {
paths = (
{
closed = 1;
nodes = (
"137 418 LINE",
"167 690 LINE",
"169 713 OFFCURVE",
"162 714 OFFCURVE",
"127 707 CURVE",
"112 703 OFFCURVE",
"106 700 OFFCURVE",
"103 672 CURVE",
"82 495 OFFCURVE",
"26 39 OFFCURVE",
"27 13 CURVE",
"24 -10 OFFCURVE",
"31 -12 OFFCURVE",
"67 -4 CURVE",
"82 0 OFFCURVE",
"88 2 OFFCURVE",
"90 30 CURVE",
"112 208 LINE",
"125 311 OFFCURVE",
"172 396 OFFCURVE",
"236 396 CURVE",
"267 396 OFFCURVE",
"285 375 OFFCURVE",
"285 326 CURVE SMOOTH",
"285 260 OFFCURVE",
"253 74 OFFCURVE",
"253 33 CURVE",
"253 9 OFFCURVE",
"266 -3 OFFCURVE",
"287 -2 CURVE",
"327 -2 OFFCURVE",
"395 33 OFFCURVE",
"395 48 CURVE",
"395 64 OFFCURVE",
"378 89 OFFCURVE",
"365 89 CURVE",
"355 89 OFFCURVE",
"344 66 OFFCURVE",
"312 45 CURVE",
"324 167 OFFCURVE",
"344 249 OFFCURVE",
"344 342 CURVE SMOOTH",
"344 425 OFFCURVE",
"301 455 OFFCURVE",
"245 455 CURVE",
"201 455 OFFCURVE",
"162 432 OFFCURVE",
"128 380 CURVE"
);
}
);
};
layerId = "70F97C4B-94FA-40A4-8E29-E667CA674F9A";
name = Regular;
paths = (
{
closed = 1;
nodes = (
"137 418 LINE",
"167 690 LINE",
"169 713 OFFCURVE",
"162 714 OFFCURVE",
"127 707 CURVE",
"112 703 OFFCURVE",
"106 700 OFFCURVE",
"103 672 CURVE",
"82 495 OFFCURVE",
"26 39 OFFCURVE",
"27 13 CURVE",
"24 -10 OFFCURVE",
"31 -12 OFFCURVE",
"67 -4 CURVE",
"82 0 OFFCURVE",
"88 2 OFFCURVE",
"90 30 CURVE",
"112 208 LINE",
"125 311 OFFCURVE",
"172 393 OFFCURVE",
"236 393 CURVE",
"267 393 OFFCURVE",
"285 372 OFFCURVE",
"285 323 CURVE SMOOTH",
"285 257 OFFCURVE",
"252 67 OFFCURVE",
"252 26 CURVE",
"252 2 OFFCURVE",
"265 -10 OFFCURVE",
"286 -9 CURVE",
"326 -9 OFFCURVE",
"394 26 OFFCURVE",
"394 41 CURVE",
"394 57 OFFCURVE",
"377 82 OFFCURVE",
"364 82 CURVE",
"354 82 OFFCURVE",
"343 59 OFFCURVE",
"311 38 CURVE",
"323 160 OFFCURVE",
"344 246 OFFCURVE",
"344 339 CURVE SMOOTH",
"344 422 OFFCURVE",
"301 452 OFFCURVE",
"245 452 CURVE",
"201 452 OFFCURVE",
"162 432 OFFCURVE",
"128 380 CURVE"
);
}
);
width = 406;
}
);
unicode = 0068;
},
{
glyphname = i;
lastChange = "2015-08-27 13:08:49 +0000";
layers = (
{
background = {
paths = (
{
closed = 1;
nodes = (
"67 424 OFFCURVE",
"68 398 OFFCURVE",
"67 381 CURVE",
"67 346 OFFCURVE",
"36 140 OFFCURVE",
"21 20 CURVE",
"21 -3 OFFCURVE",
"50 -10 OFFCURVE",
"61 -10 CURVE",
"75 -10 OFFCURVE",
"80 -4 OFFCURVE",
"83 18 CURVE",
"108 206 LINE",
"123 309 OFFCURVE",
"172 392 OFFCURVE",
"240 392 CURVE",
"277 392 OFFCURVE",
"293 360 OFFCURVE",
"288 286 CURVE",
"288 228 OFFCURVE",
"260 70 OFFCURVE",
"260 29 CURVE",
"260 5 OFFCURVE",
"277 -7 OFFCURVE",
"293 -7 CURVE",
"333 -7 OFFCURVE",
"414 44 OFFCURVE",
"414 59 CURVE",
"414 75 OFFCURVE",
"398 101 OFFCURVE",
"385 101 CURVE",
"375 101 OFFCURVE",
"338 60 OFFCURVE",
"319 40 CURVE",
"332 121 OFFCURVE",
"348 231 OFFCURVE",
"348 295 CURVE",
"348 409 OFFCURVE",
"315 451 OFFCURVE",
"245 451 CURVE",
"202 451 OFFCURVE",
"165 429 OFFCURVE",
"127 378 CURVE",
"131 429 LINE",
"131 452 OFFCURVE",
"122 459 OFFCURVE",
"91 459 CURVE",
"77 459 OFFCURVE",
"68 454 OFFCURVE",
"68 441 CURVE"
);
},
{
closed = 1;
nodes = (
"101 602 OFFCURVE",
"76 565 OFFCURVE",
"81 531 CURVE SMOOTH",
"83 515 OFFCURVE",
"96 502 OFFCURVE",
"113 504 CURVE",
"141 508 OFFCURVE",
"166 546 OFFCURVE",
"161 580 CURVE SMOOTH",
"158 597 OFFCURVE",
"146 609 OFFCURVE",
"130 606 CURVE"
);
},
{
closed = 1;
nodes = (
"162 584 LINE",
"165 604 OFFCURVE",
"157 611 OFFCURVE",
"120 603 CURVE",
"104 599 OFFCURVE",
"100 595 OFFCURVE",
"94 568 CURVE",
"88 535 LINE",
"85 511 OFFCURVE",
"92 509 OFFCURVE",
"130 516 CURVE",
"146 520 OFFCURVE",
"149 526 OFFCURVE",
"155 552 CURVE"
);
}
);
};
layerId = "70F97C4B-94FA-40A4-8E29-E667CA674F9A";
name = Regular;
paths = (
{
closed = 1;
nodes = (
"141 454 OFFCURVE",
"134 456 OFFCURVE",
"98 449 CURVE",
"83 445 OFFCURVE",
"77 443 OFFCURVE",
"74 415 CURVE",
"66 358 OFFCURVE",
"26 60 OFFCURVE",
"26 29 CURVE",
"26 5 OFFCURVE",
"38 -7 OFFCURVE",
"59 -7 CURVE",
"99 -7 OFFCURVE",
"168 27 OFFCURVE",
"168 42 CURVE",
"168 58 OFFCURVE",
"152 83 OFFCURVE",
"139 83 CURVE",
"129 83 OFFCURVE",
"117 60 OFFCURVE",
"85 40 CURVE",
"98 121 OFFCURVE",
"135 397 OFFCURVE",
"138 431 CURVE"
);
},
{
closed = 1;
nodes = (
"145 512 OFFCURVE",
"168 529 OFFCURVE",
"168 560 CURVE SMOOTH",
"168 583 OFFCURVE",
"147 602 OFFCURVE",
"126 602 CURVE SMOOTH",
"101 602 OFFCURVE",
"78 585 OFFCURVE",
"78 555 CURVE SMOOTH",
"78 530 OFFCURVE",
"99 512 OFFCURVE",
"121 512 CURVE SMOOTH"
);
}
);
width = 184;
}
);
unicode = 0069;
},
{
glyphname = k;
lastChange = "2015-08-27 13:47:03 +0000";
layers = (
{
background = {
paths = (
{
closed = 1;
nodes = (
"270 49 OFFCURVE",
"292 203 OFFCURVE",
"292 291 CURVE",
"292 355 OFFCURVE",
"276 392 OFFCURVE",
"239 392 CURVE",
"171 391 OFFCURVE",
"127 307 OFFCURVE",
"113 208 CURVE",
"91 30 LINE",
"89 2 OFFCURVE",
"83 0 OFFCURVE",
"68 -4 CURVE",
"32 -12 OFFCURVE",
"25 -10 OFFCURVE",
"28 13 CURVE",
"27 39 OFFCURVE",
"83 495 OFFCURVE",
"104 672 CURVE",
"107 700 OFFCURVE",
"113 703 OFFCURVE",
"128 707 CURVE",
"163 714 OFFCURVE",
"170 713 OFFCURVE",
"168 690 CURVE",
"138 418 LINE",
"131 383 LINE",
"161 426 OFFCURVE",
"193 451 OFFCURVE",
"246 451 CURVE",
"314 451 OFFCURVE",
"352 391 OFFCURVE",
"352 296 CURVE",
"352 135 OFFCURVE",
"292 -9 OFFCURVE",
"173 -9 CURVE",
"114 -9 OFFCURVE",
"76 27 OFFCURVE",
"32 59 CURVE",
"62 106 LINE",
"106 64 OFFCURVE",
"128 47 OFFCURVE",
"168 47 CURVE"
);
},
{
closed = 1;
nodes = (
"405 50 OFFCURVE",
"373 22 OFFCURVE",
"337 2 CURVE SMOOTH",
"318 -9 OFFCURVE",
"301 -14 OFFCURVE",
"284 -14 CURVE SMOOTH",
"263 -14 OFFCURVE",
"249 -6 OFFCURVE",
"238 5 CURVE SMOOTH",
"232 11 OFFCURVE",
"227 18 OFFCURVE",
"224 25 CURVE",
"135 190 LINE SMOOTH",
"130 200 OFFCURVE",
"128 206 OFFCURVE",
"129 209 CURVE SMOOTH",
"130 212 OFFCURVE",
"133 214 OFFCURVE",
"137 216 CURVE SMOOTH",
"197 247 OFFCURVE",
"241 278 OFFCURVE",
"275 318 CURVE SMOOTH",
"292 337 OFFCURVE",
"300 358 OFFCURVE",
"301 380 CURVE SMOOTH",
"302 409 OFFCURVE",
"296 432 OFFCURVE",
"267 432 CURVE SMOOTH",
"253 432 OFFCURVE",
"235 422 OFFCURVE",
"214 403 CURVE SMOOTH",
"171 363 OFFCURVE",
"127 290 OFFCURVE",
"94 186 CURVE SMOOTH",
"77 133 OFFCURVE",
"67 75 OFFCURVE",
"62 10 CURVE",
"54 1 OFFCURVE",
"43 -6 OFFCURVE",
"28 -10 CURVE",
"20 -13 OFFCURVE",
"11 -14 OFFCURVE",
"2 -14 CURVE SMOOTH",
"-17 -14 OFFCURVE",
"-28 -4 OFFCURVE",
"-35 7 CURVE",
"-39 14 OFFCURVE",
"-42 21 OFFCURVE",
"-44 29 CURVE",
"22 183 LINE",
"51 690 LINE",
"32 690 OFFCURVE",
"12 689 OFFCURVE",
"-12 686 CURVE",
"-24 684 OFFCURVE",
"-37 682 OFFCURVE",
"-50 679 CURVE",
"-54 686 OFFCURVE",
"-54 693 OFFCURVE",
"-54 698 CURVE SMOOTH",
"-54 701 OFFCURVE",
"-54 704 OFFCURVE",
"-53 707 CURVE",
"-21 726 OFFCURVE",
"13 741 OFFCURVE",
"54 754 CURVE SMOOTH",
"74 761 OFFCURVE",
"95 766 OFFCURVE",
"118 769 CURVE",
"157 751 LINE",
"82 290 LINE",
"86 289 LINE",
"105 332 OFFCURVE",
"127 370 OFFCURVE",
"150 404 CURVE SMOOTH",
"170 433 OFFCURVE",
"193 462 OFFCURVE",
"220 484 CURVE SMOOTH",
"247 506 OFFCURVE",
"275 520 OFFCURVE",
"306 520 CURVE SMOOTH",
"331 520 OFFCURVE",
"351 507 OFFCURVE",
"363 488 CURVE SMOOTH",
"375 469 OFFCURVE",
"381 445 OFFCURVE",
"381 424 CURVE SMOOTH",
"381 397 OFFCURVE",
"371 371 OFFCURVE",
"355 347 CURVE SMOOTH",
"339 322 OFFCURVE",
"318 297 OFFCURVE",
"297 277 CURVE SMOOTH",
"272 253 OFFCURVE",
"244 230 OFFCURVE",
"213 207 CURVE",
"304 51 LINE",
"425 109 LINE",
"427 108 OFFCURVE",
"429 106 OFFCURVE",
"431 104 CURVE SMOOTH",
"434 101 OFFCURVE",
"437 96 OFFCURVE",
"440 89 CURVE"
);
},
{
closed = 1;
nodes = (
"338 83 OFFCURVE",
"324 60 OFFCURVE",
"292 40 CURVE",
"260.818 91.085 OFFCURVE",
"234.038 148.772 OFFCURVE",
"217.5 191.744 CURVE",
"275 203 OFFCURVE",
"352 253 OFFCURVE",
"352 336 CURVE SMOOTH",
"352 401 OFFCURVE",
"314 451 OFFCURVE",
"246 451 CURVE SMOOTH",
"198 451 OFFCURVE",
"161 426 OFFCURVE",
"131 383 CURVE",
"138 418 LINE",
"168 690 LINE SMOOTH",
"170 713 OFFCURVE",
"163 714 OFFCURVE",
"128 707 CURVE",
"113 703 OFFCURVE",
"107 700 OFFCURVE",
"104 672 CURVE SMOOTH",
"83 495 OFFCURVE",
"27 39 OFFCURVE",
"28 13 CURVE",
"25 -10 OFFCURVE",
"32 -12 OFFCURVE",
"68 -4 CURVE",
"83 0 OFFCURVE",
"89 2 OFFCURVE",
"91 30 CURVE",
"113 208 LINE SMOOTH",
"127 307 OFFCURVE",
"171 391 OFFCURVE",
"239 392 CURVE SMOOTH",
"276 392 OFFCURVE",
"292 365 OFFCURVE",
"292 331 CURVE",
"292 271 OFFCURVE",
"229 240 OFFCURVE",
"143 227 CURVE",
"185 112 OFFCURVE",
"231 -7 OFFCURVE",
"269 -7 CURVE SMOOTH",
"309 -7 OFFCURVE",
"377 27 OFFCURVE",
"377 42 CURVE SMOOTH",
"377 58 OFFCURVE",
"361 83 OFFCURVE",
"348 83 CURVE SMOOTH"
);
}
);
};
layerId = "70F97C4B-94FA-40A4-8E29-E667CA674F9A";
name = Regular;
paths = (
{
closed = 1;
nodes = (
"338 83 OFFCURVE",
"324 60 OFFCURVE",
"292 40 CURVE",
"259 84 OFFCURVE",
"236 129 OFFCURVE",
"220 172 CURVE",
"287 197 OFFCURVE",
"352 263 OFFCURVE",
"352 346 CURVE SMOOTH",
"352 411 OFFCURVE",
"311 451 OFFCURVE",
"253 451 CURVE SMOOTH",
"203 451 OFFCURVE",
"161 426 OFFCURVE",
"131 383 CURVE",
"138 418 LINE",
"168 690 LINE SMOOTH",
"170 713 OFFCURVE",
"163 714 OFFCURVE",
"128 707 CURVE",
"113 703 OFFCURVE",
"107 700 OFFCURVE",
"104 672 CURVE SMOOTH",
"83 495 OFFCURVE",
"27 39 OFFCURVE",
"28 13 CURVE",
"25 -10 OFFCURVE",
"32 -12 OFFCURVE",
"68 -4 CURVE",
"83 0 OFFCURVE",
"89 2 OFFCURVE",
"91 30 CURVE",
"113 208 LINE SMOOTH",
"127 307 OFFCURVE",
"171 391 OFFCURVE",
"239 392 CURVE SMOOTH",
"276 392 OFFCURVE",
"292 371 OFFCURVE",
"292 341 CURVE",
"292 286 OFFCURVE",
"239 235 OFFCURVE",
"161 211 CURVE SMOOTH",
"147 207 OFFCURVE",
"145 199 OFFCURVE",
"149 189 CURVE SMOOTH",
"191 87 OFFCURVE",
"234 -7 OFFCURVE",
"269 -7 CURVE SMOOTH",
"309 -7 OFFCURVE",
"377 27 OFFCURVE",
"377 42 CURVE SMOOTH",
"377 58 OFFCURVE",
"361 83 OFFCURVE",
"348 83 CURVE SMOOTH"
);
}
);
width = 393;
}
);
unicode = 006B;
},
{
glyphname = l;
lastChange = "2015-08-27 14:25:59 +0000";
layers = (
{
background = {
paths = (
{
closed = 1;
nodes = (
"166 713 OFFCURVE",
"159 715 OFFCURVE",
"123 708 CURVE",
"108 704 OFFCURVE",
"102 702 OFFCURVE",
"99 674 CURVE",
"91 617 OFFCURVE",
"21 60 OFFCURVE",
"21 29 CURVE",
"21 5 OFFCURVE",
"33 -7 OFFCURVE",
"54 -7 CURVE",
"94 -7 OFFCURVE",
"163 27 OFFCURVE",
"163 42 CURVE",
"163 58 OFFCURVE",
"147 83 OFFCURVE",
"134 83 CURVE",
"124 83 OFFCURVE",
"112 60 OFFCURVE",
"80 40 CURVE",
"93 121 OFFCURVE",
"160 656 OFFCURVE",
"163 690 CURVE"
);
}
);
};
layerId = "70F97C4B-94FA-40A4-8E29-E667CA674F9A";
name = Regular;
paths = (
{
closed = 1;
nodes = (
"166 713 OFFCURVE",
"159 715 OFFCURVE",
"123 708 CURVE",
"108 704 OFFCURVE",
"102 702 OFFCURVE",
"99 674 CURVE",
"91 617 OFFCURVE",
"26 60 OFFCURVE",
"26 29 CURVE",
"26 5 OFFCURVE",
"38 -7 OFFCURVE",
"59 -7 CURVE",
"99 -7 OFFCURVE",
"168 27 OFFCURVE",
"168 42 CURVE",
"168 58 OFFCURVE",
"152 83 OFFCURVE",
"139 83 CURVE",
"129 83 OFFCURVE",
"117 60 OFFCURVE",
"85 40 CURVE",
"98 121 OFFCURVE",
"160 656 OFFCURVE",
"163 690 CURVE"
);
}
);
width = 184;
}
);
unicode = 006C;
},
{
glyphname = m;
lastChange = "2015-08-27 13:54:51 +0000";
layers = (
{
background = {
paths = (
{
closed = 1;
nodes = (
"75 310 OFFCURVE",
"43 163 OFFCURVE",
"24 13 CURVE",
"21 -10 OFFCURVE",
"28 -12 OFFCURVE",
"64 -5 CURVE",
"79 -1 OFFCURVE",
"85 1 OFFCURVE",
"88 29 CURVE",
"116 206 LINE",
"131 309 OFFCURVE",
"179 392 OFFCURVE",
"243 392 CURVE",
"274 392 OFFCURVE",
"290 370 OFFCURVE",
"291 321 CURVE SMOOTH",
"292 255 OFFCURVE",
"254 70 OFFCURVE",
"254 29 CURVE",
"254 5 OFFCURVE",
"266 -7 OFFCURVE",
"287 -7 CURVE",
"327 -7 OFFCURVE",
"396 27 OFFCURVE",
"396 42 CURVE",
"396 58 OFFCURVE",
"380 83 OFFCURVE",
"367 83 CURVE",
"357 83 OFFCURVE",
"345 60 OFFCURVE",
"313 40 CURVE",
"327 162 OFFCURVE",
"350 243 OFFCURVE",
"350 336 CURVE SMOOTH",
"350 419 OFFCURVE",
"309 451 OFFCURVE",
"253 451 CURVE",
"209 451 OFFCURVE",
"170 430 OFFCURVE",
"135 378 CURVE",
"139 431 LINE",
"142 454 OFFCURVE",
"135 456 OFFCURVE",
"99 449 CURVE",
"80 445 OFFCURVE",
"75 443 OFFCURVE",
"75 415 CURVE"
);
}
);
};
layerId = "70F97C4B-94FA-40A4-8E29-E667CA674F9A";
name = Regular;
paths = (
{
closed = 1;
nodes = (
"325 427 OFFCURVE",
"291 451 OFFCURVE",
"243 451 CURVE",
"205 451 OFFCURVE",
"170 430 OFFCURVE",
"135 378 CURVE",
"139 431 LINE",
"142 454 OFFCURVE",
"135 456 OFFCURVE",
"99 449 CURVE",
"80 445 OFFCURVE",
"75 443 OFFCURVE",
"75 415 CURVE",
"75 310 OFFCURVE",
"43 163 OFFCURVE",
"24 13 CURVE",
"21 -10 OFFCURVE",
"28 -12 OFFCURVE",
"64 -5 CURVE",
"79 -1 OFFCURVE",
"85 1 OFFCURVE",
"88 29 CURVE",
"116 206 LINE",
"131 309 OFFCURVE",
"179 392 OFFCURVE",
"233 392 CURVE",
"264 392 OFFCURVE",
"280 370 OFFCURVE",
"281 321 CURVE SMOOTH",
"282 255 OFFCURVE",
"247 54 OFFCURVE",
"241 13 CURVE",
"238 -10 OFFCURVE",
"246 -12 OFFCURVE",
"278 -5 CURVE",
"293 -1 OFFCURVE",
"299 1 OFFCURVE",
"302 29 CURVE",
"311 90 OFFCURVE",
"321 154 OFFCURVE",
"328 206 CURVE",
"343 316 OFFCURVE",
"391 392 OFFCURVE",
"445 392 CURVE",
"476 392 OFFCURVE",
"492 370 OFFCURVE",
"493 321 CURVE SMOOTH",
"494 255 OFFCURVE",
"456 70 OFFCURVE",
"456 29 CURVE",
"456 5 OFFCURVE",
"468 -7 OFFCURVE",
"489 -7 CURVE",
"529 -7 OFFCURVE",
"598 27 OFFCURVE",
"598 42 CURVE",
"598 58 OFFCURVE",
"582 83 OFFCURVE",
"569 83 CURVE",
"559 83 OFFCURVE",
"547 60 OFFCURVE",
"515 40 CURVE",
"529 162 OFFCURVE",
"552 243 OFFCURVE",
"552 336 CURVE SMOOTH",
"552 419 OFFCURVE",
"511 451 OFFCURVE",
"455 451 CURVE",
"417 451 OFFCURVE",
"372 426 OFFCURVE",
"335 368 CURVE"
);
}
);
width = 614;
}
);
unicode = 006D;
},
{
glyphname = n;
lastChange = "2015-08-27 13:53:30 +0000";
layers = (
{
background = {
paths = (
{
closed = 1;
nodes = (
"116 206 LINE",
"131 309 OFFCURVE",
"180 392 OFFCURVE",
"248 392 CURVE",
"285 392 OFFCURVE",
"301 360 OFFCURVE",
"296 286 CURVE",
"296 228 OFFCURVE",
"268 70 OFFCURVE",
"268 29 CURVE",
"268 5 OFFCURVE",
"280 -7 OFFCURVE",
"301 -7 CURVE",
"341 -7 OFFCURVE",
"410 27 OFFCURVE",
"410 42 CURVE",
"410 58 OFFCURVE",
"394 83 OFFCURVE",
"381 83 CURVE",
"371 83 OFFCURVE",
"359 60 OFFCURVE",
"327 40 CURVE",
"340 121 OFFCURVE",
"356 231 OFFCURVE",
"356 295 CURVE",
"356 409 OFFCURVE",
"323 451 OFFCURVE",
"253 451 CURVE",
"210 451 OFFCURVE",
"173 429 OFFCURVE",
"135 378 CURVE",
"139 429 LINE",
"139 452 OFFCURVE",
"130 459 OFFCURVE",
"99 459 CURVE",
"85 459 OFFCURVE",
"76 454 OFFCURVE",
"76 441 CURVE",
"75 424 OFFCURVE",
"76 398 OFFCURVE",
"75 381 CURVE",
"75 346 OFFCURVE",
"43 129 OFFCURVE",
"28 9 CURVE",
"25 -14 OFFCURVE",
"32 -16 OFFCURVE",
"68 -9 CURVE",
"83 -5 OFFCURVE",
"89 -3 OFFCURVE",
"92 25 CURVE"
);
}
);
};
layerId = "70F97C4B-94FA-40A4-8E29-E667CA674F9A";
name = Regular;
paths = (
{
closed = 1;
nodes = (
"75 310 OFFCURVE",
"43 163 OFFCURVE",
"24 13 CURVE",
"21 -10 OFFCURVE",
"28 -12 OFFCURVE",
"64 -5 CURVE",
"79 -1 OFFCURVE",
"85 1 OFFCURVE",
"88 29 CURVE",
"116 206 LINE",
"131 309 OFFCURVE",
"179 392 OFFCURVE",
"243 392 CURVE",
"274 392 OFFCURVE",
"290 370 OFFCURVE",
"291 321 CURVE SMOOTH",
"292 255 OFFCURVE",
"254 70 OFFCURVE",
"254 29 CURVE",
"254 5 OFFCURVE",
"266 -7 OFFCURVE",
"287 -7 CURVE",
"327 -7 OFFCURVE",
"396 27 OFFCURVE",
"396 42 CURVE",
"396 58 OFFCURVE",
"380 83 OFFCURVE",
"367 83 CURVE",
"357 83 OFFCURVE",
"345 60 OFFCURVE",
"313 40 CURVE",
"327 162 OFFCURVE",
"350 243 OFFCURVE",
"350 336 CURVE SMOOTH",
"350 419 OFFCURVE",
"309 451 OFFCURVE",
"253 451 CURVE",
"209 451 OFFCURVE",
"170 430 OFFCURVE",
"135 378 CURVE",
"139 431 LINE",
"142 454 OFFCURVE",
"135 456 OFFCURVE",
"99 449 CURVE",
"80 445 OFFCURVE",
"75 443 OFFCURVE",
"75 415 CURVE"
);
}
);
width = 412;
}
);
unicode = 006E;
},
{
glyphname = o;
lastChange = "2015-08-27 15:12:09 +0000";
layers = (
{
background = {
paths = (
{
closed = 1;
nodes = (
"230 451 LINE",
"298 451 OFFCURVE",
"338 385 OFFCURVE",
"333 290 CURVE",
"333 129 OFFCURVE",
"268 -3 OFFCURVE",
"149 -3 CURVE",
"137 -3 LINE",
"69 -3 OFFCURVE",
"29 63 OFFCURVE",
"34 158 CURVE",
"34 319 OFFCURVE",
"99 451 OFFCURVE",
"218 451 CURVE"
);
},
{
closed = 1;
nodes = (
"120 392 OFFCURVE",
"94 228 OFFCURVE",
"94 160 CURVE",
"94 96 OFFCURVE",
"108 54 OFFCURVE",
"145 54 CURVE",
"247 54 OFFCURVE",
"273 218 OFFCURVE",
"273 286 CURVE",
"273 350 OFFCURVE",
"259 392 OFFCURVE",
"222 392 CURVE"
);
},
{
closed = 1;
nodes = (
"276 350 OFFCURVE",
"259 392 OFFCURVE",
"218 392 CURVE",
"120 392 OFFCURVE",
"91 232 OFFCURVE",
"91 160 CURVE",
"91 96 OFFCURVE",
"108 48 OFFCURVE",
"149 48 CURVE",
"247 48 OFFCURVE",
"276 215 OFFCURVE",
"276 286 CURVE"
);
},
{
closed = 1;
nodes = (
"70 -9 OFFCURVE",
"31 67 OFFCURVE",
"31 147 CURVE",
"31 311 OFFCURVE",
"97 451 OFFCURVE",
"224 451 CURVE",
"297 451 OFFCURVE",
"336 381 OFFCURVE",
"336 301 CURVE",
"336 137 OFFCURVE",
"270 -9 OFFCURVE",
"143 -9 CURVE"
);
},
{
closed = 1;
nodes = (
"271 351 OFFCURVE",
"252 392 OFFCURVE",
"211 392 CURVE",
"113 392 OFFCURVE",
"88 230 OFFCURVE",
"88 158 CURVE",
"88 94 OFFCURVE",
"107 47 OFFCURVE",
"148 47 CURVE",
"246 47 OFFCURVE",
"271 216 OFFCURVE",
"271 287 CURVE"
);
},
{
closed = 1;
nodes = (
"70 -9 OFFCURVE",
"30 63 OFFCURVE",
"29 144 CURVE",
"29 308 OFFCURVE",
"89 451 OFFCURVE",
"216 451 CURVE",
"289 451 OFFCURVE",
"331 383 OFFCURVE",
"331 296 CURVE",
"331 139 OFFCURVE",
"270 -10 OFFCURVE",
"143 -10 CURVE"
);
}
);
};
layerId = "70F97C4B-94FA-40A4-8E29-E667CA674F9A";
name = Regular;
paths = (
{
closed = 1;
nodes = (
"89 451 OFFCURVE",
"29 308 OFFCURVE",
"29 144 CURVE",
"30 63 OFFCURVE",
"70 -9 OFFCURVE",
"143 -10 CURVE",
"270 -10 OFFCURVE",
"330 133 OFFCURVE",
"330 297 CURVE",
"329 378 OFFCURVE",
"289 450 OFFCURVE",
"216 451 CURVE"
);
},
{
closed = 1;
nodes = (
"107 47 OFFCURVE",
"88 94 OFFCURVE",
"88 158 CURVE",
"88 230 OFFCURVE",
"113 392 OFFCURVE",
"211 392 CURVE",
"252 392 OFFCURVE",
"271 347 OFFCURVE",
"271 283 CURVE",
"271 211 OFFCURVE",
"246 47 OFFCURVE",
"148 47 CURVE"
);
}
);
width = 359;
}
);
unicode = 006F;
},
{
glyphname = p;
lastChange = "2015-08-27 13:19:44 +0000";
layers = (
{
background = {
paths = (
{
closed = 0;
nodes = (
"123 375 LINE",
"154 422 OFFCURVE",
"184 450 OFFCURVE",
"237 450 CURVE",
"300 449 OFFCURVE",
"343 393 OFFCURVE",
"342 298 CURVE",
"340 137 OFFCURVE",
"279 -10 OFFCURVE",
"160 -9 CURVE",
"106 -9 OFFCURVE",
"72 20 OFFCURVE",
"29 54 CURVE",
"55 93 LINE",
"99 61 OFFCURVE",
"120 48 OFFCURVE",
"155 48 CURVE",
"257 47 OFFCURVE",
"281 226 OFFCURVE",
"282 294 CURVE",
"282 348 OFFCURVE",
"266 391 OFFCURVE",
"217 391 CURVE",
"161 391 OFFCURVE",
"115 300 OFFCURVE",
"103 198 CURVE",
"86 61 OFFCURVE",
"59 -149 OFFCURVE",
"49 -233 CURVE",
"46 -261 OFFCURVE",
"40 -263 OFFCURVE",
"26 -267 CURVE",
"-10 -275 OFFCURVE",
"-17 -273 OFFCURVE",
"-15 -250 CURVE",
"3 -111 OFFCURVE",
"33 90 OFFCURVE",
"52 234 CURVE SMOOTH",
"63 313 OFFCURVE",
"70 375 OFFCURVE",
"70 401 CURVE",
"37 382 OFFCURVE",
"26 358 OFFCURVE",
"16 358 CURVE",
"3 358 OFFCURVE",
"-14 383 OFFCURVE",
"-13 399 CURVE",
"-13 414 OFFCURVE",
"45 450 OFFCURVE",
"85 449 CURVE",
"121 449 OFFCURVE",
"124 407 OFFCURVE",
"123 375 CURVE"
);
}
);
};
layerId = "70F97C4B-94FA-40A4-8E29-E667CA674F9A";
name = Regular;
paths = (
{
closed = 1;
nodes = (
"71 265 OFFCURVE",
"14 -36 OFFCURVE",
"-7 -175 CURVE",
"-9 -198 OFFCURVE",
"-2 -200 OFFCURVE",
"34 -193 CURVE",
"48 -189 OFFCURVE",
"54 -187 OFFCURVE",
"58 -159 CURVE",
"69 -75 OFFCURVE",
"91 64 OFFCURVE",
"110 201 CURVE",
"123 283 OFFCURVE",
"181 393 OFFCURVE",
"238 392 CURVE",
"276 391 OFFCURVE",
"292 348 OFFCURVE",
"291 294 CURVE",
"289 226 OFFCURVE",
"261 47 OFFCURVE",
"159 50 CURVE",
"124 51 OFFCURVE",
"104 64 OFFCURVE",
"60 97 CURVE",
"34 58 LINE",
"76 24 OFFCURVE",
"109 -6 OFFCURVE",
"163 -7 CURVE",
"282 -10 OFFCURVE",
"346 136 OFFCURVE",
"351 297 CURVE",
"353 392 OFFCURVE",
"314 448 OFFCURVE",
"248 451 CURVE",
"195 452 OFFCURVE",
"165 424 OFFCURVE",
"133 378 CURVE",
"138 434 LINE",
"142 456 OFFCURVE",
"135 459 OFFCURVE",
"98 452 CURVE",
"79 449 OFFCURVE",
"74 447 OFFCURVE",
"74 419 CURVE"
);
}
);
width = 379;
}
);
unicode = 0070;
},
{
glyphname = q;
lastChange = "2015-08-27 14:58:02 +0000";
layers = (
{
background = {
paths = (
{
closed = 1;
nodes = (
"295 265 OFFCURVE",
"238 -36 OFFCURVE",
"217 -175 CURVE",
"215 -198 OFFCURVE",
"222 -200 OFFCURVE",
"258 -193 CURVE",
"272 -189 OFFCURVE",
"278 -187 OFFCURVE",
"282 -159 CURVE",
"293 -75 OFFCURVE",
"315 64 OFFCURVE",
"334 201 CURVE",
"347 283 OFFCURVE",
"405 393 OFFCURVE",
"462 392 CURVE",
"500 391 OFFCURVE",
"516 348 OFFCURVE",
"515 294 CURVE",
"513 226 OFFCURVE",
"485 47 OFFCURVE",
"383 50 CURVE",
"348 51 OFFCURVE",
"328 64 OFFCURVE",
"284 97 CURVE",
"258 58 LINE",
"300 24 OFFCURVE",
"333 -6 OFFCURVE",
"387 -7 CURVE",
"506 -10 OFFCURVE",
"570 136 OFFCURVE",
"575 297 CURVE",
"577 392 OFFCURVE",
"538 448 OFFCURVE",
"472 451 CURVE",
"419 452 OFFCURVE",
"389 424 OFFCURVE",
"357 378 CURVE",
"362 434 LINE",
"366 456 OFFCURVE",
"359 459 OFFCURVE",
"322 452 CURVE",
"303 449 OFFCURVE",
"298 447 OFFCURVE",
"298 419 CURVE"
);
}
);
};
layerId = "70F97C4B-94FA-40A4-8E29-E667CA674F9A";
name = Regular;
paths = (
{
closed = 1;
nodes = (
"110 393 OFFCURVE",
"88 239 OFFCURVE",
"88 151 CURVE",
"88 87 OFFCURVE",
"104 50 OFFCURVE",
"141 50 CURVE",
"209 51 OFFCURVE",
"253 135 OFFCURVE",
"267 234 CURVE",
"289 412 LINE",
"291 440 OFFCURVE",
"297 442 OFFCURVE",
"312 446 CURVE",
"348 454 OFFCURVE",
"355 452 OFFCURVE",
"352 429 CURVE",
"353 403 OFFCURVE",
"303 19 OFFCURVE",
"282 -158 CURVE",
"279 -186 OFFCURVE",
"273 -189 OFFCURVE",
"258 -193 CURVE",
"223 -200 OFFCURVE",
"216 -199 OFFCURVE",
"218 -176 CURVE",
"242 24 LINE",
"249 59 LINE",
"219 16 OFFCURVE",
"187 -9 OFFCURVE",
"134 -9 CURVE",
"66 -9 OFFCURVE",
"28 51 OFFCURVE",
"28 146 CURVE",
"28 307 OFFCURVE",
"88 451 OFFCURVE",
"207 451 CURVE",
"266 451 OFFCURVE",
"304 415 OFFCURVE",
"348 383 CURVE",
"318 336 LINE",
"274 378 OFFCURVE",
"252 395 OFFCURVE",
"212 395 CURVE"
);
}
);
width = 385;
}
);
unicode = 0071;
},
{
glyphname = r;
lastChange = "2015-08-27 14:36:26 +0000";
layers = (
{
background = {
paths = (
{
closed = 1;
nodes = (
"75 310 OFFCURVE",
"43 163 OFFCURVE",
"24 13 CURVE",
"21 -10 OFFCURVE",
"28 -12 OFFCURVE",
"64 -5 CURVE",
"79 -1 OFFCURVE",
"85 1 OFFCURVE",
"88 29 CURVE",
"116 206 LINE",
"131 309 OFFCURVE",
"179 392 OFFCURVE",
"243 392 CURVE",
"274 392 OFFCURVE",
"290 370 OFFCURVE",
"291 321 CURVE SMOOTH",
"292 255 OFFCURVE",
"254 70 OFFCURVE",
"254 29 CURVE",
"254 5 OFFCURVE",
"266 -7 OFFCURVE",
"287 -7 CURVE",
"327 -7 OFFCURVE",
"396 27 OFFCURVE",
"396 42 CURVE",
"396 58 OFFCURVE",
"380 83 OFFCURVE",
"367 83 CURVE",
"357 83 OFFCURVE",
"345 60 OFFCURVE",
"313 40 CURVE",
"327 162 OFFCURVE",
"350 243 OFFCURVE",
"350 336 CURVE SMOOTH",
"350 419 OFFCURVE",
"309 451 OFFCURVE",
"253 451 CURVE",
"209 451 OFFCURVE",
"170 430 OFFCURVE",
"135 378 CURVE",
"139 431 LINE",
"142 454 OFFCURVE",
"135 456 OFFCURVE",
"99 449 CURVE",
"80 445 OFFCURVE",
"75 443 OFFCURVE",
"75 415 CURVE"
);
},
{
closed = 1;
nodes = (
"75 310 OFFCURVE",
"43 163 OFFCURVE",
"24 13 CURVE",
"21 -10 OFFCURVE",
"28 -12 OFFCURVE",
"64 -5 CURVE",
"79 -1 OFFCURVE",
"85 1 OFFCURVE",
"88 29 CURVE",
"116 206 LINE",
"131 309 OFFCURVE",
"179 382 OFFCURVE",
"243 382 CURVE",
"259 382 OFFCURVE",
"271 377 OFFCURVE",
"281 371 CURVE",
"312 435 LINE",
"295 445 OFFCURVE",
"275 451 OFFCURVE",
"253 451 CURVE",
"209 451 OFFCURVE",
"170 430 OFFCURVE",
"135 378 CURVE",
"139 431 LINE",
"142 454 OFFCURVE",
"135 456 OFFCURVE",
"99 449 CURVE",
"80 445 OFFCURVE",
"75 443 OFFCURVE",
"75 415 CURVE"
);
}
);
};
layerId = "70F97C4B-94FA-40A4-8E29-E667CA674F9A";
name = Regular;
paths = (
{
closed = 1;
nodes = (
"75 310 OFFCURVE",
"43 163 OFFCURVE",
"24 13 CURVE",
"21 -10 OFFCURVE",
"28 -12 OFFCURVE",
"64 -5 CURVE",
"79 -1 OFFCURVE",
"85 1 OFFCURVE",
"88 29 CURVE",
"116 206 LINE",
"131 309 OFFCURVE",
"179 382 OFFCURVE",
"243 382 CURVE",
"248 382 OFFCURVE",
"258 380 OFFCURVE",
"262 379 CURVE SMOOTH",
"280 373 OFFCURVE",
"285 379 OFFCURVE",
"294 397 CURVE",
"300 410 LINE",
"309 428 OFFCURVE",
"312 435 OFFCURVE",
"283 446 CURVE SMOOTH",
"274 449 OFFCURVE",
"264 451 OFFCURVE",
"253 451 CURVE",
"209 451 OFFCURVE",
"170 430 OFFCURVE",
"135 378 CURVE",
"139 431 LINE",
"142 454 OFFCURVE",
"135 456 OFFCURVE",
"99 449 CURVE",
"80 445 OFFCURVE",
"75 443 OFFCURVE",
"75 415 CURVE"
);
}
);
width = 288;
}
);
unicode = 0072;
},
{
glyphname = s;
lastChange = "2015-08-11 09:16:21 +0000";
layers = (
{
background = {
paths = (
{
closed = 1;
nodes = (
"270 364 LINE",
"238 392 OFFCURVE",
"213 396 OFFCURVE",
"187 396 CURVE SMOOTH",
"150 396 OFFCURVE",
"118 378 OFFCURVE",
"118 334 CURVE",
"118 292 OFFCURVE",
"153 271 OFFCURVE",
"189 246 CURVE SMOOTH",
"233 216 OFFCURVE",
"280 184 OFFCURVE",
"280 119 CURVE",
"280 31 OFFCURVE",
"212 -9 OFFCURVE",
"142 -9 CURVE",
"112 -9 OFFCURVE",
"53 3 OFFCURVE",
"9 61 CURVE SMOOTH",
"-1 74 OFFCURVE",
"4 83 OFFCURVE",
"17 95 CURVE",
"33 109 OFFCURVE",
"40 112 OFFCURVE",
"52 97 CURVE SMOOTH",
"76 68 OFFCURVE",
"111 49 OFFCURVE",
"141 49 CURVE",
"183 49 OFFCURVE",
"222 68 OFFCURVE",
"222 121 CURVE",
"222 167 OFFCURVE",
"174 191 OFFCURVE",
"136 217 CURVE SMOOTH",
"94 244 OFFCURVE",
"62 280 OFFCURVE",
"62 334 CURVE",
"62 404 OFFCURVE",
"117 452 OFFCURVE",
"196 451 CURVE SMOOTH",
"235 451 OFFCURVE",
"278 433 OFFCURVE",
"305 406 CURVE"
);
}
);
};
layerId = "70F97C4B-94FA-40A4-8E29-E667CA674F9A";
name = Regular;
paths = (
{
closed = 1;
nodes = (
"283 382 CURVE",
"268 364 OFFCURVE",
"264 360 OFFCURVE",
"245 373 CURVE SMOOTH",
"224 388 OFFCURVE",
"203 394 OFFCURVE",
"183 394 CURVE SMOOTH",
"146 394 OFFCURVE",
"117 378 OFFCURVE",
"117 334 CURVE",
"117 292 OFFCURVE",
"150 271 OFFCURVE",
"186 246 CURVE SMOOTH",
"230 216 OFFCURVE",
"279 178 OFFCURVE",
"279 113 CURVE",
"278 35 OFFCURVE",
"212 -9 OFFCURVE",
"142 -9 CURVE",
"112 -9 OFFCURVE",
"53 3 OFFCURVE",
"9 61 CURVE SMOOTH",
"-1 74 OFFCURVE",
"4 83 OFFCURVE",
"17 95 CURVE",
"34 111 OFFCURVE",
"41 114 OFFCURVE",
"53 99 CURVE SMOOTH",
"77 70 OFFCURVE",
"112 51 OFFCURVE",
"142 51 CURVE",
"184 51 OFFCURVE",
"218 73 OFFCURVE",
"219 116 CURVE",
"218 162 OFFCURVE",
"169 189 OFFCURVE",
"131 215 CURVE SMOOTH",
"89 242 OFFCURVE",
"58 280 OFFCURVE",
"58 334 CURVE",
"58 408 OFFCURVE",
"113 453 OFFCURVE",
"192 453 CURVE SMOOTH",
"228 453 OFFCURVE",
"258 438 OFFCURVE",
"283 420 CURVE SMOOTH",
"303 405 OFFCURVE",
"298 399 OFFCURVE"
);
}
);
width = 313;
}
);
unicode = 0073;
},
{
glyphname = u;
lastChange = "2015-08-27 14:52:46 +0000";
layers = (
{
background = {
paths = (
{
closed = 1;
nodes = (
"300 132 OFFCURVE",
"332 279 OFFCURVE",
"351 429 CURVE",
"354 452 OFFCURVE",
"347 454 OFFCURVE",
"311 447 CURVE",
"296 443 OFFCURVE",
"290 441 OFFCURVE",
"287 413 CURVE",
"259 236 LINE",
"244 133 OFFCURVE",
"196 50 OFFCURVE",
"132 50 CURVE",
"101 50 OFFCURVE",
"85 72 OFFCURVE",
"84 121 CURVE SMOOTH",
"83 187 OFFCURVE",
"121 372 OFFCURVE",
"121 413 CURVE",
"121 437 OFFCURVE",
"109 449 OFFCURVE",
"88 449 CURVE",
"48 449 OFFCURVE",
"-21 415 OFFCURVE",
"-21 400 CURVE",
"-21 384 OFFCURVE",
"-5 359 OFFCURVE",
"8 359 CURVE",
"18 359 OFFCURVE",
"30 382 OFFCURVE",
"62 402 CURVE",
"48 280 OFFCURVE",
"25 199 OFFCURVE",
"25 106 CURVE SMOOTH",
"25 23 OFFCURVE",
"66 -9 OFFCURVE",
"122 -9 CURVE",
"166 -9 OFFCURVE",
"205 12 OFFCURVE",
"240 64 CURVE",
"236 11 LINE",
"233 -12 OFFCURVE",
"240 -14 OFFCURVE",
"276 -7 CURVE",
"295 -3 OFFCURVE",
"300 -1 OFFCURVE",
"300 27 CURVE"
);
}
);
};
layerId = "70F97C4B-94FA-40A4-8E29-E667CA674F9A";
name = Regular;
paths = (
{
closed = 1;
nodes = (
"101 50 OFFCURVE",
"86 72 OFFCURVE",
"85 121 CURVE",
"85 207 OFFCURVE",
"124 397 OFFCURVE",
"127 431 CURVE",
"130 454 OFFCURVE",
"123 456 OFFCURVE",
"87 449 CURVE",
"72 445 OFFCURVE",
"66 443 OFFCURVE",
"63 415 CURVE",
"55 358 OFFCURVE",
"24 175 OFFCURVE",
"24 110 CURVE",
"24 27 OFFCURVE",
"66 -9 OFFCURVE",
"122 -9 CURVE",
"175 -9 OFFCURVE",
"208 21 OFFCURVE",
"238 67 CURVE",
"238 35 OFFCURVE",
"240 -7 OFFCURVE",
"276 -7 CURVE",
"316 -7 OFFCURVE",
"375 27 OFFCURVE",
"375 42 CURVE",
"375 58 OFFCURVE",
"359 83 OFFCURVE",
"346 83 CURVE",
"336 83 OFFCURVE",
"324 60 OFFCURVE",
"292 40 CURVE",
"292 102 OFFCURVE",
"320 265 OFFCURVE",
"345 431 CURVE",
"348 454 OFFCURVE",
"341 456 OFFCURVE",
"305 449 CURVE",
"290 445 OFFCURVE",
"284 443 OFFCURVE",
"281 415 CURVE",
"273 352 OFFCURVE",
"265 262 OFFCURVE",
"244 184 CURVE SMOOTH",
"224 109 OFFCURVE",
"188 50 OFFCURVE",
"132 50 CURVE"
);
}
);
width = 391;
}
);
unicode = 0075;
},
{
glyphname = gjAnusvara;
lastChange = "2015-08-25 07:59:36 +0000";
layers = (
{
layerId = "70F97C4B-94FA-40A4-8E29-E667CA674F9A";
name = Regular;
paths = (
{
closed = 1;
nodes = (
"-31 688 OFFCURVE",
"-9 705 OFFCURVE",
"-9 734 CURVE SMOOTH",
"-9 757 OFFCURVE",
"-29 775 OFFCURVE",
"-50 775 CURVE SMOOTH",
"-74 775 OFFCURVE",
"-96 758 OFFCURVE",
"-96 730 CURVE SMOOTH",
"-96 706 OFFCURVE",
"-76 688 OFFCURVE",
"-54 688 CURVE SMOOTH"
);
}
);
width = 0;
}
);
unicode = 0A82;
},
{
glyphname = gjVisarga;
lastChange = "2015-08-25 07:59:10 +0000";
layers = (
{
layerId = "70F97C4B-94FA-40A4-8E29-E667CA674F9A";
name = Regular;
paths = (
{
closed = 1;
nodes = (
"97 406 OFFCURVE",
"118 422 OFFCURVE",
"118 450 CURVE SMOOTH",
"118 472 OFFCURVE",
"99 489 OFFCURVE",
"79 489 CURVE SMOOTH",
"56 489 OFFCURVE",
"35 473 OFFCURVE",
"35 446 CURVE SMOOTH",
"35 423 OFFCURVE",
"54 406 OFFCURVE",
"75 406 CURVE SMOOTH"
);
},
{
closed = 1;
nodes = (
"77 178 OFFCURVE",
"98 194 OFFCURVE",
"98 222 CURVE SMOOTH",
"98 244 OFFCURVE",
"79 261 OFFCURVE",
"59 261 CURVE SMOOTH",
"36 261 OFFCURVE",
"15 245 OFFCURVE",
"15 218 CURVE SMOOTH",
"15 195 OFFCURVE",
"34 178 OFFCURVE",
"55 178 CURVE SMOOTH"
);
}
);
width = 133;
}
);
unicode = 0A83;
},
{
color = 10;
glyphname = gjKa;
lastChange = "2015-08-30 17:52:15 +0000";
layers = (
{
anchors = (
{
name = bottom;
position = "{196, 0}";
},
{
name = top;
position = "{294, 628}";
}
);
background = {
paths = (
{
closed = 1;
nodes = (
"-183 575 OFFCURVE",
"-179 560 OFFCURVE",
"-198 562 CURVE SMOOTH",
"-275 570 OFFCURVE",
"-329 554 OFFCURVE",
"-329 480 CURVE",
"-329 432 OFFCURVE",
"-297 386 OFFCURVE",
"-259 331 CURVE SMOOTH",
"-222 278 OFFCURVE",
"-180 206 OFFCURVE",
"-180 142 CURVE",
"-180 44 OFFCURVE",
"-256 -3 OFFCURVE",
"-333 -3 CURVE",
"-403 -3 OFFCURVE",
"-446 33 OFFCURVE",
"-494 96 CURVE SMOOTH",
"-505 109 OFFCURVE",
"-499 118 OFFCURVE",
"-486 130 CURVE",
"-470 144 OFFCURVE",
"-462 146 OFFCURVE",
"-451 132 CURVE SMOOTH",
"-423 96 OFFCURVE",
"-387 55 OFFCURVE",
"-334 55 CURVE",
"-282 55 OFFCURVE",
"-239 81 OFFCURVE",
"-239 144 CURVE",
"-239 262 OFFCURVE",
"-388 355 OFFCURVE",
"-388 482 CURVE",
"-388 592 OFFCURVE",
"-312 622 OFFCURVE",
"-217 617 CURVE SMOOTH",
"-198 616 OFFCURVE",
"-194 614 OFFCURVE",
"-188 593 CURVE"
);
},
{
closed = 1;
nodes = (
"-380 262 LINE",
"-409 251 OFFCURVE",
"-413 255 OFFCURVE",
"-424 269 CURVE",
"-438 290 OFFCURVE",
"-438 297 OFFCURVE",
"-407 306 CURVE",
"-203 386 LINE",
"-178 396 OFFCURVE",
"-170 393 OFFCURVE",
"-159 379 CURVE",
"-152 370 OFFCURVE",
"-149 364 OFFCURVE",
"-149 358 CURVE SMOOTH",
"-149 349 OFFCURVE",
"-156 346 OFFCURVE",
"-180 336 CURVE"
);
},
{
closed = 1;
nodes = (
"-380 262 LINE",
"-409 251 OFFCURVE",
"-413 255 OFFCURVE",
"-424 269 CURVE",
"-438 290 OFFCURVE",
"-438 297 OFFCURVE",
"-407 306 CURVE",
"-203 386 LINE",
"-178 396 OFFCURVE",
"-170 393 OFFCURVE",
"-159 379 CURVE",
"-152 370 OFFCURVE",
"-149 364 OFFCURVE",
"-149 358 CURVE SMOOTH",
"-149 349 OFFCURVE",
"-156 346 OFFCURVE",
"-180 336 CURVE"
);
},
{
closed = 1;
nodes = (
"-183 565 OFFCURVE",
"-179 550 OFFCURVE",
"-198 552 CURVE SMOOTH",
"-275 560 OFFCURVE",
"-329 544 OFFCURVE",
"-329 470 CURVE",
"-329 422 OFFCURVE",
"-297 376 OFFCURVE",
"-259 321 CURVE SMOOTH",
"-222 268 OFFCURVE",
"-180 206 OFFCURVE",
"-180 142 CURVE",
"-180 44 OFFCURVE",
"-256 -3 OFFCURVE",
"-333 -3 CURVE",
"-403 -3 OFFCURVE",
"-446 33 OFFCURVE",
"-494 96 CURVE SMOOTH",
"-505 109 OFFCURVE",
"-499 118 OFFCURVE",
"-486 130 CURVE",
"-470 144 OFFCURVE",
"-462 146 OFFCURVE",
"-451 132 CURVE SMOOTH",
"-423 96 OFFCURVE",
"-387 55 OFFCURVE",
"-334 55 CURVE",
"-282 55 OFFCURVE",
"-239 81 OFFCURVE",
"-239 144 CURVE",
"-239 252 OFFCURVE",
"-388 353 OFFCURVE",
"-388 472 CURVE",
"-388 582 OFFCURVE",
"-312 612 OFFCURVE",
"-217 607 CURVE SMOOTH",
"-198 606 OFFCURVE",
"-194 604 OFFCURVE",
"-188 583 CURVE"
);
},
{
closed = 1;
nodes = (
"120 262 LINE",
"91 251 OFFCURVE",
"85 251 OFFCURVE",
"74 272 CURVE",
"64 293 OFFCURVE",
"68 297 OFFCURVE",
"93 306 CURVE",
"297 386 LINE",
"325 397 OFFCURVE",
"332 397 OFFCURVE",
"343 376 CURVE",
"353 354 OFFCURVE",
"351 348 OFFCURVE",
"316 334 CURVE"
);
},
{
closed = 1;
nodes = (
"316 555 OFFCURVE",
"310 550 OFFCURVE",
"297 550 CURVE SMOOTH",
"290 550 OFFCURVE",
"282 551 OFFCURVE",
"266 551 CURVE SMOOTH",
"202 551 OFFCURVE",
"169 532 OFFCURVE",
"169 480 CURVE",
"169 422 OFFCURVE",
"204 378 OFFCURVE",
"242 323 CURVE SMOOTH",
"279 270 OFFCURVE",
"319 206 OFFCURVE",
"319 142 CURVE",
"319 44 OFFCURVE",
"248 -3 OFFCURVE",
"167 -3 CURVE",
"98 -3 OFFCURVE",
"54 32 OFFCURVE",
"6 92 CURVE SMOOTH",
"-2 102 OFFCURVE",
"-4 113 OFFCURVE",
"14 130 CURVE",
"32 145 OFFCURVE",
"41 142 OFFCURVE",
"51 130 CURVE SMOOTH",
"78 96 OFFCURVE",
"114 55 OFFCURVE",
"166 55 CURVE",
"218 55 OFFCURVE",
"261 81 OFFCURVE",
"261 144 CURVE",
"261 201 OFFCURVE",
"220 257 OFFCURVE",
"181 313 CURVE SMOOTH",
"146 364 OFFCURVE",
"112 416 OFFCURVE",
"112 482 CURVE",
"112 575 OFFCURVE",
"178 609 OFFCURVE",
"264 609 CURVE SMOOTH",
"300 609 OFFCURVE",
"306 606 OFFCURVE",
"312 583 CURVE"
);
}
);
};
layerId = "70F97C4B-94FA-40A4-8E29-E667CA674F9A";
name = Regular;
paths = (
{
closed = 1;
nodes = (
"120 262 LINE",
"91 251 OFFCURVE",
"85 251 OFFCURVE",
"74 272 CURVE",
"64 293 OFFCURVE",
"68 297 OFFCURVE",
"93 306 CURVE",
"297 386 LINE",
"325 397 OFFCURVE",
"332 397 OFFCURVE",
"343 376 CURVE",
"353 354 OFFCURVE",
"351 348 OFFCURVE",
"316 334 CURVE"
);
},
{
closed = 1;
nodes = (
"316 555 OFFCURVE",
"310 550 OFFCURVE",
"297 550 CURVE SMOOTH",
"290 550 OFFCURVE",
"282 551 OFFCURVE",
"266 551 CURVE SMOOTH",
"202 551 OFFCURVE",
"169 532 OFFCURVE",
"169 480 CURVE",
"169 422 OFFCURVE",
"204 378 OFFCURVE",
"242 323 CURVE SMOOTH",
"279 270 OFFCURVE",
"319 206 OFFCURVE",
"319 142 CURVE",
"319 44 OFFCURVE",
"248 -3 OFFCURVE",
"167 -3 CURVE",
"98 -3 OFFCURVE",
"54 32 OFFCURVE",
"6 92 CURVE SMOOTH",
"-2 102 OFFCURVE",
"-4 113 OFFCURVE",
"14 130 CURVE",
"32 145 OFFCURVE",
"41 142 OFFCURVE",
"51 130 CURVE SMOOTH",
"78 96 OFFCURVE",
"114 55 OFFCURVE",
"166 55 CURVE",
"218 55 OFFCURVE",
"261 81 OFFCURVE",
"261 144 CURVE",
"261 201 OFFCURVE",
"220 257 OFFCURVE",
"181 313 CURVE SMOOTH",
"146 364 OFFCURVE",
"112 416 OFFCURVE",
"112 482 CURVE",
"112 575 OFFCURVE",
"178 609 OFFCURVE",
"264 609 CURVE SMOOTH",
"300 609 OFFCURVE",
"306 606 OFFCURVE",
"312 583 CURVE"
);
}
);
width = 361;
}
);
unicode = 0A95;
},
{
color = 10;
glyphname = gjKha;
lastChange = "2015-09-02 11:05:45 +0000";
layers = (
{
anchors = (
{
name = bottom;
position = "{414, 0}";
},
{
name = top;
position = "{532, 628}";
}
);
background = {
paths = (
{
closed = 1;
nodes = (
"484 579 LINE",
"487 601 OFFCURVE",
"492 607 OFFCURVE",
"506 607 CURVE",
"517 607 OFFCURVE",
"546 600 OFFCURVE",
"546 577 CURVE",
"546 551 OFFCURVE",
"497 224 OFFCURVE",
"473 47 CURVE",
"492 67 OFFCURVE",
"529 108 OFFCURVE",
"539 108 CURVE",
"552 108 OFFCURVE",
"568 82 OFFCURVE",
"568 66 CURVE",
"568 51 OFFCURVE",
"487 0 OFFCURVE",
"447 0 CURVE",
"431 0 OFFCURVE",
"414 12 OFFCURVE",
"414 36 CURVE",
"414 59 OFFCURVE",
"433 180 OFFCURVE",
"442 252 CURVE",
"470 462 LINE"
);
},
{
closed = 1;
nodes = (
"337 446 OFFCURVE",
"341 398 OFFCURVE",
"341 365 CURVE SMOOTH",
"341 263 OFFCURVE",
"302 149 OFFCURVE",
"176 149 CURVE",
"121 149 OFFCURVE",
"70 191 OFFCURVE",
"70 284 CURVE",
"70 363 OFFCURVE",
"92 473 OFFCURVE",
"105 554 CURVE",
"86 546 OFFCURVE",
"63 535 OFFCURVE",
"54 535 CURVE",
"45 535 OFFCURVE",
"30 562 OFFCURVE",
"30 571 CURVE",
"30 576 OFFCURVE",
"31 580 OFFCURVE",
"37 583 CURVE SMOOTH",
"56 593 OFFCURVE",
"102 605 OFFCURVE",
"133 605 CURVE",
"155 605 OFFCURVE",
"167 593 OFFCURVE",
"167 574 CURVE",
"167 533 OFFCURVE",
"130 380 OFFCURVE",
"130 279 CURVE",
"130 230 OFFCURVE",
"155 211 OFFCURVE",
"182 211 CURVE",
"251 211 OFFCURVE",
"281 278 OFFCURVE",
"281 362 CURVE SMOOTH",
"281 415 OFFCURVE",
"276 443 OFFCURVE",
"270 470 CURVE",
"264 492 OFFCURVE",
"279 498 OFFCURVE",
"293 498 CURVE",
"324 498 OFFCURVE",
"330 491 OFFCURVE",
"334 468 CURVE"
);
},
{
closed = 1;
nodes = (
"320 308 OFFCURVE",
"341 295 OFFCURVE",
"365 295 CURVE SMOOTH",
"416 295 OFFCURVE",
"453 334 OFFCURVE",
"478 372 CURVE",
"479 293 LINE",
"447 258 OFFCURVE",
"402 241 OFFCURVE",
"371 241 CURVE SMOOTH",
"327 241 OFFCURVE",
"297 261 OFFCURVE",
"279 298 CURVE",
"305 342 LINE"
);
},
{
closed = 1;
nodes = (
"432 176 OFFCURVE",
"414 62 OFFCURVE",
"414 36 CURVE",
"414 12 OFFCURVE",
"431 0 OFFCURVE",
"447 0 CURVE",
"487 0 OFFCURVE",
"568 51 OFFCURVE",
"568 66 CURVE",
"568 82 OFFCURVE",
"552 108 OFFCURVE",
"539 108 CURVE",
"529 108 OFFCURVE",
"492 67 OFFCURVE",
"473 47 CURVE",
"536 520 LINE",
"540 552 OFFCURVE",
"543 569 OFFCURVE",
"543 577 CURVE",
"543 600 OFFCURVE",
"517 607 OFFCURVE",
"506 607 CURVE",
"492 607 OFFCURVE",
"487 601 OFFCURVE",
"484 579 CURVE"
);
}
);
};
guideLines = (
{
angle = 90;
position = "{542, 572}";
},
{
angle = 90;
position = "{414, 572}";
}
);
layerId = "70F97C4B-94FA-40A4-8E29-E667CA674F9A";
name = Regular;
paths = (
{
closed = 1;
nodes = (
"337 446 OFFCURVE",
"341 398 OFFCURVE",
"341 365 CURVE SMOOTH",
"341 263 OFFCURVE",
"302 149 OFFCURVE",
"176 149 CURVE",
"121 149 OFFCURVE",
"70 191 OFFCURVE",
"70 284 CURVE",
"70 363 OFFCURVE",
"92 473 OFFCURVE",
"105 554 CURVE",
"86 546 OFFCURVE",
"63 535 OFFCURVE",
"54 535 CURVE",
"45 535 OFFCURVE",
"30 564 OFFCURVE",
"30 573 CURVE",
"30 578 OFFCURVE",
"31 580 OFFCURVE",
"37 583 CURVE SMOOTH",
"56 593 OFFCURVE",
"102 605 OFFCURVE",
"133 605 CURVE",
"155 605 OFFCURVE",
"167 593 OFFCURVE",
"167 574 CURVE",
"167 533 OFFCURVE",
"130 380 OFFCURVE",
"130 279 CURVE",
"130 230 OFFCURVE",
"155 211 OFFCURVE",
"182 211 CURVE",
"251 211 OFFCURVE",
"281 278 OFFCURVE",
"281 362 CURVE SMOOTH",
"281 415 OFFCURVE",
"276 443 OFFCURVE",
"270 470 CURVE",
"264 492 OFFCURVE",
"279 498 OFFCURVE",
"293 498 CURVE",
"324 498 OFFCURVE",
"330 491 OFFCURVE",
"334 468 CURVE"
);
},
{
closed = 1;
nodes = (
"483 579 LINE",
"486 601 OFFCURVE",
"491 607 OFFCURVE",
"505 607 CURVE",
"516 607 OFFCURVE",
"542 600 OFFCURVE",
"542 577 CURVE",
"542 551 OFFCURVE",
"498 224 OFFCURVE",
"472 47 CURVE",
"491 67 OFFCURVE",
"528 108 OFFCURVE",
"538 108 CURVE",
"551 108 OFFCURVE",
"567 82 OFFCURVE",
"567 66 CURVE",
"567 51 OFFCURVE",
"486 0 OFFCURVE",
"446 0 CURVE",
"430 0 OFFCURVE",
"413 12 OFFCURVE",
"413 36 CURVE",
"413 59 OFFCURVE",
"432 180 OFFCURVE",
"441 252 CURVE",
"469 462 LINE"
);
},
{
closed = 1;
nodes = (
"313 321 OFFCURVE",
"349 294 OFFCURVE",
"381 294 CURVE SMOOTH",
"433 294 OFFCURVE",
"450 322 OFFCURVE",
"464 423 CURVE",
"503 307 LINE",
"466 250 OFFCURVE",
"421 240 OFFCURVE",
"385 240 CURVE SMOOTH",
"345 240 OFFCURVE",
"301 271 OFFCURVE",
"283 308 CURVE",
"299 352 LINE"
);
}
);
width = 587;
}
);
unicode = 0A96;
},
{
color = 10;
glyphname = gjGa;
lastChange = "2015-08-30 15:20:01 +0000";
layers = (
{
anchors = (
{
name = bottom;
position = "{312, 0}";
},
{
name = top;
position = "{431, 628}";
}
);
background = {
paths = (
{
closed = 1;
nodes = (
"356 176 OFFCURVE",
"338 62 OFFCURVE",
"338 36 CURVE",
"338 12 OFFCURVE",
"355 0 OFFCURVE",
"371 0 CURVE",
"411 0 OFFCURVE",
"492 51 OFFCURVE",
"492 66 CURVE",
"492 82 OFFCURVE",
"476 108 OFFCURVE",
"463 108 CURVE",
"453 108 OFFCURVE",
"416 67 OFFCURVE",
"397 47 CURVE",
"460 520 LINE",
"464 552 OFFCURVE",
"467 569 OFFCURVE",
"467 577 CURVE",
"467 600 OFFCURVE",
"441 607 OFFCURVE",
"430 607 CURVE",
"416 607 OFFCURVE",
"411 601 OFFCURVE",
"408 579 CURVE"
);
},
{
closed = 1;
nodes = (
"103 513 OFFCURVE",
"106 521 OFFCURVE",
"128 537 CURVE SMOOTH",
"149 552 OFFCURVE",
"160 554 OFFCURVE",
"179 554 CURVE",
"216 554 OFFCURVE",
"246 521 OFFCURVE",
"246 457 CURVE",
"246 350 OFFCURVE",
"199 272 OFFCURVE",
"138 272 CURVE SMOOTH",
"100 272 OFFCURVE",
"90 288 OFFCURVE",
"66 315 CURVE SMOOTH",
"51 332 OFFCURVE",
"45 329 OFFCURVE",
"31 313 CURVE",
"17 299 OFFCURVE",
"10 292 OFFCURVE",
"23 274 CURVE SMOOTH",
"50 237 OFFCURVE",
"84 211 OFFCURVE",
"130 211 CURVE SMOOTH",
"254 211 OFFCURVE",
"304 341 OFFCURVE",
"304 460 CURVE",
"304 539 OFFCURVE",
"266 611 OFFCURVE",
"179 611 CURVE",
"138 611 OFFCURVE",
"109 597 OFFCURVE",
"83 576 CURVE SMOOTH",
"65 561 OFFCURVE",
"60 551 OFFCURVE",
"83 531 CURVE"
);
},
{
closed = 1;
nodes = (
"330 176 OFFCURVE",
"312 62 OFFCURVE",
"312 36 CURVE",
"312 12 OFFCURVE",
"329 0 OFFCURVE",
"345 0 CURVE",
"385 0 OFFCURVE",
"466 51 OFFCURVE",
"466 66 CURVE",
"466 82 OFFCURVE",
"450 108 OFFCURVE",
"437 108 CURVE",
"427 108 OFFCURVE",
"390 67 OFFCURVE",
"371 47 CURVE",
"434 520 LINE",
"438 552 OFFCURVE",
"441 569 OFFCURVE",
"441 577 CURVE",
"441 600 OFFCURVE",
"415 607 OFFCURVE",
"404 607 CURVE",
"390 607 OFFCURVE",
"385 601 OFFCURVE",
"382 579 CURVE"
);
},
{
closed = 1;
nodes = (
"101 515 OFFCURVE",
"103 523 OFFCURVE",
"122 537 CURVE SMOOTH",
"140 551 OFFCURVE",
"154 554 OFFCURVE",
"165 554 CURVE",
"200 554 OFFCURVE",
"220 521 OFFCURVE",
"220 457 CURVE",
"220 350 OFFCURVE",
"173 272 OFFCURVE",
"122 272 CURVE SMOOTH",
"94 272 OFFCURVE",
"84 287 OFFCURVE",
"66 308 CURVE SMOOTH",
"51 325 OFFCURVE",
"45 322 OFFCURVE",
"31 306 CURVE",
"17 292 OFFCURVE",
"10 285 OFFCURVE",
"23 267 CURVE SMOOTH",
"50 230 OFFCURVE",
"78 213 OFFCURVE",
"114 213 CURVE SMOOTH",
"228 213 OFFCURVE",
"278 341 OFFCURVE",
"278 460 CURVE",
"278 539 OFFCURVE",
"250 611 OFFCURVE",
"173 611 CURVE",
"132 611 OFFCURVE",
"104 599 OFFCURVE",
"78 575 CURVE SMOOTH",
"64 562 OFFCURVE",
"58 553 OFFCURVE",
"81 533 CURVE"
);
}
);
};
guideLines = (
{
angle = 90;
position = "{441, 540}";
},
{
angle = 90;
position = "{312, 540}";
}
);
layerId = "70F97C4B-94FA-40A4-8E29-E667CA674F9A";
name = Regular;
paths = (
{
closed = 1;
nodes = (
"330 176 OFFCURVE",
"312 62 OFFCURVE",
"312 36 CURVE",
"312 12 OFFCURVE",
"329 0 OFFCURVE",
"345 0 CURVE",
"385 0 OFFCURVE",
"466 51 OFFCURVE",
"466 66 CURVE",
"466 82 OFFCURVE",
"450 108 OFFCURVE",
"437 108 CURVE",
"427 108 OFFCURVE",
"390 67 OFFCURVE",
"371 47 CURVE",
"434 520 LINE",
"438 552 OFFCURVE",
"441 569 OFFCURVE",
"441 577 CURVE",
"441 600 OFFCURVE",
"415 607 OFFCURVE",
"404 607 CURVE",
"390 607 OFFCURVE",
"385 601 OFFCURVE",
"382 579 CURVE"
);
},
{
closed = 1;
nodes = (
"92 522 OFFCURVE",
"99 522 OFFCURVE",
"116 533 CURVE SMOOTH",
"135 546 OFFCURVE",
"149 552 OFFCURVE",
"165 552 CURVE SMOOTH",
"200 552 OFFCURVE",
"220 521 OFFCURVE",
"220 457 CURVE",
"220 350 OFFCURVE",
"178 272 OFFCURVE",
"122 272 CURVE SMOOTH",
"98 272 OFFCURVE",
"84 286 OFFCURVE",
"66 304 CURVE SMOOTH",
"54 316 OFFCURVE",
"47 322 OFFCURVE",
"31 306 CURVE",
"17 292 OFFCURVE",
"9 280 OFFCURVE",
"22 265 CURVE SMOOTH",
"50 232 OFFCURVE",
"78 213 OFFCURVE",
"120 213 CURVE SMOOTH",
"235 213 OFFCURVE",
"279 341 OFFCURVE",
"279 460 CURVE",
"279 539 OFFCURVE",
"251 611 OFFCURVE",
"170 611 CURVE",
"133 611 OFFCURVE",
"103 599 OFFCURVE",
"77 579 CURVE SMOOTH",
"62 567 OFFCURVE",
"60 555 OFFCURVE",
"76 539 CURVE"
);
}
);
width = 486;
}
);
unicode = 0A97;
},
{
color = 10;
glyphname = gjGha;
lastChange = "2015-08-30 08:13:02 +0000";
layers = (
{
anchors = (
{
name = bottom;
position = "{291, 0}";
},
{
name = top;
position = "{411, 628}";
}
);
background = {
paths = (
{
closed = 1;
nodes = (
"204 425 CURVE",
"216 407 LINE",
"225 393 OFFCURVE",
"229 388 OFFCURVE",
"205 382 CURVE SMOOTH",
"131 363 OFFCURVE",
"105 334 OFFCURVE",
"105 296 CURVE",
"105 264 OFFCURVE",
"130 238 OFFCURVE",
"173 238 CURVE",
"224 238 OFFCURVE",
"259 260 OFFCURVE",
"284 290 CURVE SMOOTH",
"313 328 OFFCURVE",
"321 349 OFFCURVE",
"332 421 CURVE",
"351 579 LINE",
"354 601 OFFCURVE",
"359 607 OFFCURVE",
"373 607 CURVE",
"384 607 OFFCURVE",
"413 600 OFFCURVE",
"413 577 CURVE",
"413 551 OFFCURVE",
"364 224 OFFCURVE",
"340 47 CURVE",
"359 67 OFFCURVE",
"396 108 OFFCURVE",
"406 108 CURVE",
"419 108 OFFCURVE",
"435 82 OFFCURVE",
"435 66 CURVE",
"435 51 OFFCURVE",
"354 0 OFFCURVE",
"314 0 CURVE",
"298 0 OFFCURVE",
"281 12 OFFCURVE",
"281 36 CURVE",
"281 59 OFFCURVE",
"295 139 OFFCURVE",
"304 211 CURVE",
"311 241 LINE",
"276 202 OFFCURVE",
"234 179 OFFCURVE",
"167 179 CURVE",
"96 179 OFFCURVE",
"46 228 OFFCURVE",
"46 297 CURVE",
"46 350 OFFCURVE",
"73 400 OFFCURVE",
"174 432 CURVE SMOOTH",
"196 439 OFFCURVE",
"197 435 OFFCURVE"
);
},
{
closed = 1;
nodes = (
"225 590 OFFCURVE",
"231 572 OFFCURVE",
"231 565 CURVE SMOOTH",
"231 557 OFFCURVE",
"228 553 OFFCURVE",
"221 553 CURVE SMOOTH",
"213 553 OFFCURVE",
"197 557 OFFCURVE",
"176 557 CURVE SMOOTH",
"130 557 OFFCURVE",
"96 543 OFFCURVE",
"96 501 CURVE",
"96 450 OFFCURVE",
"127 419 OFFCURVE",
"152 387 CURVE",
"99 353 LINE",
"76 391 OFFCURVE",
"37 430 OFFCURVE",
"37 498 CURVE",
"37 575 OFFCURVE",
"88 612 OFFCURVE",
"174 612 CURVE SMOOTH",
"205 612 OFFCURVE",
"218 607 OFFCURVE",
"222 598 CURVE"
);
},
{
closed = 1;
nodes = (
"204 425 CURVE",
"216 407 LINE",
"225 393 OFFCURVE",
"229 388 OFFCURVE",
"205 382 CURVE SMOOTH",
"131 363 OFFCURVE",
"105 334 OFFCURVE",
"105 296 CURVE",
"105 264 OFFCURVE",
"130 238 OFFCURVE",
"173 238 CURVE",
"224 238 OFFCURVE",
"269 260 OFFCURVE",
"294 290 CURVE SMOOTH",
"323 328 OFFCURVE",
"331 349 OFFCURVE",
"342 421 CURVE",
"361 579 LINE",
"364 601 OFFCURVE",
"369 607 OFFCURVE",
"383 607 CURVE",
"394 607 OFFCURVE",
"423 600 OFFCURVE",
"423 577 CURVE",
"423 551 OFFCURVE",
"374 224 OFFCURVE",
"350 47 CURVE",
"369 67 OFFCURVE",
"406 108 OFFCURVE",
"416 108 CURVE",
"429 108 OFFCURVE",
"445 82 OFFCURVE",
"445 66 CURVE",
"445 51 OFFCURVE",
"364 0 OFFCURVE",
"324 0 CURVE",
"308 0 OFFCURVE",
"291 12 OFFCURVE",
"291 36 CURVE",
"291 59 OFFCURVE",
"305 139 OFFCURVE",
"314 211 CURVE",
"321 241 LINE",
"286 202 OFFCURVE",
"234 179 OFFCURVE",
"167 179 CURVE",
"96 179 OFFCURVE",
"46 228 OFFCURVE",
"46 297 CURVE",
"46 350 OFFCURVE",
"73 400 OFFCURVE",
"174 432 CURVE SMOOTH",
"196 439 OFFCURVE",
"197 435 OFFCURVE"
);
},
{
closed = 1;
nodes = (
"225 590 OFFCURVE",
"231 572 OFFCURVE",
"231 565 CURVE SMOOTH",
"231 557 OFFCURVE",
"228 553 OFFCURVE",
"221 553 CURVE SMOOTH",
"213 553 OFFCURVE",
"197 557 OFFCURVE",
"176 557 CURVE SMOOTH",
"130 557 OFFCURVE",
"96 543 OFFCURVE",
"96 501 CURVE",
"96 450 OFFCURVE",
"127 419 OFFCURVE",
"152 387 CURVE",
"99 353 LINE",
"76 391 OFFCURVE",
"37 430 OFFCURVE",
"37 498 CURVE",
"37 575 OFFCURVE",
"88 612 OFFCURVE",
"174 612 CURVE SMOOTH",
"205 612 OFFCURVE",
"218 607 OFFCURVE",
"222 598 CURVE"
);
},
{
closed = 1;
nodes = (
"310 176 OFFCURVE",
"292 62 OFFCURVE",
"292 36 CURVE",
"292 12 OFFCURVE",
"309 0 OFFCURVE",
"325 0 CURVE",
"365 0 OFFCURVE",
"446 51 OFFCURVE",
"446 66 CURVE",
"446 82 OFFCURVE",
"430 108 OFFCURVE",
"417 108 CURVE",
"407 108 OFFCURVE",
"370 67 OFFCURVE",
"351 47 CURVE",
"414 520 LINE",
"418 552 OFFCURVE",
"421 569 OFFCURVE",
"421 577 CURVE",
"421 600 OFFCURVE",
"395 607 OFFCURVE",
"384 607 CURVE",
"370 607 OFFCURVE",
"365 601 OFFCURVE",
"362 579 CURVE"
);
}
);
};
guideLines = (
{
angle = 90;
position = "{421, 547}";
},
{
angle = 90;
position = "{291, 547}";
}
);
layerId = "70F97C4B-94FA-40A4-8E29-E667CA674F9A";
name = Regular;
paths = (
{
closed = 1;
nodes = (
"192 439 OFFCURVE",
"200 434 OFFCURVE",
"210 416 CURVE",
"219 400 OFFCURVE",
"225 386 OFFCURVE",
"203 379 CURVE SMOOTH",
"147 362 OFFCURVE",
"105 338 OFFCURVE",
"105 299 CURVE",
"105 264 OFFCURVE",
"130 238 OFFCURVE",
"173 238 CURVE",
"224 238 OFFCURVE",
"269 260 OFFCURVE",
"294 290 CURVE SMOOTH",
"323 328 OFFCURVE",
"331 349 OFFCURVE",
"342 421 CURVE",
"361 579 LINE",
"364 601 OFFCURVE",
"369 607 OFFCURVE",
"383 607 CURVE",
"394 607 OFFCURVE",
"421 600 OFFCURVE",
"421 577 CURVE",
"421 551 OFFCURVE",
"374 224 OFFCURVE",
"350 47 CURVE",
"369 67 OFFCURVE",
"406 108 OFFCURVE",
"416 108 CURVE",
"429 108 OFFCURVE",
"445 82 OFFCURVE",
"445 66 CURVE",
"445 51 OFFCURVE",
"364 0 OFFCURVE",
"324 0 CURVE",
"308 0 OFFCURVE",
"291 12 OFFCURVE",
"291 36 CURVE",
"291 59 OFFCURVE",
"305 139 OFFCURVE",
"314 211 CURVE",
"321 241 LINE",
"286 203 OFFCURVE",
"234 180 OFFCURVE",
"167 180 CURVE",
"98 180 OFFCURVE",
"46 228 OFFCURVE",
"46 297 CURVE",
"46 352 OFFCURVE",
"73 398 OFFCURVE",
"173 432 CURVE SMOOTH"
);
},
{
closed = 1;
nodes = (
"185 612 OFFCURVE",
"200 611 OFFCURVE",
"212 606 CURVE SMOOTH",
"227 600 OFFCURVE",
"231 572 OFFCURVE",
"231 565 CURVE SMOOTH",
"231 557 OFFCURVE",
"228 553 OFFCURVE",
"221 553 CURVE SMOOTH",
"213 553 OFFCURVE",
"197 557 OFFCURVE",
"176 557 CURVE SMOOTH",
"130 557 OFFCURVE",
"96 543 OFFCURVE",
"96 501 CURVE",
"96 450 OFFCURVE",
"127 419 OFFCURVE",
"152 387 CURVE",
"99 353 LINE",
"76 391 OFFCURVE",
"37 430 OFFCURVE",
"37 498 CURVE",
"37 575 OFFCURVE",
"88 612 OFFCURVE",
"174 612 CURVE SMOOTH"
);
}
);
width = 465;
}
);
unicode = 0A98;
},
{
color = 10;
glyphname = gjNga;
lastChange = "2015-08-30 08:13:02 +0000";
layers = (
{
anchors = (
{
name = bottom;
position = "{196, 0}";
},
{
name = top;
position = "{294, 628}";
}
);
background = {
paths = (
{
closed = 1;
nodes = (
"-183 575 OFFCURVE",
"-179 560 OFFCURVE",
"-198 562 CURVE SMOOTH",
"-275 570 OFFCURVE",
"-329 554 OFFCURVE",
"-329 480 CURVE",
"-329 432 OFFCURVE",
"-297 386 OFFCURVE",
"-259 331 CURVE SMOOTH",
"-222 278 OFFCURVE",
"-180 206 OFFCURVE",
"-180 142 CURVE",
"-180 44 OFFCURVE",
"-256 -3 OFFCURVE",
"-333 -3 CURVE",
"-403 -3 OFFCURVE",
"-446 33 OFFCURVE",
"-494 96 CURVE SMOOTH",
"-505 109 OFFCURVE",
"-499 118 OFFCURVE",
"-486 130 CURVE",
"-470 144 OFFCURVE",
"-462 146 OFFCURVE",
"-451 132 CURVE SMOOTH",
"-423 96 OFFCURVE",
"-387 55 OFFCURVE",
"-334 55 CURVE",
"-282 55 OFFCURVE",
"-239 81 OFFCURVE",
"-239 144 CURVE",
"-239 262 OFFCURVE",
"-388 355 OFFCURVE",
"-388 482 CURVE",
"-388 592 OFFCURVE",
"-312 622 OFFCURVE",
"-217 617 CURVE SMOOTH",
"-198 616 OFFCURVE",
"-194 614 OFFCURVE",
"-188 593 CURVE"
);
},
{
closed = 1;
nodes = (
"301 406 OFFCURVE",
"322 422 OFFCURVE",
"322 450 CURVE SMOOTH",
"322 472 OFFCURVE",
"303 489 OFFCURVE",
"283 489 CURVE SMOOTH",
"260 489 OFFCURVE",
"239 473 OFFCURVE",
"239 446 CURVE SMOOTH",
"239 423 OFFCURVE",
"258 406 OFFCURVE",
"279 406 CURVE SMOOTH"
);
},
{
closed = 1;
nodes = (
"317 565 OFFCURVE",
"321 550 OFFCURVE",
"302 552 CURVE SMOOTH",
"225 560 OFFCURVE",
"171 544 OFFCURVE",
"171 470 CURVE",
"171 422 OFFCURVE",
"203 376 OFFCURVE",
"241 321 CURVE SMOOTH",
"278 268 OFFCURVE",
"320 206 OFFCURVE",
"320 142 CURVE",
"320 44 OFFCURVE",
"244 -3 OFFCURVE",
"167 -3 CURVE",
"97 -3 OFFCURVE",
"54 33 OFFCURVE",
"6 96 CURVE SMOOTH",
"-5 109 OFFCURVE",
"1 118 OFFCURVE",
"14 130 CURVE",
"30 144 OFFCURVE",
"38 146 OFFCURVE",
"49 132 CURVE SMOOTH",
"77 96 OFFCURVE",
"113 55 OFFCURVE",
"166 55 CURVE",
"218 55 OFFCURVE",
"261 81 OFFCURVE",
"261 144 CURVE",
"261 252 OFFCURVE",
"112 353 OFFCURVE",
"112 472 CURVE",
"112 582 OFFCURVE",
"188 612 OFFCURVE",
"283 607 CURVE SMOOTH",
"302 606 OFFCURVE",
"306 604 OFFCURVE",
"312 583 CURVE"
);
}
);
};
layerId = "70F97C4B-94FA-40A4-8E29-E667CA674F9A";
name = Regular;
paths = (
{
closed = 1;
nodes = (
"301 406 OFFCURVE",
"322 422 OFFCURVE",
"322 450 CURVE SMOOTH",
"322 472 OFFCURVE",
"303 489 OFFCURVE",
"283 489 CURVE SMOOTH",
"260 489 OFFCURVE",
"239 473 OFFCURVE",
"239 446 CURVE SMOOTH",
"239 423 OFFCURVE",
"258 406 OFFCURVE",
"279 406 CURVE SMOOTH"
);
},
{
closed = 1;
nodes = (
"316 555 OFFCURVE",
"310 550 OFFCURVE",
"297 550 CURVE SMOOTH",
"290 550 OFFCURVE",
"282 551 OFFCURVE",
"266 551 CURVE SMOOTH",
"202 551 OFFCURVE",
"169 532 OFFCURVE",
"169 480 CURVE",
"169 422 OFFCURVE",
"204 378 OFFCURVE",
"242 323 CURVE SMOOTH",
"279 270 OFFCURVE",
"319 206 OFFCURVE",
"319 142 CURVE",
"319 44 OFFCURVE",
"248 -3 OFFCURVE",
"167 -3 CURVE",
"98 -3 OFFCURVE",
"54 32 OFFCURVE",
"6 92 CURVE SMOOTH",
"-2 102 OFFCURVE",
"-4 113 OFFCURVE",
"14 130 CURVE",
"32 145 OFFCURVE",
"41 142 OFFCURVE",
"51 130 CURVE SMOOTH",
"78 96 OFFCURVE",
"114 55 OFFCURVE",
"166 55 CURVE",
"218 55 OFFCURVE",
"261 81 OFFCURVE",
"261 144 CURVE",
"261 201 OFFCURVE",
"220 257 OFFCURVE",
"181 313 CURVE SMOOTH",
"146 364 OFFCURVE",
"112 416 OFFCURVE",
"112 482 CURVE",
"112 575 OFFCURVE",
"178 609 OFFCURVE",
"264 609 CURVE SMOOTH",
"300 609 OFFCURVE",
"306 606 OFFCURVE",
"312 583 CURVE"
);
}
);
width = 362;
}
);
unicode = 0A99;
},
{
color = 10;
glyphname = gjCa;
lastChange = "2015-09-02 11:05:50 +0000";
layers = (
{
anchors = (
{
name = bottom;
position = "{363, 0}";
},
{
name = top;
position = "{483, 628}";
}
);
background = {
paths = (
{
closed = 1;
nodes = (
"99 505 OFFCURVE",
"102 513 OFFCURVE",
"124 529 CURVE SMOOTH",
"145 544 OFFCURVE",
"156 546 OFFCURVE",
"175 546 CURVE",
"212 546 OFFCURVE",
"242 513 OFFCURVE",
"242 449 CURVE",
"242 392 OFFCURVE",
"208 339 OFFCURVE",
"139 309 CURVE",
"80 388 LINE",
"49 392 OFFCURVE",
"20 367 OFFCURVE",
"20 329 CURVE SMOOTH",
"20 287 OFFCURVE",
"63 243 OFFCURVE",
"124 245 CURVE",
"161 257 LINE",
"244 295 OFFCURVE",
"300 354 OFFCURVE",
"300 452 CURVE",
"300 531 OFFCURVE",
"262 603 OFFCURVE",
"175 603 CURVE",
"134 603 OFFCURVE",
"105 589 OFFCURVE",
"79 568 CURVE SMOOTH",
"61 553 OFFCURVE",
"56 543 OFFCURVE",
"79 523 CURVE"
);
},
{
closed = 1;
nodes = (
"391 252 LINE",
"382 180 OFFCURVE",
"363 59 OFFCURVE",
"363 36 CURVE",
"363 12 OFFCURVE",
"380 0 OFFCURVE",
"396 0 CURVE",
"436 0 OFFCURVE",
"517 51 OFFCURVE",
"517 66 CURVE",
"517 82 OFFCURVE",
"501 108 OFFCURVE",
"488 108 CURVE",
"478 108 OFFCURVE",
"441 67 OFFCURVE",
"422 47 CURVE",
"446 224 OFFCURVE",
"495 551 OFFCURVE",
"495 577 CURVE",
"495 600 OFFCURVE",
"466 607 OFFCURVE",
"455 607 CURVE",
"441 607 OFFCURVE",
"436 601 OFFCURVE",
"433 579 CURVE",
"419 462 LINE"
);
},
{
closed = 1;
nodes = (
"104 254 LINE",
"153 202 OFFCURVE",
"200 168 OFFCURVE",
"268 168 CURVE SMOOTH",
"325 168 OFFCURVE",
"371 192 OFFCURVE",
"403 227 CURVE",
"402 314 LINE",
"377 276 OFFCURVE",
"335 227 OFFCURVE",
"267 227 CURVE SMOOTH",
"216 227 OFFCURVE",
"182 257 OFFCURVE",
"143 307 CURVE"
);
},
{
closed = 1;
nodes = (
"99 505 OFFCURVE",
"102 513 OFFCURVE",
"124 529 CURVE SMOOTH",
"145 544 OFFCURVE",
"156 546 OFFCURVE",
"175 546 CURVE",
"212 546 OFFCURVE",
"242 513 OFFCURVE",
"242 462 CURVE",
"242 392 OFFCURVE",
"198 359 OFFCURVE",
"129 329 CURVE",
"80 408 LINE",
"41 409 OFFCURVE",
"15 382 OFFCURVE",
"15 351 CURVE SMOOTH",
"15 302 OFFCURVE",
"53 263 OFFCURVE",
"114 265 CURVE",
"148 276 LINE",
"237 314 OFFCURVE",
"300 361 OFFCURVE",
"300 465 CURVE",
"300 531 OFFCURVE",
"262 603 OFFCURVE",
"175 603 CURVE",
"134 603 OFFCURVE",
"105 589 OFFCURVE",
"79 568 CURVE SMOOTH",
"61 553 OFFCURVE",
"56 543 OFFCURVE",
"79 523 CURVE"
);
},
{
closed = 1;
nodes = (
"391 252 LINE",
"382 180 OFFCURVE",
"363 59 OFFCURVE",
"363 36 CURVE",
"363 12 OFFCURVE",
"380 0 OFFCURVE",
"396 0 CURVE",
"436 0 OFFCURVE",
"517 51 OFFCURVE",
"517 66 CURVE",
"517 82 OFFCURVE",
"501 108 OFFCURVE",
"488 108 CURVE",
"478 108 OFFCURVE",
"441 67 OFFCURVE",
"422 47 CURVE",
"445 224 OFFCURVE",
"493 551 OFFCURVE",
"493 577 CURVE",
"493 600 OFFCURVE",
"466 607 OFFCURVE",
"455 607 CURVE",
"441 607 OFFCURVE",
"436 601 OFFCURVE",
"433 579 CURVE",
"419 462 LINE"
);
},
{
closed = 1;
nodes = (
"90 274 LINE",
"140 210 OFFCURVE",
"190 168 OFFCURVE",
"268 168 CURVE SMOOTH",
"325 168 OFFCURVE",
"371 192 OFFCURVE",
"403 227 CURVE",
"402 314 LINE",
"377 276 OFFCURVE",
"335 227 OFFCURVE",
"267 227 CURVE SMOOTH",
"201 227 OFFCURVE",
"170 267 OFFCURVE",
"131 327 CURVE"
);
}
);
};
guideLines = (
{
angle = 90;
position = "{493, 569}";
},
{
angle = 90;
position = "{363, 569}";
}
);
layerId = "70F97C4B-94FA-40A4-8E29-E667CA674F9A";
name = Regular;
paths = (
{
closed = 1;
nodes = (
"94 510 OFFCURVE",
"101 513 OFFCURVE",
"123 529 CURVE SMOOTH",
"144 544 OFFCURVE",
"156 546 OFFCURVE",
"175 546 CURVE",
"212 546 OFFCURVE",
"242 513 OFFCURVE",
"242 462 CURVE",
"242 392 OFFCURVE",
"198 359 OFFCURVE",
"129 329 CURVE",
"80 408 LINE",
"41 409 OFFCURVE",
"15 382 OFFCURVE",
"15 351 CURVE SMOOTH",
"15 302 OFFCURVE",
"53 263 OFFCURVE",
"114 265 CURVE",
"148 276 LINE",
"237 314 OFFCURVE",
"300 361 OFFCURVE",
"300 465 CURVE",
"300 531 OFFCURVE",
"262 603 OFFCURVE",
"175 603 CURVE",
"134 603 OFFCURVE",
"103 590 OFFCURVE",
"77 569 CURVE SMOOTH",
"59 554 OFFCURVE",
"58 541 OFFCURVE",
"79 523 CURVE"
);
},
{
closed = 1;
nodes = (
"391 252 LINE",
"382 180 OFFCURVE",
"363 59 OFFCURVE",
"363 36 CURVE",
"363 12 OFFCURVE",
"380 0 OFFCURVE",
"396 0 CURVE",
"436 0 OFFCURVE",
"517 51 OFFCURVE",
"517 66 CURVE",
"517 82 OFFCURVE",
"501 108 OFFCURVE",
"488 108 CURVE",
"478 108 OFFCURVE",
"441 67 OFFCURVE",
"422 47 CURVE",
"445 224 OFFCURVE",
"493 551 OFFCURVE",
"493 577 CURVE",
"493 600 OFFCURVE",
"466 607 OFFCURVE",
"455 607 CURVE",
"441 607 OFFCURVE",
"436 601 OFFCURVE",
"433 579 CURVE",
"419 462 LINE"
);
},
{
closed = 1;
nodes = (
"89 277 LINE",
"139 213 OFFCURVE",
"190 168 OFFCURVE",
"268 168 CURVE SMOOTH",
"325 168 OFFCURVE",
"371 192 OFFCURVE",
"403 227 CURVE",
"402 314 LINE",
"379 270 OFFCURVE",
"335 227 OFFCURVE",
"267 227 CURVE SMOOTH",
"201 227 OFFCURVE",
"170 267 OFFCURVE",
"131 327 CURVE"
);
}
);
width = 537;
}
);
unicode = 0A9A;
},
{
glyphname = gjCha;
lastChange = "2015-09-02 12:42:27 +0000";
layers = (
{
anchors = (
{
name = bottom;
position = "{216, 0}";
},
{
name = top;
position = "{464, 628}";
}
);
background = {
paths = (
{
closed = 1;
nodes = (
"61 592 OFFCURVE",
"167 622 OFFCURVE",
"262 617 CURVE SMOOTH",
"281 616 OFFCURVE",
"285 614 OFFCURVE",
"291 593 CURVE",
"296 575 OFFCURVE",
"300 560 OFFCURVE",
"281 562 CURVE SMOOTH",
"204 570 OFFCURVE",
"120 554 OFFCURVE",
"120 463 CURVE",
"120 392 OFFCURVE",
"164 335 OFFCURVE",
"209 303 CURVE",
"142 285 LINE",
"102 322 OFFCURVE",
"61 386 OFFCURVE",
"61 461 CURVE"
);
},
{
closed = 1;
nodes = (
"472 473 OFFCURVE",
"459 521 OFFCURVE",
"416 521 CURVE",
"375 521 OFFCURVE",
"364 482 OFFCURVE",
"364 438 CURVE",
"364 352 OFFCURVE",
"427 255 OFFCURVE",
"469 194 CURVE",
"423 157 LINE",
"372 237 OFFCURVE",
"305 351 OFFCURVE",
"305 442 CURVE",
"305 545 OFFCURVE",
"367 580 OFFCURVE",
"421 580 CURVE",
"494 580 OFFCURVE",
"531 509 OFFCURVE",
"531 409 CURVE",
"531 139 OFFCURVE",
"337 -1 OFFCURVE",
"203 -1 CURVE",
"80 -1 OFFCURVE",
"30 85 OFFCURVE",
"30 165 CURVE",
"30 250 OFFCURVE",
"68 335 OFFCURVE",
"226 354 CURVE SMOOTH",
"248 357 OFFCURVE",
"249 357 OFFCURVE",
"256 347 CURVE",
"270 327 LINE",
"279 313 OFFCURVE",
"283 304 OFFCURVE",
"259 302 CURVE SMOOTH",
"125 293 OFFCURVE",
"89 234 OFFCURVE",
"89 170 CURVE",
"89 124 OFFCURVE",
"114 58 OFFCURVE",
"201 58 CURVE",
"337 58 OFFCURVE",
"472 196 OFFCURVE",
"472 401 CURVE"
);
}
);
};
layerId = "70F97C4B-94FA-40A4-8E29-E667CA674F9A";
name = Regular;
paths = (
{
closed = 1;
nodes = (
"61 582 OFFCURVE",
"167 612 OFFCURVE",
"262 607 CURVE SMOOTH",
"281 606 OFFCURVE",
"285 604 OFFCURVE",
"291 583 CURVE",
"296 565 OFFCURVE",
"300 550 OFFCURVE",
"281 552 CURVE SMOOTH",
"204 560 OFFCURVE",
"120 544 OFFCURVE",
"120 453 CURVE",
"120 397 OFFCURVE",
"147 350 OFFCURVE",
"180 317 CURVE",
"130 287 LINE",
"94 325 OFFCURVE",
"61 383 OFFCURVE",
"61 451 CURVE"
);
},
{
closed = 1;
nodes = (
"492 453 OFFCURVE",
"479 501 OFFCURVE",
"436 501 CURVE",
"395 501 OFFCURVE",
"384 462 OFFCURVE",
"384 418 CURVE",
"384 332 OFFCURVE",
"447 255 OFFCURVE",
"489 194 CURVE",
"436 161 LINE",
"385 241 OFFCURVE",
"325 331 OFFCURVE",
"325 422 CURVE",
"325 525 OFFCURVE",
"387 560 OFFCURVE",
"441 560 CURVE",
"514 560 OFFCURVE",
"551 489 OFFCURVE",
"551 389 CURVE",
"551 139 OFFCURVE",
"357 19 OFFCURVE",
"203 19 CURVE",
"80 19 OFFCURVE",
"30 95 OFFCURVE",
"30 175 CURVE",
"30 260 OFFCURVE",
"68 335 OFFCURVE",
"226 354 CURVE SMOOTH",
"248 357 OFFCURVE",
"249 357 OFFCURVE",
"256 347 CURVE",
"270 327 LINE",
"279 313 OFFCURVE",
"283 304 OFFCURVE",
"259 302 CURVE SMOOTH",
"125 293 OFFCURVE",
"89 244 OFFCURVE",
"89 180 CURVE",
"89 134 OFFCURVE",
"114 78 OFFCURVE",
"201 78 CURVE",
"353 78 OFFCURVE",
"492 196 OFFCURVE",
"492 381 CURVE"
);
}
);
width = 581;
}
);
unicode = 0A9B;
},
{
glyphname = gjJa;
lastChange = "2015-09-02 11:29:10 +0000";
layers = (
{
anchors = (
{
name = bottom;
position = "{306, 0}";
},
{
name = top;
position = "{574, 628}";
}
);
layerId = "70F97C4B-94FA-40A4-8E29-E667CA674F9A";
name = Regular;
paths = (
{
closed = 1;
nodes = (
"564 602 OFFCURVE",
"558 605 OFFCURVE",
"546 594 CURVE SMOOTH",
"456 512 OFFCURVE",
"303 370 OFFCURVE",
"234 242 CURVE SMOOTH",
"211 199 OFFCURVE",
"200 158 OFFCURVE",
"200 121 CURVE",
"200 87 OFFCURVE",
"212 10 OFFCURVE",
"307 10 CURVE",
"405 10 OFFCURVE",
"461 88 OFFCURVE",
"461 178 CURVE",
"461 356 OFFCURVE",
"279 596 OFFCURVE",
"157 596 CURVE",
"96 596 OFFCURVE",
"25 551 OFFCURVE",
"25 453 CURVE",
"25 395 OFFCURVE",
"63 339 OFFCURVE",
"118 339 CURVE",
"200 339 OFFCURVE",
"248 406 OFFCURVE",
"248 482 CURVE SMOOTH",
"248 501 OFFCURVE",
"244 517 OFFCURVE",
"241 527 CURVE",
"185 542 LINE",
"189 526 OFFCURVE",
"191 508 OFFCURVE",
"191 486 CURVE SMOOTH",
"191 433 OFFCURVE",
"162 398 OFFCURVE",
"125 398 CURVE",
"95 398 OFFCURVE",
"84 429 OFFCURVE",
"84 454 CURVE",
"84 496 OFFCURVE",
"110 537 OFFCURVE",
"158 537 CURVE",
"251 537 OFFCURVE",
"404 317 OFFCURVE",
"404 184 CURVE",
"404 109 OFFCURVE",
"358 68 OFFCURVE",
"317 68 CURVE",
"274 68 OFFCURVE",
"261 95 OFFCURVE",
"261 133 CURVE",
"261 254 OFFCURVE",
"481 459 OFFCURVE",
"583 551 CURVE SMOOTH",
"594 561 OFFCURVE",
"593 566 OFFCURVE",
"585 576 CURVE",
"571 593 LINE"
);
}
);
width = 566;
}
);
unicode = 0A9C;
},
{
glyphname = gjJha;
lastChange = "2015-08-30 15:20:07 +0000";
layers = (
{
anchors = (
{
name = bottom;
position = "{286, 0}";
},
{
name = top;
position = "{474, 628}";
}
);
background = {
paths = (
{
closed = 1;
nodes = (
"113 508 OFFCURVE",
"116 516 OFFCURVE",
"138 532 CURVE SMOOTH",
"159 547 OFFCURVE",
"169 549 OFFCURVE",
"189 549 CURVE",
"226 549 OFFCURVE",
"256 516 OFFCURVE",
"256 452 CURVE",
"256 340 OFFCURVE",
"199 272 OFFCURVE",
"138 272 CURVE SMOOTH",
"100 272 OFFCURVE",
"87 287 OFFCURVE",
"66 315 CURVE SMOOTH",
"51 335 OFFCURVE",
"45 329 OFFCURVE",
"31 313 CURVE",
"17 299 OFFCURVE",
"10 292 OFFCURVE",
"23 274 CURVE SMOOTH",
"50 237 OFFCURVE",
"85 213 OFFCURVE",
"131 213 CURVE SMOOTH",
"255 213 OFFCURVE",
"314 331 OFFCURVE",
"314 455 CURVE",
"314 534 OFFCURVE",
"276 606 OFFCURVE",
"189 606 CURVE",
"148 606 OFFCURVE",
"119 592 OFFCURVE",
"93 571 CURVE SMOOTH",
"75 556 OFFCURVE",
"70 546 OFFCURVE",
"93 526 CURVE"
);
},
{
closed = 1;
nodes = (
"432 599 OFFCURVE",
"427 595 OFFCURVE",
"427 580 CURVE SMOOTH",
"427 514 OFFCURVE",
"392 447 OFFCURVE",
"282 391 CURVE",
"346 370 LINE",
"458 442 OFFCURVE",
"488 510 OFFCURVE",
"488 590 CURVE SMOOTH",
"488 604 OFFCURVE",
"480 606 OFFCURVE",
"469 604 CURVE",
"446 601 LINE"
);
},
{
closed = 1;
nodes = (
"411 1 OFFCURVE",
"462 163 OFFCURVE",
"462 249 CURVE",
"462 381 OFFCURVE",
"364 435 OFFCURVE",
"263 395 CURVE",
"252 329 LINE",
"328 372 OFFCURVE",
"400 350 OFFCURVE",
"400 247 CURVE",
"400 148 OFFCURVE",
"346 61 OFFCURVE",
"264 61 CURVE",
"234 61 OFFCURVE",
"208 78 OFFCURVE",
"185 99 CURVE SMOOTH",
"170 112 OFFCURVE",
"167 110 OFFCURVE",
"157 98 CURVE",
"141 79 LINE",
"133 69 OFFCURVE",
"133 62 OFFCURVE",
"147 50 CURVE SMOOTH",
"188 15 OFFCURVE",
"221 1 OFFCURVE",
"263 1 CURVE"
);
}
);
};
layerId = "70F97C4B-94FA-40A4-8E29-E667CA674F9A";
name = Regular;
paths = (
{
closed = 1;
nodes = (
"113 508 OFFCURVE",
"116 516 OFFCURVE",
"138 532 CURVE SMOOTH",
"159 547 OFFCURVE",
"169 549 OFFCURVE",
"189 549 CURVE",
"226 549 OFFCURVE",
"256 516 OFFCURVE",
"256 452 CURVE",
"256 340 OFFCURVE",
"199 272 OFFCURVE",
"138 272 CURVE SMOOTH",
"100 272 OFFCURVE",
"87 287 OFFCURVE",
"66 315 CURVE SMOOTH",
"51 335 OFFCURVE",
"45 329 OFFCURVE",
"31 313 CURVE",
"17 299 OFFCURVE",
"10 292 OFFCURVE",
"23 274 CURVE SMOOTH",
"50 237 OFFCURVE",
"85 213 OFFCURVE",
"131 213 CURVE SMOOTH",
"255 213 OFFCURVE",
"314 331 OFFCURVE",
"314 455 CURVE",
"314 534 OFFCURVE",
"276 606 OFFCURVE",
"189 606 CURVE",
"148 606 OFFCURVE",
"119 592 OFFCURVE",
"93 571 CURVE SMOOTH",
"75 556 OFFCURVE",
"70 546 OFFCURVE",
"93 526 CURVE"
);
},
{
closed = 1;
nodes = (
"477 578 CURVE",
"461 587 LINE",
"450 593 OFFCURVE",
"441 590 OFFCURVE",
"433 575 CURVE",
"327 391 LINE",
"376 365 LINE",
"484 546 LINE",
"493 562 OFFCURVE",
"490 570 OFFCURVE"
);
},
{
closed = 1;
nodes = (
"411 1 OFFCURVE",
"462 163 OFFCURVE",
"462 249 CURVE",
"462 381 OFFCURVE",
"364 435 OFFCURVE",
"263 395 CURVE",
"252 329 LINE",
"328 372 OFFCURVE",
"400 350 OFFCURVE",
"400 247 CURVE",
"400 148 OFFCURVE",
"346 61 OFFCURVE",
"264 61 CURVE",
"234 61 OFFCURVE",
"208 78 OFFCURVE",
"185 99 CURVE SMOOTH",
"170 112 OFFCURVE",
"167 110 OFFCURVE",
"157 98 CURVE",
"141 79 LINE",
"133 69 OFFCURVE",
"133 62 OFFCURVE",
"147 50 CURVE SMOOTH",
"188 15 OFFCURVE",
"221 1 OFFCURVE",
"263 1 CURVE"
);
}
);
width = 497;
}
);
unicode = 0A9D;
},
{
glyphname = gjNya;
lastChange = "2015-08-25 10:26:23 +0000";
layers = (
{
anchors = (
{
name = bottom;
position = "{357, 0}";
},
{
name = top;
position = "{479, 628}";
}
);
guideLines = (
{
angle = 90;
position = "{489, 466}";
},
{
angle = 90;
position = "{357, 466}";
}
);
layerId = "70F97C4B-94FA-40A4-8E29-E667CA674F9A";
name = Regular;
paths = (
{
closed = 1;
nodes = (
"103 483 OFFCURVE",
"106 491 OFFCURVE",
"128 507 CURVE SMOOTH",
"149 522 OFFCURVE",
"160 524 OFFCURVE",
"179 524 CURVE",
"216 524 OFFCURVE",
"246 491 OFFCURVE",
"246 427 CURVE",
"246 320 OFFCURVE",
"199 242 OFFCURVE",
"138 242 CURVE SMOOTH",
"100 242 OFFCURVE",
"90 258 OFFCURVE",
"66 285 CURVE SMOOTH",
"51 302 OFFCURVE",
"45 299 OFFCURVE",
"31 283 CURVE",
"17 269 OFFCURVE",
"10 262 OFFCURVE",
"23 244 CURVE SMOOTH",
"50 207 OFFCURVE",
"84 181 OFFCURVE",
"130 181 CURVE SMOOTH",
"254 181 OFFCURVE",
"304 311 OFFCURVE",
"304 430 CURVE",
"304 509 OFFCURVE",
"266 581 OFFCURVE",
"179 581 CURVE",
"138 581 OFFCURVE",
"109 567 OFFCURVE",
"83 546 CURVE SMOOTH",
"65 531 OFFCURVE",
"60 521 OFFCURVE",
"83 501 CURVE"
);
},
{
closed = 1;
nodes = (
"385 252 LINE",
"376 180 OFFCURVE",
"357 59 OFFCURVE",
"357 36 CURVE",
"357 12 OFFCURVE",
"374 0 OFFCURVE",
"390 0 CURVE",
"430 0 OFFCURVE",
"511 51 OFFCURVE",
"511 66 CURVE",
"511 82 OFFCURVE",
"495 108 OFFCURVE",
"482 108 CURVE",
"472 108 OFFCURVE",
"435 67 OFFCURVE",
"416 47 CURVE",
"440 224 OFFCURVE",
"489 551 OFFCURVE",
"489 577 CURVE",
"489 600 OFFCURVE",
"460 607 OFFCURVE",
"449 607 CURVE",
"435 607 OFFCURVE",
"430 601 OFFCURVE",
"427 579 CURVE",
"413 462 LINE"
);
},
{
closed = 1;
nodes = (
"237 328 LINE",
"255 291 OFFCURVE",
"285 271 OFFCURVE",
"329 271 CURVE SMOOTH",
"360 271 OFFCURVE",
"405 288 OFFCURVE",
"437 323 CURVE",
"436 402 LINE",
"411 364 OFFCURVE",
"374 325 OFFCURVE",
"323 325 CURVE SMOOTH",
"299 325 OFFCURVE",
"278 338 OFFCURVE",
"263 372 CURVE"
);
}
);
width = 531;
}
);
unicode = 0A9E;
},
{
glyphname = gjTta;
lastChange = "2015-08-31 08:52:10 +0000";
layers = (
{
anchors = (
{
name = bottom;
position = "{226, 0}";
},
{
name = top;
position = "{309, 628}";
}
);
layerId = "70F97C4B-94FA-40A4-8E29-E667CA674F9A";
name = Regular;
paths = (
{
closed = 1;
nodes = (
"131 513 OFFCURVE",
"138 513 OFFCURVE",
"152 523 CURVE SMOOTH",
"177 542 OFFCURVE",
"199 560 OFFCURVE",
"233 560 CURVE SMOOTH",
"268 560 OFFCURVE",
"284 540 OFFCURVE",
"284 511 CURVE",
"284 459 OFFCURVE",
"232 412 OFFCURVE",
"160 353 CURVE SMOOTH",
"87 294 OFFCURVE",
"30 246 OFFCURVE",
"30 159 CURVE",
"30 62 OFFCURVE",
"100 -3 OFFCURVE",
"186 -3 CURVE",
"265 -3 OFFCURVE",
"314 20 OFFCURVE",
"367 67 CURVE SMOOTH",
"383 81 OFFCURVE",
"376 98 OFFCURVE",
"363 110 CURVE",
"347 124 OFFCURVE",
"341 123 OFFCURVE",
"328 112 CURVE SMOOTH",
"301 90 OFFCURVE",
"270 56 OFFCURVE",
"191 56 CURVE",
"126 56 OFFCURVE",
"88 96 OFFCURVE",
"88 161 CURVE",
"88 230 OFFCURVE",
"140 263 OFFCURVE",
"203 315 CURVE SMOOTH",
"295 392 OFFCURVE",
"344 446 OFFCURVE",
"344 519 CURVE",
"344 573 OFFCURVE",
"300 617 OFFCURVE",
"238 617 CURVE SMOOTH",
"183 617 OFFCURVE",
"136 586 OFFCURVE",
"116 569 CURVE SMOOTH",
"101 556 OFFCURVE",
"101 552 OFFCURVE",
"114 534 CURVE"
);
}
);
width = 391;
}
);
unicode = 0A9F;
},
{
glyphname = gjTtha;
lastChange = "2015-08-25 10:29:47 +0000";
layers = (
{
anchors = (
{
name = bottom;
position = "{216, 0}";
},
{
name = top;
position = "{289, 628}";
}
);
layerId = "70F97C4B-94FA-40A4-8E29-E667CA674F9A";
name = Regular;
paths = (
{
closed = 1;
nodes = (
"30 56 OFFCURVE",
"101 -3 OFFCURVE",
"201 -3 CURVE",
"288 -3 OFFCURVE",
"374 43 OFFCURVE",
"374 154 CURVE",
"374 211 OFFCURVE",
"338 276 OFFCURVE",
"275 351 CURVE SMOOTH",
"228 407 OFFCURVE",
"185 457 OFFCURVE",
"185 504 CURVE",
"185 564 OFFCURVE",
"239 570 OFFCURVE",
"316 562 CURVE SMOOTH",
"335 560 OFFCURVE",
"331 575 OFFCURVE",
"326 593 CURVE",
"320 614 OFFCURVE",
"316 616 OFFCURVE",
"297 617 CURVE SMOOTH",
"202 622 OFFCURVE",
"126 602 OFFCURVE",
"126 508 CURVE",
"126 430 OFFCURVE",
"194 362 OFFCURVE",
"236 310 CURVE SMOOTH",
"267 271 OFFCURVE",
"316 214 OFFCURVE",
"316 156 CURVE",
"316 81 OFFCURVE",
"260 55 OFFCURVE",
"200 55 CURVE",
"135 55 OFFCURVE",
"89 95 OFFCURVE",
"88 156 CURVE",
"88 250 OFFCURVE",
"158 290 OFFCURVE",
"220 331 CURVE",
"185 376 LINE",
"104 322 OFFCURVE",
"30 262 OFFCURVE",
"30 159 CURVE"
);
}
);
width = 404;
}
);
unicode = 0AA0;
},
{
color = 10;
glyphname = gjDda;
lastChange = "2015-09-02 11:37:56 +0000";
layers = (
{
anchors = (
{
name = bottom;
position = "{196, 0}";
},
{
name = top;
position = "{294, 628}";
}
);
background = {
paths = (
{
closed = 1;
nodes = (
"317 575 OFFCURVE",
"321 560 OFFCURVE",
"302 562 CURVE SMOOTH",
"225 570 OFFCURVE",
"171 554 OFFCURVE",
"171 480 CURVE",
"171 432 OFFCURVE",
"203 386 OFFCURVE",
"241 331 CURVE SMOOTH",
"278 278 OFFCURVE",
"320 206 OFFCURVE",
"320 142 CURVE",
"320 44 OFFCURVE",
"244 -3 OFFCURVE",
"167 -3 CURVE",
"97 -3 OFFCURVE",
"54 33 OFFCURVE",
"6 96 CURVE SMOOTH",
"-5 109 OFFCURVE",
"1 118 OFFCURVE",
"14 130 CURVE",
"30 144 OFFCURVE",
"38 146 OFFCURVE",
"49 132 CURVE SMOOTH",
"77 96 OFFCURVE",
"113 55 OFFCURVE",
"166 55 CURVE",
"218 55 OFFCURVE",
"261 81 OFFCURVE",
"261 144 CURVE",
"261 262 OFFCURVE",
"112 355 OFFCURVE",
"112 482 CURVE",
"112 592 OFFCURVE",
"188 622 OFFCURVE",
"283 617 CURVE SMOOTH",
"302 616 OFFCURVE",
"306 614 OFFCURVE",
"312 593 CURVE"
);
},
{
closed = 1;
nodes = (
"317 565 OFFCURVE",
"321 550 OFFCURVE",
"302 552 CURVE SMOOTH",
"225 560 OFFCURVE",
"171 544 OFFCURVE",
"171 470 CURVE",
"171 422 OFFCURVE",
"203 376 OFFCURVE",
"241 321 CURVE SMOOTH",
"278 268 OFFCURVE",
"320 206 OFFCURVE",
"320 142 CURVE",
"320 44 OFFCURVE",
"244 -3 OFFCURVE",
"167 -3 CURVE",
"97 -3 OFFCURVE",
"54 33 OFFCURVE",
"6 96 CURVE SMOOTH",
"-5 109 OFFCURVE",
"1 118 OFFCURVE",
"14 130 CURVE",
"30 144 OFFCURVE",
"38 146 OFFCURVE",
"49 132 CURVE SMOOTH",
"77 96 OFFCURVE",
"113 55 OFFCURVE",
"166 55 CURVE",
"218 55 OFFCURVE",
"261 81 OFFCURVE",
"261 144 CURVE",
"261 252 OFFCURVE",
"112 353 OFFCURVE",
"112 472 CURVE",
"112 582 OFFCURVE",
"188 612 OFFCURVE",
"283 607 CURVE SMOOTH",
"302 606 OFFCURVE",
"306 604 OFFCURVE",
"312 583 CURVE"
);
}
);
};
layerId = "70F97C4B-94FA-40A4-8E29-E667CA674F9A";
name = Regular;
paths = (
{
closed = 1;
nodes = (
"316 555 OFFCURVE",
"310 550 OFFCURVE",
"297 550 CURVE SMOOTH",
"290 550 OFFCURVE",
"282 551 OFFCURVE",
"266 551 CURVE SMOOTH",
"202 551 OFFCURVE",
"169 532 OFFCURVE",
"169 480 CURVE",
"169 422 OFFCURVE",
"204 378 OFFCURVE",
"242 323 CURVE SMOOTH",
"279 270 OFFCURVE",
"319 206 OFFCURVE",
"319 142 CURVE",
"319 44 OFFCURVE",
"248 -3 OFFCURVE",
"167 -3 CURVE",
"98 -3 OFFCURVE",
"54 32 OFFCURVE",
"6 92 CURVE SMOOTH",
"-2 102 OFFCURVE",
"-4 113 OFFCURVE",
"14 130 CURVE",
"32 145 OFFCURVE",
"41 142 OFFCURVE",
"51 130 CURVE SMOOTH",
"78 96 OFFCURVE",
"114 55 OFFCURVE",
"166 55 CURVE",
"218 55 OFFCURVE",
"261 81 OFFCURVE",
"261 144 CURVE",
"261 201 OFFCURVE",
"220 257 OFFCURVE",
"181 313 CURVE SMOOTH",
"146 364 OFFCURVE",
"112 416 OFFCURVE",
"112 482 CURVE",
"112 575 OFFCURVE",
"178 609 OFFCURVE",
"264 609 CURVE SMOOTH",
"300 609 OFFCURVE",
"306 606 OFFCURVE",
"312 583 CURVE"
);
}
);
width = 360;
}
);
unicode = 0AA1;
},
{
glyphname = gjDdha;
lastChange = "2015-08-25 10:29:40 +0000";
layers = (
{
anchors = (
{
name = bottom;
position = "{226, 0}";
},
{
name = top;
position = "{309, 628}";
}
);
layerId = "70F97C4B-94FA-40A4-8E29-E667CA674F9A";
name = Regular;
paths = (
{
closed = 1;
nodes = (
"382 44 OFFCURVE",
"305 -3 OFFCURVE",
"206 -3 CURVE",
"100 -3 OFFCURVE",
"29 62 OFFCURVE",
"29 159 CURVE",
"29 246 OFFCURVE",
"87 294 OFFCURVE",
"160 353 CURVE SMOOTH",
"232 412 OFFCURVE",
"284 459 OFFCURVE",
"284 511 CURVE",
"284 540 OFFCURVE",
"268 560 OFFCURVE",
"233 560 CURVE SMOOTH",
"199 560 OFFCURVE",
"177 542 OFFCURVE",
"152 523 CURVE SMOOTH",
"138 513 OFFCURVE",
"131 513 OFFCURVE",
"114 534 CURVE",
"101 552 OFFCURVE",
"101 556 OFFCURVE",
"117 568 CURVE SMOOTH",
"137 583 OFFCURVE",
"183 617 OFFCURVE",
"238 617 CURVE SMOOTH",
"300 617 OFFCURVE",
"343 573 OFFCURVE",
"343 519 CURVE",
"343 443 OFFCURVE",
"295 393 OFFCURVE",
"203 317 CURVE SMOOTH",
"140 265 OFFCURVE",
"88 231 OFFCURVE",
"88 156 CURVE",
"88 97 OFFCURVE",
"126 51 OFFCURVE",
"211 51 CURVE",
"281 51 OFFCURVE",
"323 83 OFFCURVE",
"323 121 CURVE",
"323 147 OFFCURVE",
"311 162 OFFCURVE",
"286 162 CURVE",
"249 162 OFFCURVE",
"240 131 OFFCURVE",
"240 113 CURVE",
"240 75 OFFCURVE",
"263 51 OFFCURVE",
"284 24 CURVE",
"217 20 LINE",
"204 40 OFFCURVE",
"182 71 OFFCURVE",
"182 113 CURVE",
"182 183 OFFCURVE",
"230 221 OFFCURVE",
"286 221 CURVE",
"345 221 OFFCURVE",
"382 179 OFFCURVE",
"382 122 CURVE"
);
}
);
width = 402;
}
);
unicode = 0AA2;
},
{
glyphname = gjNna;
lastChange = "2015-08-30 18:30:32 +0000";
layers = (
{
anchors = (
{
name = bottom;
position = "{449, -50}";
},
{
name = top;
position = "{568, 628}";
}
);
background = {
paths = (
{
closed = 1;
nodes = (
"447 176 OFFCURVE",
"429 62 OFFCURVE",
"429 36 CURVE",
"429 12 OFFCURVE",
"446 0 OFFCURVE",
"462 0 CURVE",
"502 0 OFFCURVE",
"583 51 OFFCURVE",
"583 66 CURVE",
"583 82 OFFCURVE",
"567 108 OFFCURVE",
"554 108 CURVE",
"544 108 OFFCURVE",
"507 67 OFFCURVE",
"488 47 CURVE",
"551 520 LINE",
"555 552 OFFCURVE",
"558 569 OFFCURVE",
"558 577 CURVE",
"558 600 OFFCURVE",
"532 607 OFFCURVE",
"521 607 CURVE",
"507 607 OFFCURVE",
"502 601 OFFCURVE",
"499 579 CURVE"
);
},
{
closed = 1;
nodes = (
"234 508 OFFCURVE",
"237 516 OFFCURVE",
"259 532 CURVE SMOOTH",
"280 547 OFFCURVE",
"291 549 OFFCURVE",
"300 549 CURVE",
"327 549 OFFCURVE",
"347 516 OFFCURVE",
"347 452 CURVE",
"347 370 OFFCURVE",
"310 292 OFFCURVE",
"259 292 CURVE SMOOTH",
"231 292 OFFCURVE",
"221 308 OFFCURVE",
"197 335 CURVE SMOOTH",
"182 352 OFFCURVE",
"176 349 OFFCURVE",
"162 333 CURVE",
"148 319 OFFCURVE",
"141 312 OFFCURVE",
"154 294 CURVE SMOOTH",
"181 257 OFFCURVE",
"215 231 OFFCURVE",
"251 231 CURVE SMOOTH",
"365 231 OFFCURVE",
"405 361 OFFCURVE",
"405 455 CURVE",
"405 534 OFFCURVE",
"377 606 OFFCURVE",
"300 606 CURVE",
"269 606 OFFCURVE",
"240 592 OFFCURVE",
"214 571 CURVE SMOOTH",
"196 556 OFFCURVE",
"191 546 OFFCURVE",
"214 526 CURVE"
);
},
{
closed = 1;
nodes = (
"195 88 OFFCURVE",
"283 33 OFFCURVE",
"324 -10 CURVE",
"302 -32 OFFCURVE",
"273 -39 OFFCURVE",
"257 -46 CURVE SMOOTH",
"239 -55 OFFCURVE",
"242 -61 OFFCURVE",
"257 -78 CURVE SMOOTH",
"269 -90 OFFCURVE",
"271 -100 OFFCURVE",
"296 -92 CURVE SMOOTH",
"327 -80 OFFCURVE",
"377 -44 OFFCURVE",
"377 -4 CURVE SMOOTH",
"377 24 OFFCURVE",
"364 40 OFFCURVE",
"329 66 CURVE",
"156 191 LINE",
"107 227 OFFCURVE",
"98 245 OFFCURVE",
"107 313 CURVE",
"136 520 LINE",
"140 552 OFFCURVE",
"143 569 OFFCURVE",
"143 577 CURVE",
"143 600 OFFCURVE",
"117 607 OFFCURVE",
"106 607 CURVE",
"92 607 OFFCURVE",
"87 601 OFFCURVE",
"84 579 CURVE",
"68 461 OFFCURVE",
"56 368 OFFCURVE",
"47 294 CURVE SMOOTH",
"39 229 OFFCURVE",
"55 193 OFFCURVE",
"114 147 CURVE"
);
}
);
};
guideLines = (
{
angle = 90;
position = "{578, 583}";
},
{
angle = 90;
position = "{449, 583}";
}
);
layerId = "70F97C4B-94FA-40A4-8E29-E667CA674F9A";
name = Regular;
paths = (
{
closed = 1;
nodes = (
"467 176 OFFCURVE",
"449 62 OFFCURVE",
"449 36 CURVE",
"449 12 OFFCURVE",
"466 0 OFFCURVE",
"482 0 CURVE",
"522 0 OFFCURVE",
"603 51 OFFCURVE",
"603 66 CURVE",
"603 82 OFFCURVE",
"587 108 OFFCURVE",
"574 108 CURVE",
"564 108 OFFCURVE",
"527 67 OFFCURVE",
"508 47 CURVE",
"571 520 LINE",
"575 552 OFFCURVE",
"578 569 OFFCURVE",
"578 577 CURVE",
"578 600 OFFCURVE",
"552 607 OFFCURVE",
"541 607 CURVE",
"527 607 OFFCURVE",
"522 601 OFFCURVE",
"519 579 CURVE"
);
},
{
closed = 1;
nodes = (
"244 508 OFFCURVE",
"247 516 OFFCURVE",
"269 532 CURVE SMOOTH",
"290 547 OFFCURVE",
"301 549 OFFCURVE",
"310 549 CURVE",
"337 549 OFFCURVE",
"357 516 OFFCURVE",
"357 452 CURVE",
"357 370 OFFCURVE",
"320 292 OFFCURVE",
"269 292 CURVE SMOOTH",
"241 292 OFFCURVE",
"231 308 OFFCURVE",
"207 335 CURVE SMOOTH",
"192 352 OFFCURVE",
"186 349 OFFCURVE",
"172 333 CURVE",
"158 319 OFFCURVE",
"151 312 OFFCURVE",
"164 294 CURVE SMOOTH",
"191 257 OFFCURVE",
"225 231 OFFCURVE",
"261 231 CURVE SMOOTH",
"375 231 OFFCURVE",
"415 361 OFFCURVE",
"415 455 CURVE",
"415 534 OFFCURVE",
"387 606 OFFCURVE",
"310 606 CURVE",
"279 606 OFFCURVE",
"250 592 OFFCURVE",
"224 571 CURVE SMOOTH",
"206 556 OFFCURVE",
"201 546 OFFCURVE",
"224 526 CURVE"
);
},
{
closed = 1;
nodes = (
"195 88 OFFCURVE",
"283 33 OFFCURVE",
"324 -10 CURVE",
"302 -32 OFFCURVE",
"273 -39 OFFCURVE",
"257 -46 CURVE SMOOTH",
"239 -55 OFFCURVE",
"242 -61 OFFCURVE",
"257 -78 CURVE SMOOTH",
"269 -90 OFFCURVE",
"271 -100 OFFCURVE",
"296 -92 CURVE SMOOTH",
"327 -80 OFFCURVE",
"377 -44 OFFCURVE",
"377 -4 CURVE SMOOTH",
"377 24 OFFCURVE",
"364 40 OFFCURVE",
"329 66 CURVE",
"156 191 LINE",
"107 227 OFFCURVE",
"98 245 OFFCURVE",
"107 313 CURVE",
"136 520 LINE",
"140 552 OFFCURVE",
"143 569 OFFCURVE",
"143 577 CURVE",
"143 600 OFFCURVE",
"117 607 OFFCURVE",
"106 607 CURVE",
"92 607 OFFCURVE",
"87 601 OFFCURVE",
"84 579 CURVE",
"68 461 OFFCURVE",
"56 368 OFFCURVE",
"47 294 CURVE SMOOTH",
"39 229 OFFCURVE",
"55 193 OFFCURVE",
"114 147 CURVE"
);
}
);
width = 623;
}
);
unicode = 0AA3;
},
{
glyphname = gjTa;
lastChange = "2015-09-02 12:42:00 +0000";
layers = (
{
anchors = (
{
name = bottom;
position = "{275, 0}";
},
{
name = top;
position = "{394, 628}";
}
);
guideLines = (
{
angle = 90;
position = "{404, 546}";
},
{
angle = 90;
position = "{275, 546}";
}
);
layerId = "70F97C4B-94FA-40A4-8E29-E667CA674F9A";
name = Regular;
paths = (
{
closed = 1;
nodes = (
"390 108 OFFCURVE",
"353 67 OFFCURVE",
"334 47 CURVE",
"397 520 LINE SMOOTH",
"401 552 OFFCURVE",
"404 569 OFFCURVE",
"404 577 CURVE SMOOTH",
"404 600 OFFCURVE",
"378 607 OFFCURVE",
"367 607 CURVE SMOOTH",
"353 607 OFFCURVE",
"348 601 OFFCURVE",
"345 579 CURVE SMOOTH",
"318 372 LINE",
"360 396 LINE",
"188 390 OFFCURVE",
"51 403 OFFCURVE",
"51 238 CURVE SMOOTH",
"51 175 OFFCURVE",
"72 92 OFFCURVE",
"89 29 CURVE SMOOTH",
"97 0 OFFCURVE",
"104 2 OFFCURVE",
"126 8 CURVE SMOOTH",
"149 14 OFFCURVE",
"155 16 OFFCURVE",
"147 43 CURVE SMOOTH",
"126 114 OFFCURVE",
"113 180 OFFCURVE",
"113 234 CURVE SMOOTH",
"113 346 OFFCURVE",
"215 327 OFFCURVE",
"356 337 CURVE",
"315 349 LINE",
"281 89 OFFCURVE",
"275 58 OFFCURVE",
"275 36 CURVE SMOOTH",
"275 12 OFFCURVE",
"292 0 OFFCURVE",
"308 0 CURVE SMOOTH",
"348 0 OFFCURVE",
"429 51 OFFCURVE",
"429 66 CURVE SMOOTH",
"429 82 OFFCURVE",
"413 108 OFFCURVE",
"400 108 CURVE SMOOTH"
);
}
);
width = 449;
}
);
unicode = 0AA4;
},
{
glyphname = gjTha;
lastChange = "2015-09-02 11:06:03 +0000";
layers = (
{
anchors = (
{
name = bottom;
position = "{290, 0}";
},
{
name = top;
position = "{412, 628}";
}
);
background = {
paths = (
{
closed = 1;
nodes = (
"183 548 OFFCURVE",
"200 529 OFFCURVE",
"200 496 CURVE SMOOTH",
"200 431 OFFCURVE",
"139 403 OFFCURVE",
"37 375 CURVE SMOOTH",
"26 372 OFFCURVE",
"21 366 OFFCURVE",
"22 354 CURVE",
"28 282 OFFCURVE",
"82 210 OFFCURVE",
"181 210 CURVE",
"234 210 OFFCURVE",
"292 232 OFFCURVE",
"324 272 CURVE",
"317 242 LINE",
"308 170 OFFCURVE",
"290 59 OFFCURVE",
"290 36 CURVE",
"290 12 OFFCURVE",
"307 0 OFFCURVE",
"323 0 CURVE",
"363 0 OFFCURVE",
"444 51 OFFCURVE",
"444 66 CURVE",
"444 82 OFFCURVE",
"428 108 OFFCURVE",
"415 108 CURVE",
"405 108 OFFCURVE",
"368 67 OFFCURVE",
"349 47 CURVE",
"373 224 OFFCURVE",
"422 551 OFFCURVE",
"422 577 CURVE",
"422 600 OFFCURVE",
"393 607 OFFCURVE",
"382 607 CURVE",
"368 607 OFFCURVE",
"363 601 OFFCURVE",
"360 579 CURVE",
"345 452 LINE",
"334 380 OFFCURVE",
"328 359 OFFCURVE",
"299 321 CURVE SMOOTH",
"274 291 OFFCURVE",
"240 269 OFFCURVE",
"178 269 CURVE",
"133 269 OFFCURVE",
"101 294 OFFCURVE",
"88 328 CURVE",
"202 363 OFFCURVE",
"261 413 OFFCURVE",
"261 498 CURVE SMOOTH",
"261 555 OFFCURVE",
"226 606 OFFCURVE",
"163 606 CURVE",
"105 606 OFFCURVE",
"58 573 OFFCURVE",
"58 511 CURVE",
"58 486 OFFCURVE",
"67 462 OFFCURVE",
"86 441 CURVE SMOOTH",
"97 429 OFFCURVE",
"102 430 OFFCURVE",
"113 439 CURVE",
"130 453 LINE",
"141 462 OFFCURVE",
"142 467 OFFCURVE",
"131 478 CURVE SMOOTH",
"122 487 OFFCURVE",
"117 499 OFFCURVE",
"117 511 CURVE",
"117 532 OFFCURVE",
"130 548 OFFCURVE",
"157 548 CURVE"
);
}
);
};
guideLines = (
{
angle = 90;
position = "{422, 639}";
},
{
angle = 90;
position = "{290, 639}";
}
);
layerId = "70F97C4B-94FA-40A4-8E29-E667CA674F9A";
name = Regular;
paths = (
{
closed = 1;
nodes = (
"183 548 OFFCURVE",
"200 529 OFFCURVE",
"200 496 CURVE SMOOTH",
"200 431 OFFCURVE",
"139 393 OFFCURVE",
"37 365 CURVE SMOOTH",
"26 362 OFFCURVE",
"21 356 OFFCURVE",
"22 344 CURVE",
"28 272 OFFCURVE",
"82 200 OFFCURVE",
"181 200 CURVE",
"234 200 OFFCURVE",
"292 222 OFFCURVE",
"324 262 CURVE",
"317 232 LINE",
"308 160 OFFCURVE",
"290 59 OFFCURVE",
"290 36 CURVE",
"290 12 OFFCURVE",
"307 0 OFFCURVE",
"323 0 CURVE",
"363 0 OFFCURVE",
"444 51 OFFCURVE",
"444 66 CURVE",
"444 82 OFFCURVE",
"428 108 OFFCURVE",
"415 108 CURVE",
"405 108 OFFCURVE",
"368 67 OFFCURVE",
"349 47 CURVE",
"373 224 OFFCURVE",
"422 551 OFFCURVE",
"422 577 CURVE",
"422 600 OFFCURVE",
"393 607 OFFCURVE",
"382 607 CURVE",
"368 607 OFFCURVE",
"363 601 OFFCURVE",
"360 579 CURVE",
"345 452 LINE",
"334 370 OFFCURVE",
"328 349 OFFCURVE",
"299 311 CURVE SMOOTH",
"274 281 OFFCURVE",
"240 259 OFFCURVE",
"178 259 CURVE",
"133 259 OFFCURVE",
"101 284 OFFCURVE",
"88 318 CURVE",
"202 353 OFFCURVE",
"261 413 OFFCURVE",
"261 498 CURVE SMOOTH",
"261 555 OFFCURVE",
"226 606 OFFCURVE",
"163 606 CURVE",
"105 606 OFFCURVE",
"58 573 OFFCURVE",
"58 511 CURVE",
"58 486 OFFCURVE",
"67 462 OFFCURVE",
"86 441 CURVE SMOOTH",
"97 429 OFFCURVE",
"102 430 OFFCURVE",
"113 439 CURVE",
"130 453 LINE",
"141 462 OFFCURVE",
"142 467 OFFCURVE",
"131 478 CURVE SMOOTH",
"122 487 OFFCURVE",
"117 499 OFFCURVE",
"117 511 CURVE",
"117 532 OFFCURVE",
"130 548 OFFCURVE",
"157 548 CURVE"
);
}
);
width = 464;
}
);
unicode = 0AA5;
},
{
glyphname = gjDa;
lastChange = "2015-08-25 10:30:13 +0000";
layers = (
{
anchors = (
{
name = bottom;
position = "{186, 0}";
},
{
name = top;
position = "{259, 628}";
}
);
background = {
paths = (
{
closed = 1;
nodes = (
"248 337 OFFCURVE",
"249 337 OFFCURVE",
"256 327 CURVE",
"270 307 LINE",
"279 293 OFFCURVE",
"283 284 OFFCURVE",
"259 282 CURVE SMOOTH",
"125 273 OFFCURVE",
"89 224 OFFCURVE",
"89 160 CURVE",
"89 114 OFFCURVE",
"114 58 OFFCURVE",
"201 58 CURVE",
"257 58 OFFCURVE",
"296 81 OFFCURVE",
"323 99 CURVE SMOOTH",
"335 107 OFFCURVE",
"340 104 OFFCURVE",
"346 94 CURVE",
"355 78 LINE",
"364 62 OFFCURVE",
"364 56 OFFCURVE",
"349 46 CURVE SMOOTH",
"312 21 OFFCURVE",
"257 -1 OFFCURVE",
"203 -1 CURVE",
"80 -1 OFFCURVE",
"30 81 OFFCURVE",
"30 155 CURVE",
"30 240 OFFCURVE",
"68 315 OFFCURVE",
"226 334 CURVE SMOOTH"
);
},
{
closed = 1;
nodes = (
"222 566 OFFCURVE",
"266 597 CURVE SMOOTH",
"280 607 OFFCURVE",
"284 613 OFFCURVE",
"294 601 CURVE",
"310 581 LINE",
"320 569 OFFCURVE",
"317 562 OFFCURVE",
"302 551 CURVE SMOOTH",
"261 521 OFFCURVE",
"120 520 OFFCURVE",
"120 433 CURVE",
"120 375 OFFCURVE",
"164 335 OFFCURVE",
"209 303 CURVE",
"167 265 LINE",
"120 296 OFFCURVE",
"61 358 OFFCURVE",
"61 429 CURVE",
"61 562 OFFCURVE"
);
}
);
};
layerId = "70F97C4B-94FA-40A4-8E29-E667CA674F9A";
name = Regular;
paths = (
{
closed = 1;
nodes = (
"228 337 OFFCURVE",
"229 337 OFFCURVE",
"236 327 CURVE",
"248 304 LINE",
"257 290 OFFCURVE",
"261 281 OFFCURVE",
"237 279 CURVE SMOOTH",
"123 270 OFFCURVE",
"89 224 OFFCURVE",
"89 160 CURVE",
"89 114 OFFCURVE",
"114 58 OFFCURVE",
"181 58 CURVE",
"237 58 OFFCURVE",
"266 77 OFFCURVE",
"293 95 CURVE SMOOTH",
"305 103 OFFCURVE",
"310 100 OFFCURVE",
"316 90 CURVE",
"325 74 LINE",
"334 58 OFFCURVE",
"334 52 OFFCURVE",
"319 42 CURVE SMOOTH",
"282 17 OFFCURVE",
"237 -1 OFFCURVE",
"183 -1 CURVE",
"80 -1 OFFCURVE",
"30 81 OFFCURVE",
"30 155 CURVE",
"30 240 OFFCURVE",
"71 315 OFFCURVE",
"206 334 CURVE SMOOTH"
);
},
{
closed = 1;
nodes = (
"192 569 OFFCURVE",
"236 597 CURVE SMOOTH",
"250 606 OFFCURVE",
"254 613 OFFCURVE",
"264 601 CURVE",
"280 581 LINE",
"290 569 OFFCURVE",
"287 562 OFFCURVE",
"272 551 CURVE SMOOTH",
"231 521 OFFCURVE",
"110 520 OFFCURVE",
"110 433 CURVE",
"110 375 OFFCURVE",
"157 335 OFFCURVE",
"202 303 CURVE",
"157 265 LINE",
"110 296 OFFCURVE",
"51 358 OFFCURVE",
"51 429 CURVE",
"51 562 OFFCURVE"
);
}
);
width = 331;
}
);
unicode = 0AA6;
},
{
glyphname = gjDha;
lastChange = "2015-09-02 09:32:54 +0000";
layers = (
{
anchors = (
{
name = bottom;
position = "{301, 0}";
},
{
name = top;
position = "{423, 628}";
}
);
background = {
paths = (
{
closed = 1;
nodes = (
"196 439 OFFCURVE",
"197 435 OFFCURVE",
"204 425 CURVE",
"216 407 LINE",
"225 393 OFFCURVE",
"229 388 OFFCURVE",
"205 382 CURVE SMOOTH",
"131 363 OFFCURVE",
"105 334 OFFCURVE",
"105 296 CURVE",
"105 264 OFFCURVE",
"130 238 OFFCURVE",
"173 238 CURVE",
"224 238 OFFCURVE",
"259 260 OFFCURVE",
"284 290 CURVE SMOOTH",
"313 328 OFFCURVE",
"321 349 OFFCURVE",
"332 421 CURVE",
"351 579 LINE",
"354 601 OFFCURVE",
"359 607 OFFCURVE",
"373 607 CURVE",
"384 607 OFFCURVE",
"413 600 OFFCURVE",
"413 577 CURVE",
"413 551 OFFCURVE",
"364 224 OFFCURVE",
"340 47 CURVE",
"359 67 OFFCURVE",
"396 108 OFFCURVE",
"406 108 CURVE",
"419 108 OFFCURVE",
"435 82 OFFCURVE",
"435 66 CURVE",
"435 51 OFFCURVE",
"354 0 OFFCURVE",
"314 0 CURVE",
"298 0 OFFCURVE",
"281 12 OFFCURVE",
"281 36 CURVE",
"281 59 OFFCURVE",
"295 139 OFFCURVE",
"304 211 CURVE",
"311 241 LINE",
"276 202 OFFCURVE",
"234 179 OFFCURVE",
"167 179 CURVE",
"96 179 OFFCURVE",
"46 228 OFFCURVE",
"46 297 CURVE",
"46 350 OFFCURVE",
"73 400 OFFCURVE",
"174 432 CURVE SMOOTH"
);
},
{
closed = 1;
nodes = (
"207 627 OFFCURVE",
"225 641 CURVE SMOOTH",
"241 653 OFFCURVE",
"243 657 OFFCURVE",
"253 645 CURVE",
"266 628 LINE",
"276 616 OFFCURVE",
"279 609 OFFCURVE",
"261 595 CURVE SMOOTH",
"242 580 OFFCURVE",
"215 571 OFFCURVE",
"186 562 CURVE",
"140 548 OFFCURVE",
"96 536 OFFCURVE",
"96 498 CURVE",
"96 447 OFFCURVE",
"127 419 OFFCURVE",
"152 387 CURVE",
"99 353 LINE",
"76 391 OFFCURVE",
"37 430 OFFCURVE",
"37 498 CURVE",
"37 560 OFFCURVE",
"81 590 OFFCURVE",
"156 612 CURVE SMOOTH",
"184 620 OFFCURVE"
);
}
);
};
guideLines = (
{
angle = 90;
position = "{433, 518}";
},
{
angle = 90;
position = "{301, 518}";
}
);
layerId = "70F97C4B-94FA-40A4-8E29-E667CA674F9A";
name = Regular;
paths = (
{
closed = 1;
nodes = (
"196 439 OFFCURVE",
"197 435 OFFCURVE",
"204 425 CURVE",
"216 407 LINE",
"225 393 OFFCURVE",
"229 388 OFFCURVE",
"205 382 CURVE SMOOTH",
"131 363 OFFCURVE",
"105 334 OFFCURVE",
"105 296 CURVE",
"105 264 OFFCURVE",
"130 238 OFFCURVE",
"183 238 CURVE",
"242 238 OFFCURVE",
"279 263 OFFCURVE",
"304 290 CURVE SMOOTH",
"336 325 OFFCURVE",
"341 349 OFFCURVE",
"352 421 CURVE",
"371 579 LINE",
"374 601 OFFCURVE",
"379 607 OFFCURVE",
"393 607 CURVE",
"404 607 OFFCURVE",
"433 600 OFFCURVE",
"433 577 CURVE",
"433 551 OFFCURVE",
"384 224 OFFCURVE",
"360 47 CURVE",
"379 67 OFFCURVE",
"416 108 OFFCURVE",
"426 108 CURVE",
"439 108 OFFCURVE",
"455 82 OFFCURVE",
"455 66 CURVE",
"455 51 OFFCURVE",
"374 0 OFFCURVE",
"334 0 CURVE",
"318 0 OFFCURVE",
"301 12 OFFCURVE",
"301 36 CURVE",
"301 59 OFFCURVE",
"315 139 OFFCURVE",
"324 211 CURVE",
"331 241 LINE",
"294 201 OFFCURVE",
"238 179 OFFCURVE",
"177 179 CURVE",
"96 179 OFFCURVE",
"46 228 OFFCURVE",
"46 297 CURVE",
"46 350 OFFCURVE",
"73 400 OFFCURVE",
"174 432 CURVE SMOOTH"
);
},
{
closed = 1;
nodes = (
"207 627 OFFCURVE",
"225 641 CURVE SMOOTH",
"241 653 OFFCURVE",
"243 657 OFFCURVE",
"253 645 CURVE",
"266 628 LINE",
"276 616 OFFCURVE",
"279 609 OFFCURVE",
"261 595 CURVE SMOOTH",
"242 580 OFFCURVE",
"215 571 OFFCURVE",
"186 562 CURVE",
"140 548 OFFCURVE",
"96 536 OFFCURVE",
"96 498 CURVE",
"96 447 OFFCURVE",
"127 419 OFFCURVE",
"152 387 CURVE",
"99 353 LINE",
"76 391 OFFCURVE",
"37 430 OFFCURVE",
"37 498 CURVE",
"37 560 OFFCURVE",
"81 590 OFFCURVE",
"156 612 CURVE SMOOTH",
"184 620 OFFCURVE"
);
}
);
width = 475;
}
);
unicode = 0AA7;
},
{
glyphname = gjNa;
lastChange = "2015-08-30 14:24:35 +0000";
layers = (
{
anchors = (
{
name = bottom;
position = "{226, 0}";
},
{
name = top;
position = "{345, 628}";
}
);
guideLines = (
{
angle = 90;
position = "{355, 275}";
},
{
angle = 90;
position = "{226, 275}";
}
);
layerId = "70F97C4B-94FA-40A4-8E29-E667CA674F9A";
name = Regular;
paths = (
{
closed = 1;
nodes = (
"346 371 OFFCURVE",
"340 375 OFFCURVE",
"311 370 CURVE SMOOTH",
"62 327 LINE SMOOTH",
"31 321 OFFCURVE",
"20 312 OFFCURVE",
"20 289 CURVE SMOOTH",
"20 264 OFFCURVE",
"34 228 OFFCURVE",
"48 193 CURVE SMOOTH",
"53 180 OFFCURVE",
"58 178 OFFCURVE",
"69 176 CURVE SMOOTH",
"79 174 OFFCURVE",
"92 172 OFFCURVE",
"93 185 CURVE",
"99 275 LINE",
"325 314 LINE SMOOTH",
"356 319 OFFCURVE",
"366 327 OFFCURVE",
"356 349 CURVE"
);
},
{
closed = 1;
nodes = (
"244 176 OFFCURVE",
"226 62 OFFCURVE",
"226 36 CURVE",
"226 12 OFFCURVE",
"243 0 OFFCURVE",
"259 0 CURVE",
"299 0 OFFCURVE",
"380 51 OFFCURVE",
"380 66 CURVE",
"380 82 OFFCURVE",
"364 108 OFFCURVE",
"351 108 CURVE",
"341 108 OFFCURVE",
"304 67 OFFCURVE",
"285 47 CURVE",
"348 520 LINE",
"352 552 OFFCURVE",
"355 569 OFFCURVE",
"355 577 CURVE",
"355 600 OFFCURVE",
"329 607 OFFCURVE",
"318 607 CURVE",
"304 607 OFFCURVE",
"299 601 OFFCURVE",
"296 579 CURVE"
);
}
);
width = 400;
}
);
unicode = 0AA8;
},
{
color = 10;
glyphname = gjPa;
lastChange = "2015-09-02 11:41:18 +0000";
layers = (
{
anchors = (
{
name = bottom;
position = "{269, 0}";
},
{
name = top;
position = "{388, 628}";
}
);
background = {
paths = (
{
closed = 1;
nodes = (
"187 593 OFFCURVE",
"175 605 OFFCURVE",
"153 605 CURVE",
"122 605 OFFCURVE",
"76 593 OFFCURVE",
"57 583 CURVE SMOOTH",
"51 580 OFFCURVE",
"50 576 OFFCURVE",
"50 571 CURVE",
"50 562 OFFCURVE",
"65 535 OFFCURVE",
"74 535 CURVE",
"83 535 OFFCURVE",
"106 546 OFFCURVE",
"125 554 CURVE",
"112 473 OFFCURVE",
"96 391 OFFCURVE",
"96 328 CURVE",
"96 259 OFFCURVE",
"139 217 OFFCURVE",
"194 217 CURVE",
"247 217 OFFCURVE",
"294 246 OFFCURVE",
"324 282 CURVE",
"317 252 LINE",
"308 180 OFFCURVE",
"289 59 OFFCURVE",
"289 36 CURVE",
"289 12 OFFCURVE",
"306 0 OFFCURVE",
"322 0 CURVE",
"362 0 OFFCURVE",
"443 51 OFFCURVE",
"443 66 CURVE",
"443 82 OFFCURVE",
"427 108 OFFCURVE",
"414 108 CURVE",
"404 108 OFFCURVE",
"367 67 OFFCURVE",
"348 47 CURVE",
"372 224 OFFCURVE",
"421 551 OFFCURVE",
"421 577 CURVE",
"421 600 OFFCURVE",
"392 607 OFFCURVE",
"381 607 CURVE",
"367 607 OFFCURVE",
"362 601 OFFCURVE",
"359 579 CURVE",
"345 462 LINE",
"334 390 OFFCURVE",
"326 369 OFFCURVE",
"297 331 CURVE SMOOTH",
"272 301 OFFCURVE",
"237 279 OFFCURVE",
"200 279 CURVE",
"173 279 OFFCURVE",
"158 298 OFFCURVE",
"158 330 CURVE",
"158 408 OFFCURVE",
"187 533 OFFCURVE",
"187 574 CURVE"
);
},
{
closed = 1;
nodes = (
"287 176 OFFCURVE",
"269 62 OFFCURVE",
"269 36 CURVE",
"269 12 OFFCURVE",
"286 0 OFFCURVE",
"302 0 CURVE",
"342 0 OFFCURVE",
"423 51 OFFCURVE",
"423 66 CURVE",
"423 82 OFFCURVE",
"407 108 OFFCURVE",
"394 108 CURVE",
"384 108 OFFCURVE",
"347 67 OFFCURVE",
"328 47 CURVE",
"391 520 LINE",
"395 552 OFFCURVE",
"398 569 OFFCURVE",
"398 577 CURVE",
"398 600 OFFCURVE",
"372 607 OFFCURVE",
"361 607 CURVE",
"347 607 OFFCURVE",
"342 601 OFFCURVE",
"339 579 CURVE"
);
},
{
closed = 1;
nodes = (
"337 446 OFFCURVE",
"341 398 OFFCURVE",
"341 365 CURVE SMOOTH",
"341 263 OFFCURVE",
"302 149 OFFCURVE",
"176 149 CURVE",
"121 149 OFFCURVE",
"70 191 OFFCURVE",
"70 284 CURVE",
"70 363 OFFCURVE",
"92 473 OFFCURVE",
"105 554 CURVE",
"86 546 OFFCURVE",
"63 535 OFFCURVE",
"54 535 CURVE",
"45 535 OFFCURVE",
"30 564 OFFCURVE",
"30 573 CURVE",
"30 578 OFFCURVE",
"31 580 OFFCURVE",
"37 583 CURVE SMOOTH",
"56 593 OFFCURVE",
"102 605 OFFCURVE",
"133 605 CURVE",
"155 605 OFFCURVE",
"167 593 OFFCURVE",
"167 574 CURVE",
"167 533 OFFCURVE",
"130 380 OFFCURVE",
"130 279 CURVE",
"130 230 OFFCURVE",
"155 211 OFFCURVE",
"182 211 CURVE",
"251 211 OFFCURVE",
"281 278 OFFCURVE",
"281 362 CURVE SMOOTH",
"281 415 OFFCURVE",
"276 443 OFFCURVE",
"270 470 CURVE",
"264 492 OFFCURVE",
"279 498 OFFCURVE",
"293 498 CURVE",
"324 498 OFFCURVE",
"330 491 OFFCURVE",
"334 468 CURVE"
);
}
);
};
guideLines = (
{
angle = 90;
position = "{398, 523}";
},
{
angle = 90;
position = "{269, 523}";
}
);
layerId = "70F97C4B-94FA-40A4-8E29-E667CA674F9A";
name = Regular;
paths = (
{
closed = 1;
nodes = (
"167 593 OFFCURVE",
"155 605 OFFCURVE",
"133 605 CURVE",
"102 605 OFFCURVE",
"56 593 OFFCURVE",
"37 583 CURVE SMOOTH",
"31 580 OFFCURVE",
"30 578 OFFCURVE",
"30 573 CURVE",
"30 564 OFFCURVE",
"45 535 OFFCURVE",
"54 535 CURVE",
"63 535 OFFCURVE",
"86 546 OFFCURVE",
"105 554 CURVE",
"92 473 OFFCURVE",
"76 391 OFFCURVE",
"76 328 CURVE",
"76 259 OFFCURVE",
"119 217 OFFCURVE",
"174 217 CURVE",
"227 217 OFFCURVE",
"274 246 OFFCURVE",
"304 282 CURVE",
"297 252 LINE",
"288 180 OFFCURVE",
"269 59 OFFCURVE",
"269 36 CURVE",
"269 12 OFFCURVE",
"286 0 OFFCURVE",
"302 0 CURVE",
"342 0 OFFCURVE",
"423 51 OFFCURVE",
"423 66 CURVE",
"423 82 OFFCURVE",
"407 108 OFFCURVE",
"394 108 CURVE",
"384 108 OFFCURVE",
"347 67 OFFCURVE",
"328 47 CURVE",
"355 244 OFFCURVE",
"398 551 OFFCURVE",
"398 577 CURVE",
"398 600 OFFCURVE",
"372 607 OFFCURVE",
"361 607 CURVE",
"347 607 OFFCURVE",
"342 601 OFFCURVE",
"339 579 CURVE",
"325 462 LINE",
"314 390 OFFCURVE",
"306 369 OFFCURVE",
"277 331 CURVE SMOOTH",
"252 301 OFFCURVE",
"217 279 OFFCURVE",
"180 279 CURVE",
"153 279 OFFCURVE",
"138 298 OFFCURVE",
"138 330 CURVE",
"138 408 OFFCURVE",
"167 533 OFFCURVE",
"167 574 CURVE"
);
}
);
width = 443;
}
);
unicode = 0AAA;
},
{
glyphname = gjPha;
lastChange = "2015-08-30 17:52:26 +0000";
layers = (
{
anchors = (
{
name = bottom;
position = "{190, -60}";
},
{
name = top;
position = "{294, 628}";
}
);
background = {
paths = (
{
closed = 1;
nodes = (
"311 575 OFFCURVE",
"315 560 OFFCURVE",
"296 562 CURVE SMOOTH",
"219 570 OFFCURVE",
"165 554 OFFCURVE",
"165 480 CURVE",
"165 432 OFFCURVE",
"197 386 OFFCURVE",
"235 331 CURVE SMOOTH",
"272 278 OFFCURVE",
"314 206 OFFCURVE",
"314 142 CURVE",
"314 44 OFFCURVE",
"238 -3 OFFCURVE",
"161 -3 CURVE",
"98 -3 OFFCURVE",
"0 28 OFFCURVE",
"0 86 CURVE",
"0 111 OFFCURVE",
"17 136 OFFCURVE",
"57 136 CURVE",
"124 59 LINE",
"134 56 OFFCURVE",
"148 55 OFFCURVE",
"160 55 CURVE",
"212 55 OFFCURVE",
"255 81 OFFCURVE",
"255 144 CURVE",
"255 262 OFFCURVE",
"106 355 OFFCURVE",
"106 482 CURVE",
"106 592 OFFCURVE",
"182 622 OFFCURVE",
"277 617 CURVE SMOOTH",
"296 616 OFFCURVE",
"300 614 OFFCURVE",
"306 593 CURVE"
);
},
{
closed = 1;
nodes = (
"114 262 LINE",
"85 251 OFFCURVE",
"81 255 OFFCURVE",
"70 269 CURVE",
"56 290 OFFCURVE",
"56 297 OFFCURVE",
"87 306 CURVE",
"291 386 LINE",
"316 396 OFFCURVE",
"324 393 OFFCURVE",
"335 379 CURVE",
"342 370 OFFCURVE",
"345 364 OFFCURVE",
"345 358 CURVE SMOOTH",
"345 349 OFFCURVE",
"338 346 OFFCURVE",
"314 336 CURVE"
);
},
{
closed = 1;
nodes = (
"231 -96 LINE",
"238 -107 OFFCURVE",
"236 -115 OFFCURVE",
"227 -121 CURVE",
"208 -133 LINE",
"197 -140 OFFCURVE",
"189 -139 OFFCURVE",
"181 -127 CURVE",
"78 33 LINE",
"124 58 LINE"
);
}
);
};
layerId = "70F97C4B-94FA-40A4-8E29-E667CA674F9A";
name = Regular;
paths = (
{
closed = 1;
nodes = (
"311 565 OFFCURVE",
"315 550 OFFCURVE",
"296 552 CURVE SMOOTH",
"219 560 OFFCURVE",
"165 544 OFFCURVE",
"165 470 CURVE",
"165 422 OFFCURVE",
"197 381 OFFCURVE",
"235 326 CURVE SMOOTH",
"272 273 OFFCURVE",
"314 206 OFFCURVE",
"314 142 CURVE",
"314 44 OFFCURVE",
"238 -3 OFFCURVE",
"161 -3 CURVE",
"98 -3 OFFCURVE",
"0 28 OFFCURVE",
"0 86 CURVE",
"0 111 OFFCURVE",
"17 136 OFFCURVE",
"57 136 CURVE",
"124 59 LINE",
"134 56 OFFCURVE",
"148 55 OFFCURVE",
"160 55 CURVE",
"212 55 OFFCURVE",
"255 81 OFFCURVE",
"255 144 CURVE",
"255 262 OFFCURVE",
"106 353 OFFCURVE",
"106 472 CURVE",
"106 582 OFFCURVE",
"182 612 OFFCURVE",
"277 607 CURVE SMOOTH",
"296 606 OFFCURVE",
"300 604 OFFCURVE",
"306 583 CURVE"
);
},
{
closed = 1;
nodes = (
"114 262 LINE",
"85 251 OFFCURVE",
"81 255 OFFCURVE",
"70 269 CURVE",
"56 290 OFFCURVE",
"56 297 OFFCURVE",
"87 306 CURVE",
"291 386 LINE",
"316 396 OFFCURVE",
"324 393 OFFCURVE",
"335 379 CURVE",
"342 370 OFFCURVE",
"345 364 OFFCURVE",
"345 358 CURVE SMOOTH",
"345 349 OFFCURVE",
"338 346 OFFCURVE",
"314 336 CURVE"
);
},
{
closed = 1;
nodes = (
"231 -96 LINE",
"238 -107 OFFCURVE",
"236 -115 OFFCURVE",
"227 -121 CURVE",
"208 -133 LINE",
"197 -140 OFFCURVE",
"189 -139 OFFCURVE",
"181 -127 CURVE",
"78 33 LINE",
"124 58 LINE"
);
}
);
width = 355;
}
);
unicode = 0AAB;
},
{
glyphname = gjBa;
lastChange = "2015-09-02 11:06:24 +0000";
layers = (
{
anchors = (
{
name = bottom;
position = "{407, 0}";
},
{
name = top;
position = "{529, 628}";
}
);
guideLines = (
{
angle = 90;
position = "{539, 560}";
},
{
angle = 90;
position = "{407, 560}";
}
);
layerId = "70F97C4B-94FA-40A4-8E29-E667CA674F9A";
name = Regular;
paths = (
{
closed = 1;
nodes = (
"477 579 LINE",
"480 601 OFFCURVE",
"485 607 OFFCURVE",
"499 607 CURVE",
"510 607 OFFCURVE",
"539 600 OFFCURVE",
"539 577 CURVE",
"539 551 OFFCURVE",
"500 224 OFFCURVE",
"466 47 CURVE",
"485 67 OFFCURVE",
"522 108 OFFCURVE",
"532 108 CURVE",
"545 108 OFFCURVE",
"561 82 OFFCURVE",
"561 66 CURVE",
"561 51 OFFCURVE",
"480 0 OFFCURVE",
"440 0 CURVE",
"424 0 OFFCURVE",
"407 12 OFFCURVE",
"407 36 CURVE",
"407 59 OFFCURVE",
"426 180 OFFCURVE",
"435 252 CURVE",
"463 462 LINE"
);
},
{
closed = 1;
nodes = (
"192 594 CURVE",
"208 583 OFFCURVE",
"215 571 OFFCURVE",
"205 560 CURVE SMOOTH",
"142 491 OFFCURVE",
"98 425 OFFCURVE",
"98 329 CURVE",
"98 255 OFFCURVE",
"123 211 OFFCURVE",
"170 211 CURVE",
"227 211 OFFCURVE",
"253 249 OFFCURVE",
"272 305 CURVE",
"233 413 LINE",
"245 435 OFFCURVE",
"265 455 OFFCURVE",
"289 455 CURVE",
"324 455 OFFCURVE",
"339 419 OFFCURVE",
"339 372 CURVE SMOOTH",
"338 281 OFFCURVE",
"287 149 OFFCURVE",
"169 149 CURVE",
"86 149 OFFCURVE",
"35 221 OFFCURVE",
"35 314 CURVE",
"35 446 OFFCURVE",
"96 525 OFFCURVE",
"158 597 CURVE SMOOTH",
"170 611 OFFCURVE",
"180 603 OFFCURVE"
);
},
{
closed = 1;
nodes = (
"307 321 OFFCURVE",
"343 294 OFFCURVE",
"375 294 CURVE SMOOTH",
"427 294 OFFCURVE",
"444 322 OFFCURVE",
"458 423 CURVE",
"497 307 LINE",
"460 250 OFFCURVE",
"415 240 OFFCURVE",
"379 240 CURVE SMOOTH",
"339 240 OFFCURVE",
"295 271 OFFCURVE",
"277 308 CURVE",
"293 352 LINE"
);
}
);
width = 581;
}
);
unicode = 0AAC;
},
{
glyphname = gjBha;
lastChange = "2015-09-02 09:33:05 +0000";
layers = (
{
anchors = (
{
name = bottom;
position = "{426, 0}";
},
{
name = top;
position = "{545, 628}";
}
);
background = {
paths = (
{
closed = 1;
nodes = (
"546 361 OFFCURVE",
"540 364 OFFCURVE",
"511 360 CURVE SMOOTH",
"240 322 LINE SMOOTH",
"209 318 OFFCURVE",
"198 311 OFFCURVE",
"198 288 CURVE SMOOTH",
"198 263 OFFCURVE",
"224 229 OFFCURVE",
"246 194 CURVE SMOOTH",
"253 183 OFFCURVE",
"258 179 OFFCURVE",
"269 177 CURVE SMOOTH",
"279 175 OFFCURVE",
"299 178 OFFCURVE",
"303 191 CURVE",
"309 272 LINE",
"525 304 LINE SMOOTH",
"556 309 OFFCURVE",
"566 317 OFFCURVE",
"556 339 CURVE"
);
},
{
closed = 1;
nodes = (
"444 176 OFFCURVE",
"426 62 OFFCURVE",
"426 36 CURVE",
"426 12 OFFCURVE",
"443 0 OFFCURVE",
"459 0 CURVE",
"499 0 OFFCURVE",
"580 51 OFFCURVE",
"580 66 CURVE",
"580 82 OFFCURVE",
"564 108 OFFCURVE",
"551 108 CURVE",
"541 108 OFFCURVE",
"504 67 OFFCURVE",
"485 47 CURVE",
"548 520 LINE",
"552 552 OFFCURVE",
"555 569 OFFCURVE",
"555 577 CURVE",
"555 600 OFFCURVE",
"529 607 OFFCURVE",
"518 607 CURVE",
"504 607 OFFCURVE",
"499 601 OFFCURVE",
"496 579 CURVE"
);
},
{
closed = 1;
nodes = (
"45 233 OFFCURVE",
"85 132 OFFCURVE",
"151 43 CURVE SMOOTH",
"164 25 OFFCURVE",
"177 25 OFFCURVE",
"193 37 CURVE",
"210 52 OFFCURVE",
"215 58 OFFCURVE",
"200 77 CURVE SMOOTH",
"155 132 OFFCURVE",
"104 232 OFFCURVE",
"104 344 CURVE",
"104 464 OFFCURVE",
"162 546 OFFCURVE",
"220 546 CURVE",
"260 546 OFFCURVE",
"272 494 OFFCURVE",
"263 413 CURVE",
"247 287 LINE",
"308 289 LINE",
"323 423 LINE",
"332 514 OFFCURVE",
"317 552 OFFCURVE",
"292 578 CURVE SMOOTH",
"276 595 OFFCURVE",
"252 605 OFFCURVE",
"224 606 CURVE",
"110 605 OFFCURVE",
"45 476 OFFCURVE",
"45 342 CURVE"
);
}
);
};
guideLines = (
{
angle = 90;
position = "{555, 557}";
},
{
angle = 90;
position = "{426, 557}";
}
);
layerId = "70F97C4B-94FA-40A4-8E29-E667CA674F9A";
name = Regular;
paths = (
{
closed = 1;
nodes = (
"546 361 OFFCURVE",
"540 364 OFFCURVE",
"511 360 CURVE SMOOTH",
"240 322 LINE SMOOTH",
"209 318 OFFCURVE",
"198 311 OFFCURVE",
"198 288 CURVE SMOOTH",
"198 263 OFFCURVE",
"224 229 OFFCURVE",
"246 194 CURVE SMOOTH",
"253 183 OFFCURVE",
"258 179 OFFCURVE",
"269 177 CURVE SMOOTH",
"279 175 OFFCURVE",
"299 178 OFFCURVE",
"303 191 CURVE",
"309 272 LINE",
"525 304 LINE SMOOTH",
"556 309 OFFCURVE",
"566 317 OFFCURVE",
"556 339 CURVE"
);
},
{
closed = 1;
nodes = (
"444 176 OFFCURVE",
"426 62 OFFCURVE",
"426 36 CURVE",
"426 12 OFFCURVE",
"443 0 OFFCURVE",
"459 0 CURVE",
"499 0 OFFCURVE",
"580 51 OFFCURVE",
"580 66 CURVE",
"580 82 OFFCURVE",
"564 108 OFFCURVE",
"551 108 CURVE",
"541 108 OFFCURVE",
"504 67 OFFCURVE",
"485 47 CURVE",
"548 520 LINE",
"552 552 OFFCURVE",
"555 569 OFFCURVE",
"555 577 CURVE",
"555 600 OFFCURVE",
"529 607 OFFCURVE",
"518 607 CURVE",
"504 607 OFFCURVE",
"499 601 OFFCURVE",
"496 579 CURVE"
);
},
{
closed = 1;
nodes = (
"45 233 OFFCURVE",
"85 132 OFFCURVE",
"151 43 CURVE SMOOTH",
"164 25 OFFCURVE",
"177 25 OFFCURVE",
"193 37 CURVE",
"210 52 OFFCURVE",
"215 58 OFFCURVE",
"200 77 CURVE SMOOTH",
"155 132 OFFCURVE",
"104 232 OFFCURVE",
"104 344 CURVE",
"104 464 OFFCURVE",
"162 549 OFFCURVE",
"220 549 CURVE",
"278 549 OFFCURVE",
"275 498 OFFCURVE",
"249 287 CURVE",
"308 289 LINE",
"320 410 LINE",
"337 557 OFFCURVE",
"301 606 OFFCURVE",
"233 606 CURVE",
"110 605 OFFCURVE",
"45 476 OFFCURVE",
"45 342 CURVE"
);
}
);
width = 600;
}
);
unicode = 0AAD;
},
{
glyphname = gjMa;
lastChange = "2015-09-01 12:33:24 +0000";
layers = (
{
anchors = (
{
name = bottom;
position = "{285, 0}";
},
{
name = top;
position = "{404, 628}";
}
);
background = {
paths = (
{
closed = 1;
nodes = (
"390 361 OFFCURVE",
"384 364 OFFCURVE",
"355 360 CURVE SMOOTH",
"79 321 LINE SMOOTH",
"48 317 OFFCURVE",
"37 310 OFFCURVE",
"37 287 CURVE SMOOTH",
"37 262 OFFCURVE",
"63 228 OFFCURVE",
"85 193 CURVE SMOOTH",
"92 182 OFFCURVE",
"97 178 OFFCURVE",
"108 176 CURVE SMOOTH",
"118 174 OFFCURVE",
"138 177 OFFCURVE",
"142 190 CURVE",
"151 276 LINE",
"369 304 LINE SMOOTH",
"400 308 OFFCURVE",
"410 317 OFFCURVE",
"400 339 CURVE"
);
},
{
closed = 1;
nodes = (
"288 176 OFFCURVE",
"270 62 OFFCURVE",
"270 36 CURVE",
"270 12 OFFCURVE",
"287 0 OFFCURVE",
"303 0 CURVE",
"343 0 OFFCURVE",
"424 51 OFFCURVE",
"424 66 CURVE",
"424 82 OFFCURVE",
"408 108 OFFCURVE",
"395 108 CURVE",
"385 108 OFFCURVE",
"348 67 OFFCURVE",
"329 47 CURVE",
"392 520 LINE",
"396 552 OFFCURVE",
"399 569 OFFCURVE",
"399 577 CURVE",
"399 600 OFFCURVE",
"373 607 OFFCURVE",
"362 607 CURVE",
"348 607 OFFCURVE",
"343 601 OFFCURVE",
"340 579 CURVE"
);
},
{
closed = 1;
nodes = (
"161 383 OFFCURVE",
"183 554 OFFCURVE",
"183 574 CURVE",
"184 593 OFFCURVE",
"171 605 OFFCURVE",
"149 605 CURVE",
"118 605 OFFCURVE",
"72 593 OFFCURVE",
"53 583 CURVE SMOOTH",
"47 580 OFFCURVE",
"46 576 OFFCURVE",
"46 571 CURVE",
"46 562 OFFCURVE",
"61 535 OFFCURVE",
"70 535 CURVE",
"79 535 OFFCURVE",
"102 546 OFFCURVE",
"121 554 CURVE",
"91 286 LINE",
"151 288 LINE"
);
}
);
};
guideLines = (
{
angle = 90;
position = "{414, 533}";
},
{
angle = 90;
position = "{285, 533}";
}
);
layerId = "70F97C4B-94FA-40A4-8E29-E667CA674F9A";
name = Regular;
paths = (
{
closed = 1;
nodes = (
"405 363 OFFCURVE",
"399 366 OFFCURVE",
"370 362 CURVE SMOOTH",
"79 321 LINE SMOOTH",
"48 317 OFFCURVE",
"37 310 OFFCURVE",
"37 287 CURVE SMOOTH",
"37 262 OFFCURVE",
"63 228 OFFCURVE",
"85 193 CURVE SMOOTH",
"92 182 OFFCURVE",
"97 178 OFFCURVE",
"108 176 CURVE SMOOTH",
"118 174 OFFCURVE",
"138 177 OFFCURVE",
"142 190 CURVE",
"151 276 LINE",
"384 306 LINE SMOOTH",
"415 310 OFFCURVE",
"425 319 OFFCURVE",
"415 341 CURVE"
);
},
{
closed = 1;
nodes = (
"303 176 OFFCURVE",
"285 62 OFFCURVE",
"285 36 CURVE",
"285 12 OFFCURVE",
"302 0 OFFCURVE",
"318 0 CURVE",
"358 0 OFFCURVE",
"439 51 OFFCURVE",
"439 66 CURVE",
"439 82 OFFCURVE",
"423 108 OFFCURVE",
"410 108 CURVE",
"400 108 OFFCURVE",
"363 67 OFFCURVE",
"344 47 CURVE",
"407 520 LINE",
"411 552 OFFCURVE",
"414 569 OFFCURVE",
"414 577 CURVE",
"414 600 OFFCURVE",
"388 607 OFFCURVE",
"377 607 CURVE",
"363 607 OFFCURVE",
"358 601 OFFCURVE",
"355 579 CURVE"
);
},
{
closed = 1;
nodes = (
"161 383 OFFCURVE",
"183 554 OFFCURVE",
"183 574 CURVE",
"184 593 OFFCURVE",
"171 605 OFFCURVE",
"149 605 CURVE",
"118 605 OFFCURVE",
"72 593 OFFCURVE",
"53 583 CURVE SMOOTH",
"47 580 OFFCURVE",
"46 576 OFFCURVE",
"46 571 CURVE",
"46 562 OFFCURVE",
"61 535 OFFCURVE",
"70 535 CURVE",
"79 535 OFFCURVE",
"102 546 OFFCURVE",
"121 554 CURVE",
"91 286 LINE",
"151 288 LINE"
);
}
);
width = 459;
}
);
unicode = 0AAE;
},
{
color = 10;
glyphname = gjYa;
lastChange = "2015-09-02 12:18:52 +0000";
layers = (
{
anchors = (
{
name = bottom;
position = "{280, 0}";
},
{
name = top;
position = "{402, 628}";
}
);
background = {
paths = (
{
closed = 1;
nodes = (
"93 603 CURVE",
"118 617 OFFCURVE",
"125 616 OFFCURVE",
"148 599 CURVE SMOOTH",
"181 574 OFFCURVE",
"211 535 OFFCURVE",
"211 480 CURVE SMOOTH",
"211 397 OFFCURVE",
"157 359 OFFCURVE",
"88 328 CURVE",
"101 294 OFFCURVE",
"133 269 OFFCURVE",
"178 269 CURVE",
"230 269 OFFCURVE",
"264 291 OFFCURVE",
"289 321 CURVE SMOOTH",
"318 359 OFFCURVE",
"324 380 OFFCURVE",
"335 452 CURVE",
"350 579 LINE",
"353 601 OFFCURVE",
"358 607 OFFCURVE",
"372 607 CURVE",
"383 607 OFFCURVE",
"412 600 OFFCURVE",
"412 577 CURVE",
"412 551 OFFCURVE",
"363 224 OFFCURVE",
"339 47 CURVE",
"358 67 OFFCURVE",
"395 108 OFFCURVE",
"405 108 CURVE",
"418 108 OFFCURVE",
"434 82 OFFCURVE",
"434 66 CURVE",
"434 51 OFFCURVE",
"353 0 OFFCURVE",
"313 0 CURVE",
"297 0 OFFCURVE",
"280 12 OFFCURVE",
"280 36 CURVE",
"280 59 OFFCURVE",
"298 170 OFFCURVE",
"307 242 CURVE",
"314 272 LINE",
"282 232 OFFCURVE",
"234 210 OFFCURVE",
"181 210 CURVE",
"82 210 OFFCURVE",
"28 282 OFFCURVE",
"22 354 CURVE",
"21 364 OFFCURVE",
"28 370 OFFCURVE",
"37 373 CURVE SMOOTH",
"97 393 OFFCURVE",
"150 414 OFFCURVE",
"150 479 CURVE SMOOTH",
"150 522 OFFCURVE",
"122 550 OFFCURVE",
"84 574 CURVE SMOOTH",
"68 584 OFFCURVE",
"69 590 OFFCURVE"
);
},
{
closed = 1;
nodes = (
"93 603 CURVE",
"118 617 OFFCURVE",
"125 616 OFFCURVE",
"148 599 CURVE SMOOTH",
"181 574 OFFCURVE",
"213 535 OFFCURVE",
"211 472 CURVE SMOOTH",
"209 390 OFFCURVE",
"155 349 OFFCURVE",
"86 318 CURVE",
"99 284 OFFCURVE",
"131 258 OFFCURVE",
"182 258 CURVE",
"229 258 OFFCURVE",
"262 281 OFFCURVE",
"287 311 CURVE SMOOTH",
"316 349 OFFCURVE",
"322 370 OFFCURVE",
"335 452 CURVE",
"350 579 LINE",
"353 601 OFFCURVE",
"358 607 OFFCURVE",
"372 607 CURVE",
"383 607 OFFCURVE",
"412 600 OFFCURVE",
"412 577 CURVE",
"412 551 OFFCURVE",
"363 224 OFFCURVE",
"339 47 CURVE",
"358 67 OFFCURVE",
"395 108 OFFCURVE",
"405 108 CURVE",
"418 108 OFFCURVE",
"434 82 OFFCURVE",
"434 66 CURVE",
"434 51 OFFCURVE",
"353 0 OFFCURVE",
"313 0 CURVE",
"297 0 OFFCURVE",
"280 12 OFFCURVE",
"280 36 CURVE",
"280 59 OFFCURVE",
"296 160 OFFCURVE",
"305 232 CURVE",
"311 259 LINE",
"277 225 OFFCURVE",
"234 200 OFFCURVE",
"179 200 CURVE",
"80 200 OFFCURVE",
"26 272 OFFCURVE",
"20 344 CURVE",
"19 354 OFFCURVE",
"26 360 OFFCURVE",
"35 363 CURVE SMOOTH",
"95 383 OFFCURVE",
"148 408 OFFCURVE",
"150 472 CURVE SMOOTH",
"151 522 OFFCURVE",
"122 550 OFFCURVE",
"84 574 CURVE SMOOTH",
"68 584 OFFCURVE",
"69 590 OFFCURVE"
);
}
);
};
guideLines = (
{
angle = 90;
position = "{412, 520}";
},
{
angle = 90;
position = "{280, 520}";
}
);
layerId = "70F97C4B-94FA-40A4-8E29-E667CA674F9A";
name = Regular;
paths = (
{
closed = 1;
nodes = (
"93 603 CURVE",
"109 612 OFFCURVE",
"125 616 OFFCURVE",
"148 599 CURVE SMOOTH",
"181 574 OFFCURVE",
"213 535 OFFCURVE",
"211 472 CURVE SMOOTH",
"209 390 OFFCURVE",
"155 349 OFFCURVE",
"86 318 CURVE",
"99 284 OFFCURVE",
"131 258 OFFCURVE",
"182 258 CURVE",
"229 258 OFFCURVE",
"262 281 OFFCURVE",
"287 311 CURVE SMOOTH",
"316 349 OFFCURVE",
"322 370 OFFCURVE",
"335 452 CURVE",
"350 579 LINE",
"353 601 OFFCURVE",
"358 607 OFFCURVE",
"372 607 CURVE",
"383 607 OFFCURVE",
"412 600 OFFCURVE",
"412 577 CURVE",
"412 551 OFFCURVE",
"363 224 OFFCURVE",
"339 47 CURVE",
"358 67 OFFCURVE",
"395 108 OFFCURVE",
"405 108 CURVE",
"418 108 OFFCURVE",
"434 82 OFFCURVE",
"434 66 CURVE",
"434 51 OFFCURVE",
"353 0 OFFCURVE",
"313 0 CURVE",
"297 0 OFFCURVE",
"280 12 OFFCURVE",
"280 36 CURVE",
"280 59 OFFCURVE",
"296 160 OFFCURVE",
"305 232 CURVE",
"311 259 LINE",
"277 225 OFFCURVE",
"234 200 OFFCURVE",
"179 200 CURVE",
"80 200 OFFCURVE",
"26 272 OFFCURVE",
"20 344 CURVE",
"19 354 OFFCURVE",
"26 360 OFFCURVE",
"35 363 CURVE SMOOTH",
"95 383 OFFCURVE",
"148 408 OFFCURVE",
"150 472 CURVE SMOOTH",
"151 519 OFFCURVE",
"125 546 OFFCURVE",
"90 570 CURVE SMOOTH",
"74 581 OFFCURVE",
"73 591 OFFCURVE"
);
}
);
width = 454;
}
);
unicode = 0AAF;
},
{
glyphname = gjRa;
lastChange = "2015-08-25 10:16:24 +0000";
layers = (
{
anchors = (
{
name = top;
position = "{284, 628}";
}
);
background = {
paths = (
{
closed = 1;
nodes = (
"104 489 OFFCURVE",
"110 494 OFFCURVE",
"129 513 CURVE SMOOTH",
"155 538 OFFCURVE",
"179 552 OFFCURVE",
"208 552 CURVE",
"235 552 OFFCURVE",
"254 531 OFFCURVE",
"254 499 CURVE",
"254 393 OFFCURVE",
"143 320 OFFCURVE",
"89 287 CURVE",
"130 247 LINE",
"220 298 OFFCURVE",
"312 385 OFFCURVE",
"312 500 CURVE",
"312 559 OFFCURVE",
"284 611 OFFCURVE",
"207 611 CURVE",
"166 611 OFFCURVE",
"123 593 OFFCURVE",
"84 552 CURVE SMOOTH",
"68 536 OFFCURVE",
"61 527 OFFCURVE",
"84 507 CURVE"
);
},
{
closed = 1;
nodes = (
"313 43 OFFCURVE",
"299 74 OFFCURVE",
"288 74 CURVE",
"278 74 OFFCURVE",
"264 62 OFFCURVE",
"245 62 CURVE SMOOTH",
"197 62 OFFCURVE",
"168 132 OFFCURVE",
"128 278 CURVE SMOOTH",
"124 292 OFFCURVE",
"121 306 OFFCURVE",
"116 323 CURVE SMOOTH",
"111 339 OFFCURVE",
"103 354 OFFCURVE",
"83 354 CURVE SMOOTH",
"62 354 OFFCURVE",
"25 335 OFFCURVE",
"25 291 CURVE SMOOTH",
"25 251 OFFCURVE",
"54 229 OFFCURVE",
"86 229 CURVE SMOOTH",
"93 229 OFFCURVE",
"100 230 OFFCURVE",
"106 233 CURVE",
"76 266 LINE",
"100 162 OFFCURVE",
"124 98 OFFCURVE",
"152 56 CURVE SMOOTH",
"175 21 OFFCURVE",
"205 4 OFFCURVE",
"245 4 CURVE SMOOTH",
"270 4 OFFCURVE",
"313 16 OFFCURVE",
"313 30 CURVE"
);
}
);
};
layerId = "70F97C4B-94FA-40A4-8E29-E667CA674F9A";
name = Regular;
paths = (
{
closed = 1;
nodes = (
"313 43 OFFCURVE",
"299 74 OFFCURVE",
"288 74 CURVE",
"278 74 OFFCURVE",
"264 62 OFFCURVE",
"245 62 CURVE SMOOTH",
"197 62 OFFCURVE",
"168 132 OFFCURVE",
"128 278 CURVE",
"103 370 LINE",
"54 380 OFFCURVE",
"25 349 OFFCURVE",
"25 316 CURVE SMOOTH",
"25 275 OFFCURVE",
"54 244 OFFCURVE",
"86 229 CURVE",
"106 233 LINE",
"76 266 LINE",
"100 162 OFFCURVE",
"124 98 OFFCURVE",
"152 56 CURVE SMOOTH",
"175 21 OFFCURVE",
"205 4 OFFCURVE",
"245 4 CURVE SMOOTH",
"270 4 OFFCURVE",
"313 16 OFFCURVE",
"313 30 CURVE"
);
},
{
closed = 1;
nodes = (
"107 510 OFFCURVE",
"112 515 OFFCURVE",
"134 532 CURVE SMOOTH",
"157 550 OFFCURVE",
"175 560 OFFCURVE",
"207 560 CURVE",
"237 560 OFFCURVE",
"254 536 OFFCURVE",
"254 494 CURVE",
"254 388 OFFCURVE",
"143 320 OFFCURVE",
"89 287 CURVE",
"130 247 LINE",
"220 298 OFFCURVE",
"312 380 OFFCURVE",
"312 495 CURVE",
"312 564 OFFCURVE",
"284 616 OFFCURVE",
"207 616 CURVE",
"166 616 OFFCURVE",
"135 605 OFFCURVE",
"90 570 CURVE SMOOTH",
"72 556 OFFCURVE",
"69 548 OFFCURVE",
"89 528 CURVE"
);
}
);
width = 328;
}
);
unicode = 0AB0;
},
{
glyphname = gjLa;
lastChange = "2015-09-02 11:07:02 +0000";
layers = (
{
anchors = (
{
name = bottom;
position = "{334, 0}";
},
{
name = top;
position = "{453, 628}";
}
);
background = {
paths = (
{
closed = 1;
nodes = (
"192 605 OFFCURVE",
"204 607 OFFCURVE",
"224 596 CURVE",
"241 587 OFFCURVE",
"244 577 OFFCURVE",
"228 557 CURVE SMOOTH",
"171 485 OFFCURVE",
"104 397 OFFCURVE",
"104 295 CURVE",
"104 188 OFFCURVE",
"158 128 OFFCURVE",
"231 58 CURVE SMOOTH",
"250 40 OFFCURVE",
"247 31 OFFCURVE",
"232 16 CURVE",
"217 -1 OFFCURVE",
"205 -1 OFFCURVE",
"186 17 CURVE SMOOTH",
"108 89 OFFCURVE",
"45 171 OFFCURVE",
"45 289 CURVE",
"45 413 OFFCURVE",
"118 512 OFFCURVE",
"179 587 CURVE SMOOTH"
);
},
{
closed = 1;
nodes = (
"438 314 LINE SMOOTH",
"469 318 OFFCURVE",
"478 327 OFFCURVE",
"469 349 CURVE",
"458 371 OFFCURVE",
"452 375 OFFCURVE",
"424 370 CURVE SMOOTH",
"193 329 LINE",
"162 324 OFFCURVE",
"161 317 OFFCURVE",
"171 295 CURVE",
"179 279 OFFCURVE",
"187 278 OFFCURVE",
"216 283 CURVE"
);
},
{
closed = 1;
nodes = (
"357 176 OFFCURVE",
"339 62 OFFCURVE",
"339 36 CURVE",
"339 12 OFFCURVE",
"356 0 OFFCURVE",
"372 0 CURVE",
"412 0 OFFCURVE",
"493 51 OFFCURVE",
"493 66 CURVE",
"493 82 OFFCURVE",
"477 108 OFFCURVE",
"464 108 CURVE",
"454 108 OFFCURVE",
"417 67 OFFCURVE",
"398 47 CURVE",
"461 520 LINE",
"465 552 OFFCURVE",
"468 569 OFFCURVE",
"468 577 CURVE",
"468 600 OFFCURVE",
"442 607 OFFCURVE",
"431 607 CURVE",
"417 607 OFFCURVE",
"412 601 OFFCURVE",
"409 579 CURVE"
);
}
);
};
guideLines = (
{
angle = 90;
position = "{463, 540}";
},
{
angle = 90;
position = "{334, 540}";
}
);
layerId = "70F97C4B-94FA-40A4-8E29-E667CA674F9A";
name = Regular;
paths = (
{
closed = 1;
nodes = (
"192 605 OFFCURVE",
"204 607 OFFCURVE",
"224 596 CURVE",
"241 587 OFFCURVE",
"244 577 OFFCURVE",
"228 557 CURVE SMOOTH",
"171 485 OFFCURVE",
"104 397 OFFCURVE",
"104 295 CURVE",
"104 188 OFFCURVE",
"158 128 OFFCURVE",
"231 58 CURVE SMOOTH",
"250 40 OFFCURVE",
"247 31 OFFCURVE",
"232 16 CURVE",
"217 -1 OFFCURVE",
"205 -1 OFFCURVE",
"186 17 CURVE SMOOTH",
"108 89 OFFCURVE",
"45 171 OFFCURVE",
"45 289 CURVE",
"45 413 OFFCURVE",
"118 512 OFFCURVE",
"179 587 CURVE SMOOTH"
);
},
{
closed = 1;
nodes = (
"433 314 LINE SMOOTH",
"464 318 OFFCURVE",
"473 327 OFFCURVE",
"464 349 CURVE",
"453 371 OFFCURVE",
"447 375 OFFCURVE",
"419 370 CURVE SMOOTH",
"188 329 LINE",
"157 324 OFFCURVE",
"156 317 OFFCURVE",
"166 295 CURVE",
"174 279 OFFCURVE",
"182 278 OFFCURVE",
"211 283 CURVE"
);
},
{
closed = 1;
nodes = (
"352 176 OFFCURVE",
"334 62 OFFCURVE",
"334 36 CURVE",
"334 12 OFFCURVE",
"351 0 OFFCURVE",
"367 0 CURVE",
"407 0 OFFCURVE",
"488 51 OFFCURVE",
"488 66 CURVE",
"488 82 OFFCURVE",
"472 108 OFFCURVE",
"459 108 CURVE",
"449 108 OFFCURVE",
"412 67 OFFCURVE",
"393 47 CURVE",
"456 520 LINE",
"460 552 OFFCURVE",
"463 569 OFFCURVE",
"463 577 CURVE",
"463 600 OFFCURVE",
"437 607 OFFCURVE",
"426 607 CURVE",
"412 607 OFFCURVE",
"407 601 OFFCURVE",
"404 579 CURVE"
);
}
);
width = 508;
}
);
unicode = 0AB2;
},
{
glyphname = gjLla;
lastChange = "2015-08-25 10:27:47 +0000";
layers = (
{
anchors = (
{
name = bottom;
position = "{394, 0}";
},
{
name = top;
position = "{534, 628}";
}
);
background = {
paths = (
{
closed = 1;
nodes = (
"223 211 OFFCURVE",
"165 211 CURVE",
"123 211 OFFCURVE",
"95 255 OFFCURVE",
"95 319 CURVE",
"95 425 OFFCURVE",
"159 501 OFFCURVE",
"222 560 CURVE SMOOTH",
"233 570 OFFCURVE",
"225 583 OFFCURVE",
"209 594 CURVE",
"197 603 OFFCURVE",
"188 610 OFFCURVE",
"175 597 CURVE SMOOTH",
"113 535 OFFCURVE",
"35 446 OFFCURVE",
"35 314 CURVE",
"35 221 OFFCURVE",
"89 152 OFFCURVE",
"162 152 CURVE",
"275 152 OFFCURVE",
"298 251 OFFCURVE",
"321 352 CURVE",
"348 480 OFFCURVE",
"370 536 OFFCURVE",
"416 536 CURVE",
"454 536 OFFCURVE",
"468 508 OFFCURVE",
"459 423 CURVE",
"436 252 LINE",
"425 180 OFFCURVE",
"404 59 OFFCURVE",
"404 36 CURVE",
"404 12 OFFCURVE",
"421 0 OFFCURVE",
"437 0 CURVE",
"477 0 OFFCURVE",
"558 51 OFFCURVE",
"558 66 CURVE",
"558 82 OFFCURVE",
"542 108 OFFCURVE",
"529 108 CURVE",
"519 108 OFFCURVE",
"482 67 OFFCURVE",
"463 47 CURVE",
"484 154 OFFCURVE",
"503 303 OFFCURVE",
"518 420 CURVE",
"530 527 OFFCURVE",
"506 595 OFFCURVE",
"420 595 CURVE",
"324 595 OFFCURVE",
"294 497 OFFCURVE",
"267 371 CURVE SMOOTH",
"246 274 OFFCURVE"
);
}
);
};
guideLines = (
{
angle = 90;
position = "{394, 197}";
}
);
layerId = "70F97C4B-94FA-40A4-8E29-E667CA674F9A";
name = Regular;
paths = (
{
closed = 1;
nodes = (
"292 552 OFFCURVE",
"257 361 CURVE",
"234 248 OFFCURVE",
"216 211 OFFCURVE",
"165 211 CURVE",
"123 211 OFFCURVE",
"95 255 OFFCURVE",
"95 319 CURVE",
"95 425 OFFCURVE",
"159 501 OFFCURVE",
"222 560 CURVE SMOOTH",
"233 570 OFFCURVE",
"225 583 OFFCURVE",
"209 594 CURVE",
"197 603 OFFCURVE",
"188 610 OFFCURVE",
"175 597 CURVE SMOOTH",
"113 535 OFFCURVE",
"35 446 OFFCURVE",
"35 314 CURVE",
"35 221 OFFCURVE",
"89 152 OFFCURVE",
"162 152 CURVE",
"268 152 OFFCURVE",
"291 239 OFFCURVE",
"308 321 CURVE SMOOTH",
"339 471 OFFCURVE",
"351 536 OFFCURVE",
"406 536 CURVE",
"444 536 OFFCURVE",
"458 508 OFFCURVE",
"449 423 CURVE",
"426 252 LINE",
"415 180 OFFCURVE",
"394 59 OFFCURVE",
"394 36 CURVE",
"394 12 OFFCURVE",
"411 0 OFFCURVE",
"427 0 CURVE",
"467 0 OFFCURVE",
"548 51 OFFCURVE",
"548 66 CURVE",
"548 82 OFFCURVE",
"532 108 OFFCURVE",
"519 108 CURVE",
"509 108 OFFCURVE",
"472 67 OFFCURVE",
"453 47 CURVE",
"474 154 OFFCURVE",
"493 303 OFFCURVE",
"508 420 CURVE",
"520 527 OFFCURVE",
"496 595 OFFCURVE",
"410 595 CURVE",
"330 595 OFFCURVE"
);
}
);
width = 568;
}
);
unicode = 0AB3;
},
{
glyphname = gjVa;
lastChange = "2015-09-02 11:07:18 +0000";
layers = (
{
anchors = (
{
name = bottom;
position = "{248, 0}";
},
{
name = top;
position = "{370, 628}";
}
);
guideLines = (
{
angle = 90;
position = "{380, 576}";
},
{
angle = 90;
position = "{248, 576}";
}
);
layerId = "70F97C4B-94FA-40A4-8E29-E667CA674F9A";
name = Regular;
paths = (
{
closed = 1;
nodes = (
"187 599 OFFCURVE",
"194 592 OFFCURVE",
"207 577 CURVE",
"221 557 OFFCURVE",
"222 548 OFFCURVE",
"205 539 CURVE SMOOTH",
"121 496 OFFCURVE",
"95 436 OFFCURVE",
"95 370 CURVE",
"95 317 OFFCURVE",
"122 279 OFFCURVE",
"164 279 CURVE",
"199 279 OFFCURVE",
"231 301 OFFCURVE",
"256 331 CURVE SMOOTH",
"285 369 OFFCURVE",
"293 390 OFFCURVE",
"304 462 CURVE",
"318 579 LINE",
"321 601 OFFCURVE",
"326 607 OFFCURVE",
"340 607 CURVE",
"351 607 OFFCURVE",
"380 600 OFFCURVE",
"380 577 CURVE",
"380 551 OFFCURVE",
"331 224 OFFCURVE",
"307 47 CURVE",
"326 67 OFFCURVE",
"363 108 OFFCURVE",
"373 108 CURVE",
"386 108 OFFCURVE",
"402 82 OFFCURVE",
"402 66 CURVE",
"402 51 OFFCURVE",
"321 0 OFFCURVE",
"281 0 CURVE",
"265 0 OFFCURVE",
"248 12 OFFCURVE",
"248 36 CURVE",
"248 59 OFFCURVE",
"267 180 OFFCURVE",
"276 252 CURVE",
"283 282 LINE",
"253 246 OFFCURVE",
"206 217 OFFCURVE",
"153 217 CURVE",
"74 217 OFFCURVE",
"35 294 OFFCURVE",
"35 365 CURVE",
"35 474 OFFCURVE",
"96 547 OFFCURVE",
"168 588 CURVE SMOOTH"
);
}
);
width = 422;
}
);
unicode = 0AB5;
},
{
glyphname = gjSha;
lastChange = "2015-09-01 16:14:47 +0000";
layers = (
{
anchors = (
{
name = bottom;
position = "{372, 0}";
},
{
name = top;
position = "{491, 628}";
}
);
guideLines = (
{
angle = 90;
position = "{501, 636}";
},
{
angle = 90;
position = "{372, 636}";
}
);
layerId = "70F97C4B-94FA-40A4-8E29-E667CA674F9A";
name = Regular;
paths = (
{
closed = 1;
nodes = (
"388 176 OFFCURVE",
"372 62 OFFCURVE",
"372 36 CURVE",
"372 12 OFFCURVE",
"389 0 OFFCURVE",
"405 0 CURVE",
"445 0 OFFCURVE",
"526 51 OFFCURVE",
"526 66 CURVE",
"526 82 OFFCURVE",
"510 108 OFFCURVE",
"497 108 CURVE",
"487 108 OFFCURVE",
"450 67 OFFCURVE",
"431 47 CURVE",
"494 520 LINE",
"498 552 OFFCURVE",
"501 569 OFFCURVE",
"501 577 CURVE",
"501 600 OFFCURVE",
"475 607 OFFCURVE",
"464 607 CURVE",
"450 607 OFFCURVE",
"445 601 OFFCURVE",
"442 579 CURVE"
);
},
{
closed = 1;
nodes = (
"95 467 OFFCURVE",
"127 432 OFFCURVE",
"153 411 CURVE SMOOTH",
"167 399 OFFCURVE",
"170 401 OFFCURVE",
"180 409 CURVE",
"200 427 LINE",
"209 435 OFFCURVE",
"209 440 OFFCURVE",
"197 449 CURVE SMOOTH",
"178 464 OFFCURVE",
"154 486 OFFCURVE",
"154 516 CURVE",
"154 544 OFFCURVE",
"175 560 OFFCURVE",
"207 560 CURVE",
"237 560 OFFCURVE",
"254 536 OFFCURVE",
"254 494 CURVE",
"254 388 OFFCURVE",
"149 300 OFFCURVE",
"95 267 CURVE",
"137 223 LINE",
"227 294 OFFCURVE",
"312 384 OFFCURVE",
"312 495 CURVE",
"312 564 OFFCURVE",
"282 616 OFFCURVE",
"207 616 CURVE",
"160 616 OFFCURVE",
"95 594 OFFCURVE",
"95 516 CURVE"
);
},
{
closed = 1;
nodes = (
"313 43 OFFCURVE",
"299 74 OFFCURVE",
"288 74 CURVE",
"278 74 OFFCURVE",
"264 62 OFFCURVE",
"245 62 CURVE SMOOTH",
"197 62 OFFCURVE",
"174 122 OFFCURVE",
"134 258 CURVE",
"109 350 LINE",
"60 360 OFFCURVE",
"31 329 OFFCURVE",
"31 296 CURVE SMOOTH",
"31 255 OFFCURVE",
"60 224 OFFCURVE",
"92 209 CURVE",
"112 213 LINE",
"82 246 LINE",
"106 142 OFFCURVE",
"124 98 OFFCURVE",
"152 56 CURVE SMOOTH",
"175 21 OFFCURVE",
"205 4 OFFCURVE",
"245 4 CURVE SMOOTH",
"270 4 OFFCURVE",
"313 16 OFFCURVE",
"313 30 CURVE"
);
}
);
width = 546;
}
);
unicode = 0AB6;
},
{
glyphname = gjSsa;
lastChange = "2015-08-25 10:28:06 +0000";
layers = (
{
anchors = (
{
name = bottom;
position = "{291, 0}";
},
{
name = top;
position = "{413, 628}";
}
);
guideLines = (
{
angle = 90;
position = "{423, 564}";
},
{
angle = 90;
position = "{291, 564}";
}
);
layerId = "70F97C4B-94FA-40A4-8E29-E667CA674F9A";
name = Regular;
paths = (
{
closed = 1;
nodes = (
"406 108 OFFCURVE",
"369 67 OFFCURVE",
"350 47 CURVE",
"374 224 OFFCURVE",
"423 551 OFFCURVE",
"423 577 CURVE SMOOTH",
"423 600 OFFCURVE",
"394 607 OFFCURVE",
"383 607 CURVE SMOOTH",
"369 607 OFFCURVE",
"364 601 OFFCURVE",
"361 579 CURVE SMOOTH",
"347 462 LINE SMOOTH",
"336 390 OFFCURVE",
"331 369 OFFCURVE",
"302 331 CURVE",
"277 301 OFFCURVE",
"239 279 OFFCURVE",
"202 279 CURVE SMOOTH",
"160 279 OFFCURVE",
"145 298 OFFCURVE",
"145 330 CURVE SMOOTH",
"145 381.323 OFFCURVE",
"157.556 452.995 OFFCURVE",
"166.144 507.696 CURVE",
"309 315 LINE",
"343 355 LINE",
"188 567 LINE",
"170 593 OFFCURVE",
"159 605 OFFCURVE",
"140 605 CURVE SMOOTH",
"109 605 OFFCURVE",
"63 593 OFFCURVE",
"44 583 CURVE SMOOTH",
"38 580 OFFCURVE",
"37 576 OFFCURVE",
"37 571 CURVE SMOOTH",
"37 562 OFFCURVE",
"52 535 OFFCURVE",
"61 535 CURVE SMOOTH",
"70 535 OFFCURVE",
"93 546 OFFCURVE",
"112 554 CURVE",
"99 473 OFFCURVE",
"83 391 OFFCURVE",
"83 328 CURVE SMOOTH",
"83 259 OFFCURVE",
"126 217 OFFCURVE",
"196 217 CURVE SMOOTH",
"249 217 OFFCURVE",
"296 246 OFFCURVE",
"326 282 CURVE",
"319 252 LINE",
"310 180 OFFCURVE",
"291 59 OFFCURVE",
"291 36 CURVE SMOOTH",
"291 12 OFFCURVE",
"308 0 OFFCURVE",
"324 0 CURVE SMOOTH",
"364 0 OFFCURVE",
"445 51 OFFCURVE",
"445 66 CURVE SMOOTH",
"445 82 OFFCURVE",
"429 108 OFFCURVE",
"416 108 CURVE SMOOTH"
);
}
);
width = 465;
}
);
unicode = 0AB7;
},
{
glyphname = gjSa;
lastChange = "2015-09-01 16:04:03 +0000";
layers = (
{
anchors = (
{
name = bottom;
position = "{382, 0}";
},
{
name = top;
position = "{501, 628}";
}
);
background = {
paths = (
{
closed = 1;
nodes = (
"313 43 OFFCURVE",
"299 74 OFFCURVE",
"288 74 CURVE",
"278 74 OFFCURVE",
"264 62 OFFCURVE",
"245 62 CURVE SMOOTH",
"197 62 OFFCURVE",
"168 132 OFFCURVE",
"128 278 CURVE SMOOTH",
"124 292 OFFCURVE",
"121 306 OFFCURVE",
"116 323 CURVE SMOOTH",
"111 339 OFFCURVE",
"103 354 OFFCURVE",
"83 354 CURVE SMOOTH",
"62 354 OFFCURVE",
"25 335 OFFCURVE",
"25 291 CURVE SMOOTH",
"25 251 OFFCURVE",
"54 229 OFFCURVE",
"86 229 CURVE SMOOTH",
"93 229 OFFCURVE",
"100 230 OFFCURVE",
"106 233 CURVE",
"76 266 LINE",
"100 162 OFFCURVE",
"124 98 OFFCURVE",
"152 56 CURVE SMOOTH",
"175 21 OFFCURVE",
"205 4 OFFCURVE",
"245 4 CURVE SMOOTH",
"270 4 OFFCURVE",
"313 16 OFFCURVE",
"313 30 CURVE"
);
},
{
closed = 1;
nodes = (
"441 292 LINE SMOOTH",
"472 296 OFFCURVE",
"481 305 OFFCURVE",
"472 327 CURVE",
"461 349 OFFCURVE",
"455 353 OFFCURVE",
"427 348 CURVE SMOOTH",
"230 312 LINE",
"199 307 OFFCURVE",
"198 300 OFFCURVE",
"208 278 CURVE",
"216 262 OFFCURVE",
"224 261 OFFCURVE",
"253 266 CURVE"
);
},
{
closed = 1;
nodes = (
"400 176 OFFCURVE",
"382 62 OFFCURVE",
"382 36 CURVE",
"382 12 OFFCURVE",
"399 0 OFFCURVE",
"415 0 CURVE",
"455 0 OFFCURVE",
"536 51 OFFCURVE",
"536 66 CURVE",
"536 82 OFFCURVE",
"520 108 OFFCURVE",
"507 108 CURVE",
"497 108 OFFCURVE",
"460 67 OFFCURVE",
"441 47 CURVE",
"504 520 LINE",
"508 552 OFFCURVE",
"511 569 OFFCURVE",
"511 577 CURVE",
"511 600 OFFCURVE",
"485 607 OFFCURVE",
"474 607 CURVE",
"460 607 OFFCURVE",
"455 601 OFFCURVE",
"452 579 CURVE"
);
},
{
closed = 1;
nodes = (
"107 510 OFFCURVE",
"112 515 OFFCURVE",
"134 532 CURVE SMOOTH",
"157 550 OFFCURVE",
"175 560 OFFCURVE",
"207 560 CURVE",
"237 560 OFFCURVE",
"254 536 OFFCURVE",
"254 494 CURVE",
"254 388 OFFCURVE",
"143 320 OFFCURVE",
"89 287 CURVE",
"130 247 LINE",
"220 298 OFFCURVE",
"312 380 OFFCURVE",
"312 495 CURVE",
"312 564 OFFCURVE",
"284 616 OFFCURVE",
"207 616 CURVE",
"166 616 OFFCURVE",
"135 605 OFFCURVE",
"90 570 CURVE SMOOTH",
"72 556 OFFCURVE",
"69 548 OFFCURVE",
"89 528 CURVE"
);
}
);
};
guideLines = (
{
angle = 90;
position = "{511, 468}";
},
{
angle = 90;
position = "{382, 468}";
}
);
layerId = "70F97C4B-94FA-40A4-8E29-E667CA674F9A";
name = Regular;
paths = (
{
closed = 1;
nodes = (
"441 292 LINE SMOOTH",
"472 296 OFFCURVE",
"481 305 OFFCURVE",
"472 327 CURVE",
"461 349 OFFCURVE",
"455 353 OFFCURVE",
"427 348 CURVE SMOOTH",
"230 312 LINE",
"199 307 OFFCURVE",
"198 300 OFFCURVE",
"208 278 CURVE",
"216 262 OFFCURVE",
"224 261 OFFCURVE",
"253 266 CURVE"
);
},
{
closed = 1;
nodes = (
"400 176 OFFCURVE",
"382 62 OFFCURVE",
"382 36 CURVE",
"382 12 OFFCURVE",
"399 0 OFFCURVE",
"415 0 CURVE",
"455 0 OFFCURVE",
"536 51 OFFCURVE",
"536 66 CURVE",
"536 82 OFFCURVE",
"520 108 OFFCURVE",
"507 108 CURVE",
"497 108 OFFCURVE",
"460 67 OFFCURVE",
"441 47 CURVE",
"504 520 LINE",
"508 552 OFFCURVE",
"511 569 OFFCURVE",
"511 577 CURVE",
"511 600 OFFCURVE",
"485 607 OFFCURVE",
"474 607 CURVE",
"460 607 OFFCURVE",
"455 601 OFFCURVE",
"452 579 CURVE"
);
},
{
closed = 1;
nodes = (
"107 510 OFFCURVE",
"112 515 OFFCURVE",
"134 532 CURVE SMOOTH",
"157 550 OFFCURVE",
"175 560 OFFCURVE",
"207 560 CURVE",
"237 560 OFFCURVE",
"254 536 OFFCURVE",
"254 494 CURVE",
"254 388 OFFCURVE",
"143 320 OFFCURVE",
"89 287 CURVE",
"130 247 LINE",
"220 298 OFFCURVE",
"312 380 OFFCURVE",
"312 495 CURVE",
"312 564 OFFCURVE",
"284 616 OFFCURVE",
"207 616 CURVE",
"166 616 OFFCURVE",
"135 605 OFFCURVE",
"90 570 CURVE SMOOTH",
"72 556 OFFCURVE",
"69 548 OFFCURVE",
"89 528 CURVE"
);
},
{
closed = 1;
nodes = (
"313 43 OFFCURVE",
"299 74 OFFCURVE",
"288 74 CURVE",
"278 74 OFFCURVE",
"264 62 OFFCURVE",
"245 62 CURVE SMOOTH",
"197 62 OFFCURVE",
"168 132 OFFCURVE",
"128 278 CURVE",
"103 370 LINE",
"54 380 OFFCURVE",
"25 349 OFFCURVE",
"25 316 CURVE SMOOTH",
"25 275 OFFCURVE",
"54 244 OFFCURVE",
"86 229 CURVE",
"106 233 LINE",
"76 266 LINE",
"100 162 OFFCURVE",
"124 98 OFFCURVE",
"152 56 CURVE SMOOTH",
"175 21 OFFCURVE",
"205 4 OFFCURVE",
"245 4 CURVE SMOOTH",
"270 4 OFFCURVE",
"313 16 OFFCURVE",
"313 30 CURVE"
);
}
);
width = 556;
}
);
unicode = 0AB8;
},
{
glyphname = gjHa;
lastChange = "2015-08-25 10:30:41 +0000";
layers = (
{
anchors = (
{
name = bottom;
position = "{196, 0}";
},
{
name = top;
position = "{294, 628}";
}
);
background = {
paths = (
{
closed = 1;
nodes = (
"332 568 CURVE",
"324 583 LINE",
"317 597 OFFCURVE",
"310 601 OFFCURVE",
"293 595 CURVE SMOOTH",
"204 564 OFFCURVE",
"163 527 OFFCURVE",
"163 463 CURVE",
"163 430 OFFCURVE",
"187 398 OFFCURVE",
"215 378 CURVE SMOOTH",
"247 355 OFFCURVE",
"292 334 OFFCURVE",
"292 303 CURVE",
"292 268 OFFCURVE",
"260 241 OFFCURVE",
"226 213 CURVE SMOOTH",
"209 199 OFFCURVE",
"216 193 OFFCURVE",
"225 185 CURVE",
"237 175 LINE",
"248 165 OFFCURVE",
"255 162 OFFCURVE",
"270 175 CURVE SMOOTH",
"323 223 OFFCURVE",
"350 255 OFFCURVE",
"350 304 CURVE",
"350 353 OFFCURVE",
"309 384 OFFCURVE",
"274 407 CURVE SMOOTH",
"250 423 OFFCURVE",
"223 437 OFFCURVE",
"223 468 CURVE",
"223 493 OFFCURVE",
"247 518 OFFCURVE",
"320 542 CURVE SMOOTH",
"338 548 OFFCURVE",
"339 555 OFFCURVE"
);
},
{
closed = 1;
nodes = (
"158 356 CURVE",
"174 344 LINE",
"186 335 OFFCURVE",
"191 332 OFFCURVE",
"174 317 CURVE SMOOTH",
"129 277 OFFCURVE",
"103 226 OFFCURVE",
"103 171 CURVE SMOOTH",
"103 130 OFFCURVE",
"124 54 OFFCURVE",
"210 55 CURVE SMOOTH",
"281 56 OFFCURVE",
"330 93 OFFCURVE",
"369 177 CURVE SMOOTH",
"376 192 OFFCURVE",
"385 195 OFFCURVE",
"397 186 CURVE",
"411 176 LINE",
"424 167 OFFCURVE",
"430 161 OFFCURVE",
"420 142 CURVE SMOOTH",
"357 22 OFFCURVE",
"279 -4 OFFCURVE",
"204 -4 CURVE SMOOTH",
"92 -4 OFFCURVE",
"45 92 OFFCURVE",
"45 164 CURVE SMOOTH",
"45 245 OFFCURVE",
"80 301 OFFCURVE",
"131 352 CURVE SMOOTH",
"144 365 OFFCURVE",
"148 364 OFFCURVE"
);
}
);
};
layerId = "70F97C4B-94FA-40A4-8E29-E667CA674F9A";
name = Regular;
paths = (
{
closed = 1;
nodes = (
"310 571 CURVE",
"302 586 LINE",
"294 600 OFFCURVE",
"287 604 OFFCURVE",
"270 597 CURVE SMOOTH",
"182 564 OFFCURVE",
"144 526 OFFCURVE",
"144 467 CURVE",
"144 429 OFFCURVE",
"169 398 OFFCURVE",
"198 378 CURVE SMOOTH",
"231 356 OFFCURVE",
"277 336 OFFCURVE",
"277 305 CURVE",
"277 270 OFFCURVE",
"247 243 OFFCURVE",
"213 214 CURVE SMOOTH",
"197 199 OFFCURVE",
"204 193 OFFCURVE",
"213 186 CURVE",
"225 176 LINE",
"237 166 OFFCURVE",
"244 163 OFFCURVE",
"258 177 CURVE SMOOTH",
"310 226 OFFCURVE",
"335 259 OFFCURVE",
"335 308 CURVE",
"335 357 OFFCURVE",
"292 387 OFFCURVE",
"256 409 CURVE SMOOTH",
"232 424 OFFCURVE",
"204 438 OFFCURVE",
"204 469 CURVE",
"204 494 OFFCURVE",
"226 519 OFFCURVE",
"299 545 CURVE SMOOTH",
"316 552 OFFCURVE",
"317 559 OFFCURVE"
);
},
{
closed = 1;
nodes = (
"142 355 CURVE",
"158 343 LINE",
"170 335 OFFCURVE",
"176 333 OFFCURVE",
"159 316 CURVE SMOOTH",
"112 269 OFFCURVE",
"92 225 OFFCURVE",
"92 166 CURVE SMOOTH",
"92 102 OFFCURVE",
"123 53 OFFCURVE",
"197 53 CURVE SMOOTH",
"247 53 OFFCURVE",
"309 71 OFFCURVE",
"357 181 CURVE SMOOTH",
"364 197 OFFCURVE",
"373 197 OFFCURVE",
"385 191 CURVE",
"397 184 LINE",
"410 176 OFFCURVE",
"416 170 OFFCURVE",
"407 151 CURVE SMOOTH",
"335 5 OFFCURVE",
"239 -4 OFFCURVE",
"193 -4 CURVE SMOOTH",
"81 -4 OFFCURVE",
"35 80 OFFCURVE",
"35 166 CURVE SMOOTH",
"35 242 OFFCURVE",
"66 299 OFFCURVE",
"115 350 CURVE SMOOTH",
"127 364 OFFCURVE",
"131 363 OFFCURVE"
);
}
);
width = 435;
}
);
unicode = 0AB9;
},
{
color = 3;
glyphname = gjK;
lastChange = "2015-08-30 07:02:16 +0000";
layers = (
{
anchors = (
{
name = bottom;
position = "{196, 0}";
},
{
name = top;
position = "{294, 628}";
}
);
background = {
paths = (
{
closed = 1;
nodes = (
"120 262 LINE",
"91 251 OFFCURVE",
"85 251 OFFCURVE",
"74 272 CURVE",
"64 293 OFFCURVE",
"68 297 OFFCURVE",
"93 306 CURVE",
"297 386 LINE",
"325 397 OFFCURVE",
"332 397 OFFCURVE",
"343 376 CURVE",
"353 354 OFFCURVE",
"351 348 OFFCURVE",
"316 334 CURVE"
);
},
{
closed = 1;
nodes = (
"316 555 OFFCURVE",
"310 550 OFFCURVE",
"297 550 CURVE SMOOTH",
"290 550 OFFCURVE",
"282 551 OFFCURVE",
"266 551 CURVE SMOOTH",
"202 551 OFFCURVE",
"169 532 OFFCURVE",
"169 480 CURVE",
"169 422 OFFCURVE",
"204 378 OFFCURVE",
"242 323 CURVE SMOOTH",
"279 270 OFFCURVE",
"319 206 OFFCURVE",
"319 142 CURVE",
"319 44 OFFCURVE",
"248 -3 OFFCURVE",
"167 -3 CURVE",
"98 -3 OFFCURVE",
"54 32 OFFCURVE",
"6 92 CURVE SMOOTH",
"-2 102 OFFCURVE",
"-4 113 OFFCURVE",
"14 130 CURVE",
"32 145 OFFCURVE",
"41 142 OFFCURVE",
"51 130 CURVE SMOOTH",
"78 96 OFFCURVE",
"114 55 OFFCURVE",
"166 55 CURVE",
"218 55 OFFCURVE",
"261 81 OFFCURVE",
"261 144 CURVE",
"261 201 OFFCURVE",
"220 257 OFFCURVE",
"181 313 CURVE SMOOTH",
"146 364 OFFCURVE",
"112 416 OFFCURVE",
"112 482 CURVE",
"112 575 OFFCURVE",
"178 609 OFFCURVE",
"264 609 CURVE SMOOTH",
"300 609 OFFCURVE",
"306 606 OFFCURVE",
"312 583 CURVE"
);
},
{
closed = 1;
nodes = (
"120 262 LINE",
"91 256 OFFCURVE",
"82 257 OFFCURVE",
"74 272 CURVE",
"64 293 OFFCURVE",
"68 301 OFFCURVE",
"93 306 CURVE",
"405 370 LINE",
"433 375 OFFCURVE",
"442 375 OFFCURVE",
"451 354 CURVE",
"459 332 OFFCURVE",
"459 325 OFFCURVE",
"424 318 CURVE"
);
},
{
closed = 1;
nodes = (
"435 321 LINE",
"120 262 LINE",
"91 256 OFFCURVE",
"82 257 OFFCURVE",
"74 272 CURVE",
"64 293 OFFCURVE",
"68 301 OFFCURVE",
"93 306 CURVE",
"415 372 LINE",
"428 375 LINE",
"432 365 LINE",
"444 334 LINE",
"448 323 LINE"
);
}
);
};
layerId = "70F97C4B-94FA-40A4-8E29-E667CA674F9A";
name = Regular;
paths = (
{
closed = 1;
nodes = (
"444 328 OFFCURVE",
"442 325 OFFCURVE",
"432 323 CURVE",
"120 262 LINE",
"91 256 OFFCURVE",
"82 257 OFFCURVE",
"74 272 CURVE",
"64 293 OFFCURVE",
"68 301 OFFCURVE",
"93 306 CURVE",
"412 374 LINE",
"422 376 OFFCURVE",
"426 375 OFFCURVE",
"429 367 CURVE",
"441 336 LINE"
);
},
{
closed = 1;
nodes = (
"316 555 OFFCURVE",
"310 550 OFFCURVE",
"297 550 CURVE SMOOTH",
"290 550 OFFCURVE",
"282 551 OFFCURVE",
"266 551 CURVE SMOOTH",
"202 551 OFFCURVE",
"169 532 OFFCURVE",
"169 480 CURVE",
"169 422 OFFCURVE",
"204 378 OFFCURVE",
"242 323 CURVE SMOOTH",
"279 270 OFFCURVE",
"319 206 OFFCURVE",
"319 142 CURVE",
"319 44 OFFCURVE",
"248 -3 OFFCURVE",
"167 -3 CURVE",
"98 -3 OFFCURVE",
"54 32 OFFCURVE",
"6 92 CURVE SMOOTH",
"-2 102 OFFCURVE",
"-4 113 OFFCURVE",
"14 130 CURVE",
"32 145 OFFCURVE",
"41 142 OFFCURVE",
"51 130 CURVE SMOOTH",
"78 96 OFFCURVE",
"114 55 OFFCURVE",
"166 55 CURVE",
"218 55 OFFCURVE",
"261 81 OFFCURVE",
"261 144 CURVE",
"261 201 OFFCURVE",
"220 257 OFFCURVE",
"181 313 CURVE SMOOTH",
"146 364 OFFCURVE",
"112 416 OFFCURVE",
"112 482 CURVE",
"112 575 OFFCURVE",
"178 609 OFFCURVE",
"264 609 CURVE SMOOTH",
"300 609 OFFCURVE",
"306 606 OFFCURVE",
"312 583 CURVE"
);
}
);
width = 341;
}
);
},
{
color = 9;
glyphname = gjK.alt1;
lastChange = "2015-08-30 08:33:28 +0000";
layers = (
{
background = {
paths = (
{
closed = 1;
nodes = (
"444 328 OFFCURVE",
"442 325 OFFCURVE",
"432 323 CURVE",
"120 262 LINE",
"91 256 OFFCURVE",
"82 257 OFFCURVE",
"74 272 CURVE",
"64 293 OFFCURVE",
"68 301 OFFCURVE",
"93 306 CURVE",
"412 374 LINE",
"422 376 OFFCURVE",
"426 375 OFFCURVE",
"429 367 CURVE",
"441 336 LINE"
);
},
{
closed = 1;
nodes = (
"316 555 OFFCURVE",
"310 550 OFFCURVE",
"297 550 CURVE SMOOTH",
"290 550 OFFCURVE",
"282 551 OFFCURVE",
"266 551 CURVE SMOOTH",
"202 551 OFFCURVE",
"169 532 OFFCURVE",
"169 480 CURVE",
"169 422 OFFCURVE",
"204 378 OFFCURVE",
"242 323 CURVE SMOOTH",
"279 270 OFFCURVE",
"319 206 OFFCURVE",
"319 142 CURVE",
"319 44 OFFCURVE",
"248 -3 OFFCURVE",
"167 -3 CURVE",
"98 -3 OFFCURVE",
"54 32 OFFCURVE",
"6 92 CURVE SMOOTH",
"-2 102 OFFCURVE",
"-4 113 OFFCURVE",
"14 130 CURVE",
"32 145 OFFCURVE",
"41 142 OFFCURVE",
"51 130 CURVE SMOOTH",
"78 96 OFFCURVE",
"114 55 OFFCURVE",
"166 55 CURVE",
"218 55 OFFCURVE",
"261 81 OFFCURVE",
"261 144 CURVE",
"261 201 OFFCURVE",
"220 257 OFFCURVE",
"181 313 CURVE SMOOTH",
"146 364 OFFCURVE",
"112 416 OFFCURVE",
"112 482 CURVE",
"112 575 OFFCURVE",
"178 609 OFFCURVE",
"264 609 CURVE SMOOTH",
"300 609 OFFCURVE",
"306 606 OFFCURVE",
"312 583 CURVE"
);
}
);
};
layerId = "70F97C4B-94FA-40A4-8E29-E667CA674F9A";
name = Regular;
paths = (
{
closed = 1;
nodes = (
"578 347 OFFCURVE",
"576 344 OFFCURVE",
"566 342 CURVE",
"120 262 LINE",
"91 256 OFFCURVE",
"82 257 OFFCURVE",
"74 272 CURVE",
"64 293 OFFCURVE",
"68 301 OFFCURVE",
"93 306 CURVE",
"246 334 OFFCURVE",
"492 385 OFFCURVE",
"555 390 CURVE",
"560 390 OFFCURVE",
"561 390 OFFCURVE",
"563 384 CURVE",
"575 355 LINE"
);
},
{
closed = 1;
nodes = (
"316 555 OFFCURVE",
"310 550 OFFCURVE",
"297 550 CURVE SMOOTH",
"290 550 OFFCURVE",
"282 551 OFFCURVE",
"266 551 CURVE SMOOTH",
"202 551 OFFCURVE",
"169 532 OFFCURVE",
"169 480 CURVE",
"169 422 OFFCURVE",
"204 378 OFFCURVE",
"242 323 CURVE SMOOTH",
"279 270 OFFCURVE",
"319 206 OFFCURVE",
"319 142 CURVE",
"319 44 OFFCURVE",
"248 -3 OFFCURVE",
"167 -3 CURVE",
"98 -3 OFFCURVE",
"54 32 OFFCURVE",
"6 92 CURVE SMOOTH",
"-2 102 OFFCURVE",
"-4 113 OFFCURVE",
"14 130 CURVE",
"32 145 OFFCURVE",
"41 142 OFFCURVE",
"51 130 CURVE SMOOTH",
"78 96 OFFCURVE",
"114 55 OFFCURVE",
"166 55 CURVE",
"218 55 OFFCURVE",
"261 81 OFFCURVE",
"261 144 CURVE",
"261 201 OFFCURVE",
"220 257 OFFCURVE",
"181 313 CURVE SMOOTH",
"146 364 OFFCURVE",
"112 416 OFFCURVE",
"112 482 CURVE",
"112 575 OFFCURVE",
"178 609 OFFCURVE",
"264 609 CURVE SMOOTH",
"300 609 OFFCURVE",
"306 606 OFFCURVE",
"312 583 CURVE"
);
}
);
width = 341;
}
);
},
{
color = 9;
glyphname = gjK.alt2;
lastChange = "2015-08-30 08:44:35 +0000";
layers = (
{
background = {
paths = (
{
closed = 1;
nodes = (
"444 328 OFFCURVE",
"442 325 OFFCURVE",
"432 323 CURVE",
"120 262 LINE",
"91 256 OFFCURVE",
"82 257 OFFCURVE",
"74 272 CURVE",
"64 293 OFFCURVE",
"68 301 OFFCURVE",
"93 306 CURVE",
"412 374 LINE",
"422 376 OFFCURVE",
"426 375 OFFCURVE",
"429 367 CURVE",
"441 336 LINE"
);
},
{
closed = 1;
nodes = (
"316 555 OFFCURVE",
"310 550 OFFCURVE",
"297 550 CURVE SMOOTH",
"290 550 OFFCURVE",
"282 551 OFFCURVE",
"266 551 CURVE SMOOTH",
"202 551 OFFCURVE",
"169 532 OFFCURVE",
"169 480 CURVE",
"169 422 OFFCURVE",
"204 378 OFFCURVE",
"242 323 CURVE SMOOTH",
"279 270 OFFCURVE",
"319 206 OFFCURVE",
"319 142 CURVE",
"319 44 OFFCURVE",
"248 -3 OFFCURVE",
"167 -3 CURVE",
"98 -3 OFFCURVE",
"54 32 OFFCURVE",
"6 92 CURVE SMOOTH",
"-2 102 OFFCURVE",
"-4 113 OFFCURVE",
"14 130 CURVE",
"32 145 OFFCURVE",
"41 142 OFFCURVE",
"51 130 CURVE SMOOTH",
"78 96 OFFCURVE",
"114 55 OFFCURVE",
"166 55 CURVE",
"218 55 OFFCURVE",
"261 81 OFFCURVE",
"261 144 CURVE",
"261 201 OFFCURVE",
"220 257 OFFCURVE",
"181 313 CURVE SMOOTH",
"146 364 OFFCURVE",
"112 416 OFFCURVE",
"112 482 CURVE",
"112 575 OFFCURVE",
"178 609 OFFCURVE",
"264 609 CURVE SMOOTH",
"300 609 OFFCURVE",
"306 606 OFFCURVE",
"312 583 CURVE"
);
}
);
};
layerId = "70F97C4B-94FA-40A4-8E29-E667CA674F9A";
name = Regular;
paths = (
{
closed = 1;
nodes = (
"474 285 OFFCURVE",
"472 282 OFFCURVE",
"462 280 CURVE",
"133 230 LINE",
"104 225 OFFCURVE",
"96 226 OFFCURVE",
"87 243 CURVE",
"77 264 OFFCURVE",
"81 272 OFFCURVE",
"106 277 CURVE",
"442 333 LINE",
"452 335 OFFCURVE",
"456 334 OFFCURVE",
"459 326 CURVE",
"471 293 LINE"
);
},
{
closed = 1;
nodes = (
"316 555 OFFCURVE",
"310 550 OFFCURVE",
"297 550 CURVE SMOOTH",
"290 550 OFFCURVE",
"282 551 OFFCURVE",
"266 551 CURVE SMOOTH",
"202 551 OFFCURVE",
"169 532 OFFCURVE",
"169 480 CURVE",
"169 422 OFFCURVE",
"204 378 OFFCURVE",
"242 323 CURVE SMOOTH",
"279 270 OFFCURVE",
"319 206 OFFCURVE",
"319 142 CURVE",
"319 44 OFFCURVE",
"248 -3 OFFCURVE",
"167 -3 CURVE",
"98 -3 OFFCURVE",
"54 32 OFFCURVE",
"6 92 CURVE SMOOTH",
"-2 102 OFFCURVE",
"-4 113 OFFCURVE",
"14 130 CURVE",
"32 145 OFFCURVE",
"41 142 OFFCURVE",
"51 130 CURVE SMOOTH",
"78 96 OFFCURVE",
"114 55 OFFCURVE",
"166 55 CURVE",
"218 55 OFFCURVE",
"261 81 OFFCURVE",
"261 144 CURVE",
"261 201 OFFCURVE",
"220 257 OFFCURVE",
"181 313 CURVE SMOOTH",
"146 364 OFFCURVE",
"112 416 OFFCURVE",
"112 482 CURVE",
"112 575 OFFCURVE",
"178 609 OFFCURVE",
"264 609 CURVE SMOOTH",
"300 609 OFFCURVE",
"306 606 OFFCURVE",
"312 583 CURVE"
);
}
);
width = 341;
}
);
},
{
color = 3;
glyphname = gjKh;
lastChange = "2015-08-30 15:11:28 +0000";
layers = (
{
background = {
paths = (
{
closed = 1;
nodes = (
"337 446 OFFCURVE",
"341 398 OFFCURVE",
"341 365 CURVE SMOOTH",
"341 263 OFFCURVE",
"302 149 OFFCURVE",
"176 149 CURVE",
"121 149 OFFCURVE",
"70 191 OFFCURVE",
"70 284 CURVE",
"70 363 OFFCURVE",
"92 473 OFFCURVE",
"105 554 CURVE",
"86 546 OFFCURVE",
"63 535 OFFCURVE",
"54 535 CURVE",
"45 535 OFFCURVE",
"30 564 OFFCURVE",
"30 573 CURVE",
"30 578 OFFCURVE",
"31 580 OFFCURVE",
"37 583 CURVE SMOOTH",
"56 593 OFFCURVE",
"102 605 OFFCURVE",
"133 605 CURVE",
"155 605 OFFCURVE",
"167 593 OFFCURVE",
"167 574 CURVE",
"167 533 OFFCURVE",
"130 380 OFFCURVE",
"130 279 CURVE",
"130 230 OFFCURVE",
"155 211 OFFCURVE",
"182 211 CURVE",
"251 211 OFFCURVE",
"281 278 OFFCURVE",
"281 362 CURVE SMOOTH",
"281 415 OFFCURVE",
"276 443 OFFCURVE",
"270 470 CURVE",
"264 492 OFFCURVE",
"279 498 OFFCURVE",
"293 498 CURVE",
"324 498 OFFCURVE",
"330 491 OFFCURVE",
"334 468 CURVE"
);
},
{
closed = 1;
nodes = (
"313 321 OFFCURVE",
"349 294 OFFCURVE",
"381 294 CURVE SMOOTH",
"406 294 OFFCURVE",
"431 297 OFFCURVE",
"451 313 CURVE",
"475 260 LINE",
"445 243 OFFCURVE",
"412 240 OFFCURVE",
"385 240 CURVE SMOOTH",
"345 240 OFFCURVE",
"301 271 OFFCURVE",
"283 308 CURVE",
"299 352 LINE"
);
}
);
};
layerId = "70F97C4B-94FA-40A4-8E29-E667CA674F9A";
name = Regular;
paths = (
{
closed = 1;
nodes = (
"337 446 OFFCURVE",
"341 398 OFFCURVE",
"341 365 CURVE SMOOTH",
"341 263 OFFCURVE",
"302 149 OFFCURVE",
"176 149 CURVE",
"121 149 OFFCURVE",
"70 191 OFFCURVE",
"70 284 CURVE",
"70 363 OFFCURVE",
"92 473 OFFCURVE",
"105 554 CURVE",
"86 546 OFFCURVE",
"63 535 OFFCURVE",
"54 535 CURVE",
"45 535 OFFCURVE",
"30 564 OFFCURVE",
"30 573 CURVE",
"30 578 OFFCURVE",
"31 580 OFFCURVE",
"37 583 CURVE SMOOTH",
"56 593 OFFCURVE",
"102 605 OFFCURVE",
"133 605 CURVE",
"155 605 OFFCURVE",
"167 593 OFFCURVE",
"167 574 CURVE",
"167 533 OFFCURVE",
"130 380 OFFCURVE",
"130 279 CURVE",
"130 230 OFFCURVE",
"155 211 OFFCURVE",
"182 211 CURVE",
"251 211 OFFCURVE",
"281 278 OFFCURVE",
"281 362 CURVE SMOOTH",
"281 415 OFFCURVE",
"276 443 OFFCURVE",
"270 470 CURVE",
"264 492 OFFCURVE",
"279 498 OFFCURVE",
"293 498 CURVE",
"324 498 OFFCURVE",
"330 491 OFFCURVE",
"334 468 CURVE"
);
},
{
closed = 1;
nodes = (
"313 321 OFFCURVE",
"344 294 OFFCURVE",
"385 294 CURVE SMOOTH",
"402 294 OFFCURVE",
"421 297 OFFCURVE",
"433 302 CURVE SMOOTH",
"447 308 OFFCURVE",
"453 307 OFFCURVE",
"459 294 CURVE",
"467 277 LINE",
"472 265 OFFCURVE",
"473 257 OFFCURVE",
"458 252 CURVE SMOOTH",
"432 243 OFFCURVE",
"407 240 OFFCURVE",
"390 240 CURVE SMOOTH",
"345 240 OFFCURVE",
"301 271 OFFCURVE",
"283 308 CURVE",
"299 352 LINE"
);
}
);
width = 378;
}
);
},
{
color = 9;
glyphname = gjKh.alt1;
lastChange = "2015-08-30 15:16:47 +0000";
layers = (
{
background = {
paths = (
{
closed = 1;
nodes = (
"337 446 OFFCURVE",
"341 398 OFFCURVE",
"341 365 CURVE SMOOTH",
"341 263 OFFCURVE",
"302 149 OFFCURVE",
"176 149 CURVE",
"121 149 OFFCURVE",
"70 191 OFFCURVE",
"70 284 CURVE",
"70 363 OFFCURVE",
"92 473 OFFCURVE",
"105 554 CURVE",
"86 546 OFFCURVE",
"63 535 OFFCURVE",
"54 535 CURVE",
"45 535 OFFCURVE",
"30 564 OFFCURVE",
"30 573 CURVE",
"30 578 OFFCURVE",
"31 580 OFFCURVE",
"37 583 CURVE SMOOTH",
"56 593 OFFCURVE",
"102 605 OFFCURVE",
"133 605 CURVE",
"155 605 OFFCURVE",
"167 593 OFFCURVE",
"167 574 CURVE",
"167 533 OFFCURVE",
"130 380 OFFCURVE",
"130 279 CURVE",
"130 230 OFFCURVE",
"155 211 OFFCURVE",
"182 211 CURVE",
"251 211 OFFCURVE",
"281 278 OFFCURVE",
"281 362 CURVE SMOOTH",
"281 415 OFFCURVE",
"276 443 OFFCURVE",
"270 470 CURVE",
"264 492 OFFCURVE",
"279 498 OFFCURVE",
"293 498 CURVE",
"324 498 OFFCURVE",
"330 491 OFFCURVE",
"334 468 CURVE"
);
},
{
closed = 1;
nodes = (
"313 321 OFFCURVE",
"349 304 OFFCURVE",
"381 304 CURVE SMOOTH",
"426 304 OFFCURVE",
"454 325 OFFCURVE",
"473 379 CURVE",
"531 358 LINE",
"497 284 OFFCURVE",
"452 250 OFFCURVE",
"384 250 CURVE SMOOTH",
"351 250 OFFCURVE",
"311 266 OFFCURVE",
"283 303 CURVE",
"299 352 LINE"
);
}
);
};
layerId = "70F97C4B-94FA-40A4-8E29-E667CA674F9A";
name = Regular;
paths = (
{
closed = 1;
nodes = (
"337 446 OFFCURVE",
"341 398 OFFCURVE",
"341 365 CURVE SMOOTH",
"341 263 OFFCURVE",
"302 149 OFFCURVE",
"176 149 CURVE",
"121 149 OFFCURVE",
"70 191 OFFCURVE",
"70 284 CURVE",
"70 363 OFFCURVE",
"92 473 OFFCURVE",
"105 554 CURVE",
"86 546 OFFCURVE",
"63 535 OFFCURVE",
"54 535 CURVE",
"45 535 OFFCURVE",
"30 564 OFFCURVE",
"30 573 CURVE",
"30 578 OFFCURVE",
"31 580 OFFCURVE",
"37 583 CURVE SMOOTH",
"56 593 OFFCURVE",
"102 605 OFFCURVE",
"133 605 CURVE",
"155 605 OFFCURVE",
"167 593 OFFCURVE",
"167 574 CURVE",
"167 533 OFFCURVE",
"130 380 OFFCURVE",
"130 279 CURVE",
"130 230 OFFCURVE",
"155 211 OFFCURVE",
"182 211 CURVE",
"251 211 OFFCURVE",
"281 278 OFFCURVE",
"281 362 CURVE SMOOTH",
"281 415 OFFCURVE",
"276 443 OFFCURVE",
"270 470 CURVE",
"264 492 OFFCURVE",
"279 498 OFFCURVE",
"293 498 CURVE",
"324 498 OFFCURVE",
"330 491 OFFCURVE",
"334 468 CURVE"
);
},
{
closed = 1;
nodes = (
"313 321 OFFCURVE",
"349 304 OFFCURVE",
"381 304 CURVE SMOOTH",
"418 304 OFFCURVE",
"445 320 OFFCURVE",
"463 355 CURVE SMOOTH",
"474 377 OFFCURVE",
"480 376 OFFCURVE",
"497 370 CURVE",
"508 366 LINE",
"527 359 OFFCURVE",
"530 354 OFFCURVE",
"520 336 CURVE SMOOTH",
"487 277 OFFCURVE",
"445 250 OFFCURVE",
"384 250 CURVE SMOOTH",
"351 250 OFFCURVE",
"311 266 OFFCURVE",
"283 303 CURVE",
"299 352 LINE"
);
}
);
width = 378;
}
);
},
{
color = 9;
glyphname = gjKh.alt2;
lastChange = "2015-08-30 15:12:25 +0000";
layers = (
{
background = {
paths = (
{
closed = 1;
nodes = (
"337 446 OFFCURVE",
"341 398 OFFCURVE",
"341 365 CURVE SMOOTH",
"341 263 OFFCURVE",
"302 149 OFFCURVE",
"176 149 CURVE",
"121 149 OFFCURVE",
"70 191 OFFCURVE",
"70 284 CURVE",
"70 363 OFFCURVE",
"92 473 OFFCURVE",
"105 554 CURVE",
"86 546 OFFCURVE",
"63 535 OFFCURVE",
"54 535 CURVE",
"45 535 OFFCURVE",
"30 564 OFFCURVE",
"30 573 CURVE",
"30 578 OFFCURVE",
"31 580 OFFCURVE",
"37 583 CURVE SMOOTH",
"56 593 OFFCURVE",
"102 605 OFFCURVE",
"133 605 CURVE",
"155 605 OFFCURVE",
"167 593 OFFCURVE",
"167 574 CURVE",
"167 533 OFFCURVE",
"130 380 OFFCURVE",
"130 279 CURVE",
"130 230 OFFCURVE",
"155 211 OFFCURVE",
"182 211 CURVE",
"251 211 OFFCURVE",
"281 278 OFFCURVE",
"281 362 CURVE SMOOTH",
"281 415 OFFCURVE",
"276 443 OFFCURVE",
"270 470 CURVE",
"264 492 OFFCURVE",
"279 498 OFFCURVE",
"293 498 CURVE",
"324 498 OFFCURVE",
"330 491 OFFCURVE",
"334 468 CURVE"
);
},
{
closed = 1;
nodes = (
"329 331 OFFCURVE",
"376 307 OFFCURVE",
"425 308 CURVE SMOOTH",
"471 309 OFFCURVE",
"505 325 OFFCURVE",
"539 357 CURVE",
"573 316 LINE",
"519 269 OFFCURVE",
"468 257 OFFCURVE",
"422 257 CURVE SMOOTH",
"373 257 OFFCURVE",
"316 280 OFFCURVE",
"283 323 CURVE",
"299 372 LINE"
);
}
);
};
layerId = "70F97C4B-94FA-40A4-8E29-E667CA674F9A";
name = Regular;
paths = (
{
closed = 1;
nodes = (
"337 446 OFFCURVE",
"341 398 OFFCURVE",
"341 365 CURVE SMOOTH",
"341 263 OFFCURVE",
"302 149 OFFCURVE",
"176 149 CURVE",
"121 149 OFFCURVE",
"70 191 OFFCURVE",
"70 284 CURVE",
"70 363 OFFCURVE",
"92 473 OFFCURVE",
"105 554 CURVE",
"86 546 OFFCURVE",
"63 535 OFFCURVE",
"54 535 CURVE",
"45 535 OFFCURVE",
"30 564 OFFCURVE",
"30 573 CURVE",
"30 578 OFFCURVE",
"31 580 OFFCURVE",
"37 583 CURVE SMOOTH",
"56 593 OFFCURVE",
"102 605 OFFCURVE",
"133 605 CURVE",
"155 605 OFFCURVE",
"167 593 OFFCURVE",
"167 574 CURVE",
"167 533 OFFCURVE",
"130 380 OFFCURVE",
"130 279 CURVE",
"130 230 OFFCURVE",
"155 211 OFFCURVE",
"182 211 CURVE",
"251 211 OFFCURVE",
"281 278 OFFCURVE",
"281 362 CURVE SMOOTH",
"281 415 OFFCURVE",
"276 443 OFFCURVE",
"270 470 CURVE",
"264 492 OFFCURVE",
"279 498 OFFCURVE",
"293 498 CURVE",
"324 498 OFFCURVE",
"330 491 OFFCURVE",
"334 468 CURVE"
);
},
{
closed = 1;
nodes = (
"329 331 OFFCURVE",
"376 307 OFFCURVE",
"425 308 CURVE SMOOTH",
"464 309 OFFCURVE",
"495 320 OFFCURVE",
"523 343 CURVE SMOOTH",
"539 356 OFFCURVE",
"544 351 OFFCURVE",
"552 341 CURVE",
"560 331 LINE",
"570 318 OFFCURVE",
"570 312 OFFCURVE",
"556 302 CURVE SMOOTH",
"510 269 OFFCURVE",
"463 257 OFFCURVE",
"422 257 CURVE SMOOTH",
"373 257 OFFCURVE",
"316 280 OFFCURVE",
"283 323 CURVE",
"299 372 LINE"
);
}
);
width = 374;
}
);
},
{
color = 3;
glyphname = gjG;
lastChange = "2015-08-30 08:03:40 +0000";
layers = (
{
layerId = "70F97C4B-94FA-40A4-8E29-E667CA674F9A";
name = Regular;
paths = (
{
closed = 1;
nodes = (
"92 522 OFFCURVE",
"99 522 OFFCURVE",
"116 533 CURVE SMOOTH",
"135 546 OFFCURVE",
"149 552 OFFCURVE",
"165 552 CURVE SMOOTH",
"200 552 OFFCURVE",
"220 521 OFFCURVE",
"220 457 CURVE",
"220 350 OFFCURVE",
"178 272 OFFCURVE",
"122 272 CURVE SMOOTH",
"98 272 OFFCURVE",
"84 286 OFFCURVE",
"66 304 CURVE SMOOTH",
"54 316 OFFCURVE",
"47 322 OFFCURVE",
"31 306 CURVE",
"17 292 OFFCURVE",
"9 280 OFFCURVE",
"22 265 CURVE SMOOTH",
"50 232 OFFCURVE",
"78 213 OFFCURVE",
"120 213 CURVE SMOOTH",
"235 213 OFFCURVE",
"279 341 OFFCURVE",
"279 460 CURVE",
"279 539 OFFCURVE",
"251 611 OFFCURVE",
"170 611 CURVE",
"133 611 OFFCURVE",
"103 599 OFFCURVE",
"77 579 CURVE SMOOTH",
"62 567 OFFCURVE",
"60 555 OFFCURVE",
"76 539 CURVE"
);
}
);
width = 299;
}
);
},
{
color = 3;
glyphname = gjGh;
lastChange = "2015-09-02 12:52:09 +0000";
layers = (
{
background = {
paths = (
{
closed = 1;
nodes = (
"192 439 OFFCURVE",
"200 434 OFFCURVE",
"210 416 CURVE",
"219 400 OFFCURVE",
"225 386 OFFCURVE",
"203 379 CURVE SMOOTH",
"147 362 OFFCURVE",
"105 338 OFFCURVE",
"105 299 CURVE",
"105 264 OFFCURVE",
"130 238 OFFCURVE",
"173 238 CURVE",
"224 238 OFFCURVE",
"269 260 OFFCURVE",
"294 290 CURVE",
"321 241 LINE",
"286 203 OFFCURVE",
"234 180 OFFCURVE",
"167 180 CURVE",
"98 180 OFFCURVE",
"46 228 OFFCURVE",
"46 297 CURVE",
"46 352 OFFCURVE",
"73 398 OFFCURVE",
"173 432 CURVE SMOOTH"
);
},
{
closed = 1;
nodes = (
"185 612 OFFCURVE",
"200 611 OFFCURVE",
"212 606 CURVE SMOOTH",
"227 600 OFFCURVE",
"231 572 OFFCURVE",
"231 565 CURVE SMOOTH",
"231 557 OFFCURVE",
"228 553 OFFCURVE",
"221 553 CURVE SMOOTH",
"213 553 OFFCURVE",
"197 557 OFFCURVE",
"176 557 CURVE SMOOTH",
"130 557 OFFCURVE",
"96 543 OFFCURVE",
"96 501 CURVE",
"96 450 OFFCURVE",
"127 419 OFFCURVE",
"152 387 CURVE",
"99 353 LINE",
"76 391 OFFCURVE",
"37 430 OFFCURVE",
"37 498 CURVE",
"37 575 OFFCURVE",
"88 612 OFFCURVE",
"174 612 CURVE SMOOTH"
);
},
{
closed = 1;
nodes = (
"192 439 OFFCURVE",
"200 434 OFFCURVE",
"210 416 CURVE",
"219 400 OFFCURVE",
"225 386 OFFCURVE",
"203 379 CURVE SMOOTH",
"147 362 OFFCURVE",
"105 338 OFFCURVE",
"105 299 CURVE",
"105 264 OFFCURVE",
"130 238 OFFCURVE",
"173 238 CURVE",
"251 238 OFFCURVE",
"296 282 OFFCURVE",
"331 310 CURVE",
"362 261 LINE",
"327 233 OFFCURVE",
"264 180 OFFCURVE",
"167 180 CURVE",
"98 180 OFFCURVE",
"46 228 OFFCURVE",
"46 297 CURVE",
"46 352 OFFCURVE",
"73 398 OFFCURVE",
"173 432 CURVE SMOOTH"
);
},
{
closed = 1;
nodes = (
"185 612 OFFCURVE",
"200 611 OFFCURVE",
"212 606 CURVE SMOOTH",
"227 600 OFFCURVE",
"231 572 OFFCURVE",
"231 565 CURVE SMOOTH",
"231 557 OFFCURVE",
"228 553 OFFCURVE",
"221 553 CURVE SMOOTH",
"213 553 OFFCURVE",
"197 557 OFFCURVE",
"176 557 CURVE SMOOTH",
"130 557 OFFCURVE",
"96 543 OFFCURVE",
"96 501 CURVE",
"96 450 OFFCURVE",
"127 419 OFFCURVE",
"152 387 CURVE",
"99 353 LINE",
"76 391 OFFCURVE",
"37 430 OFFCURVE",
"37 498 CURVE",
"37 575 OFFCURVE",
"88 612 OFFCURVE",
"174 612 CURVE SMOOTH"
);
}
);
};
layerId = "70F97C4B-94FA-40A4-8E29-E667CA674F9A";
name = Regular;
paths = (
{
closed = 1;
nodes = (
"192 439 OFFCURVE",
"200 434 OFFCURVE",
"210 416 CURVE",
"219 400 OFFCURVE",
"225 386 OFFCURVE",
"203 379 CURVE SMOOTH",
"147 362 OFFCURVE",
"105 338 OFFCURVE",
"105 299 CURVE",
"105 264 OFFCURVE",
"130 238 OFFCURVE",
"173 238 CURVE",
"243 238 OFFCURVE",
"287 274 OFFCURVE",
"320 301 CURVE SMOOTH",
"331 310 OFFCURVE",
"337 301 OFFCURVE",
"342 293 CURVE",
"351 278 LINE",
"357 268 OFFCURVE",
"361 260 OFFCURVE",
"353 254 CURVE SMOOTH",
"315 225 OFFCURVE",
"256 180 OFFCURVE",
"167 180 CURVE",
"98 180 OFFCURVE",
"46 228 OFFCURVE",
"46 297 CURVE",
"46 352 OFFCURVE",
"73 398 OFFCURVE",
"173 432 CURVE SMOOTH"
);
},
{
closed = 1;
nodes = (
"185 612 OFFCURVE",
"200 611 OFFCURVE",
"212 606 CURVE SMOOTH",
"227 600 OFFCURVE",
"231 572 OFFCURVE",
"231 565 CURVE SMOOTH",
"231 557 OFFCURVE",
"228 553 OFFCURVE",
"221 553 CURVE SMOOTH",
"213 553 OFFCURVE",
"197 557 OFFCURVE",
"176 557 CURVE SMOOTH",
"130 557 OFFCURVE",
"96 543 OFFCURVE",
"96 501 CURVE",
"96 450 OFFCURVE",
"127 419 OFFCURVE",
"152 387 CURVE",
"99 353 LINE",
"76 391 OFFCURVE",
"37 430 OFFCURVE",
"37 498 CURVE",
"37 575 OFFCURVE",
"88 612 OFFCURVE",
"174 612 CURVE SMOOTH"
);
}
);
width = 262;
}
);
},
{
color = 3;
glyphname = gjC;
lastChange = "2015-09-02 12:42:54 +0000";
layers = (
{
background = {
paths = (
{
closed = 1;
nodes = (
"94 510 OFFCURVE",
"101 513 OFFCURVE",
"123 529 CURVE SMOOTH",
"144 544 OFFCURVE",
"156 546 OFFCURVE",
"175 546 CURVE",
"212 546 OFFCURVE",
"242 513 OFFCURVE",
"242 462 CURVE",
"242 392 OFFCURVE",
"198 359 OFFCURVE",
"129 329 CURVE",
"80 408 LINE",
"41 409 OFFCURVE",
"15 382 OFFCURVE",
"15 351 CURVE SMOOTH",
"15 302 OFFCURVE",
"53 263 OFFCURVE",
"114 265 CURVE",
"148 276 LINE",
"237 314 OFFCURVE",
"300 361 OFFCURVE",
"300 465 CURVE",
"300 531 OFFCURVE",
"262 603 OFFCURVE",
"175 603 CURVE",
"134 603 OFFCURVE",
"103 590 OFFCURVE",
"77 569 CURVE SMOOTH",
"59 554 OFFCURVE",
"58 541 OFFCURVE",
"79 523 CURVE"
);
},
{
closed = 1;
nodes = (
"89 277 LINE",
"139 213 OFFCURVE",
"190 168 OFFCURVE",
"268 168 CURVE SMOOTH",
"325 168 OFFCURVE",
"371 192 OFFCURVE",
"403 227 CURVE",
"402 314 LINE",
"379 270 OFFCURVE",
"335 227 OFFCURVE",
"267 227 CURVE SMOOTH",
"201 227 OFFCURVE",
"170 267 OFFCURVE",
"131 327 CURVE"
);
},
{
closed = 1;
nodes = (
"94 510 OFFCURVE",
"101 513 OFFCURVE",
"123 529 CURVE SMOOTH",
"144 544 OFFCURVE",
"156 546 OFFCURVE",
"175 546 CURVE",
"212 546 OFFCURVE",
"242 513 OFFCURVE",
"242 462 CURVE",
"242 392 OFFCURVE",
"198 359 OFFCURVE",
"129 329 CURVE",
"80 408 LINE",
"41 409 OFFCURVE",
"15 382 OFFCURVE",
"15 351 CURVE SMOOTH",
"15 302 OFFCURVE",
"53 263 OFFCURVE",
"114 265 CURVE",
"148 276 LINE",
"237 314 OFFCURVE",
"300 361 OFFCURVE",
"300 465 CURVE",
"300 531 OFFCURVE",
"262 603 OFFCURVE",
"175 603 CURVE",
"134 603 OFFCURVE",
"103 590 OFFCURVE",
"77 569 CURVE SMOOTH",
"59 554 OFFCURVE",
"58 541 OFFCURVE",
"79 523 CURVE"
);
},
{
closed = 1;
nodes = (
"92 274 LINE",
"142 210 OFFCURVE",
"190 163 OFFCURVE",
"268 168 CURVE SMOOTH",
"343 173 OFFCURVE",
"389 216 OFFCURVE",
"443 275 CURVE",
"395 319 LINE",
"356 266 OFFCURVE",
"323 232 OFFCURVE",
"267 227 CURVE SMOOTH",
"201 221 OFFCURVE",
"170 267 OFFCURVE",
"131 327 CURVE"
);
}
);
};
layerId = "70F97C4B-94FA-40A4-8E29-E667CA674F9A";
name = Regular;
paths = (
{
closed = 1;
nodes = (
"94 510 OFFCURVE",
"101 513 OFFCURVE",
"123 529 CURVE SMOOTH",
"144 544 OFFCURVE",
"156 546 OFFCURVE",
"175 546 CURVE",
"212 546 OFFCURVE",
"242 513 OFFCURVE",
"242 462 CURVE",
"242 392 OFFCURVE",
"198 359 OFFCURVE",
"129 329 CURVE",
"80 408 LINE",
"41 409 OFFCURVE",
"15 382 OFFCURVE",
"15 351 CURVE SMOOTH",
"15 302 OFFCURVE",
"53 263 OFFCURVE",
"114 265 CURVE",
"148 276 LINE",
"237 314 OFFCURVE",
"300 361 OFFCURVE",
"300 465 CURVE",
"300 531 OFFCURVE",
"262 603 OFFCURVE",
"175 603 CURVE",
"134 603 OFFCURVE",
"103 590 OFFCURVE",
"77 569 CURVE SMOOTH",
"59 554 OFFCURVE",
"58 541 OFFCURVE",
"79 523 CURVE"
);
},
{
closed = 1;
nodes = (
"92 274 LINE",
"142 210 OFFCURVE",
"190 163 OFFCURVE",
"268 168 CURVE SMOOTH",
"337 173 OFFCURVE",
"382 208 OFFCURVE",
"430 261 CURVE SMOOTH",
"440 272 OFFCURVE",
"437 281 OFFCURVE",
"424 293 CURVE",
"413 303 LINE",
"403 312 OFFCURVE",
"393 315 OFFCURVE",
"383 303 CURVE SMOOTH",
"370 287 OFFCURVE",
"329 232 OFFCURVE",
"267 227 CURVE SMOOTH",
"201 221 OFFCURVE",
"170 267 OFFCURVE",
"131 327 CURVE"
);
}
);
width = 325;
}
);
},
{
color = 3;
glyphname = gjNn;
lastChange = "2015-09-01 14:21:17 +0000";
layers = (
{
layerId = "70F97C4B-94FA-40A4-8E29-E667CA674F9A";
name = Regular;
paths = (
{
closed = 1;
nodes = (
"244 508 OFFCURVE",
"247 516 OFFCURVE",
"269 532 CURVE SMOOTH",
"290 547 OFFCURVE",
"301 549 OFFCURVE",
"310 549 CURVE",
"337 549 OFFCURVE",
"357 516 OFFCURVE",
"357 452 CURVE",
"357 370 OFFCURVE",
"320 292 OFFCURVE",
"269 292 CURVE SMOOTH",
"241 292 OFFCURVE",
"231 308 OFFCURVE",
"207 335 CURVE SMOOTH",
"192 352 OFFCURVE",
"186 349 OFFCURVE",
"172 333 CURVE",
"158 319 OFFCURVE",
"151 312 OFFCURVE",
"164 294 CURVE SMOOTH",
"191 257 OFFCURVE",
"225 231 OFFCURVE",
"261 231 CURVE SMOOTH",
"375 231 OFFCURVE",
"415 361 OFFCURVE",
"415 455 CURVE",
"415 534 OFFCURVE",
"387 606 OFFCURVE",
"310 606 CURVE",
"279 606 OFFCURVE",
"250 592 OFFCURVE",
"224 571 CURVE SMOOTH",
"206 556 OFFCURVE",
"201 546 OFFCURVE",
"224 526 CURVE"
);
},
{
closed = 1;
nodes = (
"195 88 OFFCURVE",
"283 33 OFFCURVE",
"324 -10 CURVE",
"302 -32 OFFCURVE",
"273 -39 OFFCURVE",
"257 -46 CURVE SMOOTH",
"239 -55 OFFCURVE",
"242 -61 OFFCURVE",
"257 -78 CURVE SMOOTH",
"269 -90 OFFCURVE",
"271 -100 OFFCURVE",
"296 -92 CURVE SMOOTH",
"327 -80 OFFCURVE",
"377 -44 OFFCURVE",
"377 -4 CURVE SMOOTH",
"377 24 OFFCURVE",
"364 40 OFFCURVE",
"329 66 CURVE",
"156 191 LINE",
"107 227 OFFCURVE",
"98 245 OFFCURVE",
"107 313 CURVE",
"136 520 LINE",
"140 552 OFFCURVE",
"143 569 OFFCURVE",
"143 577 CURVE",
"143 600 OFFCURVE",
"117 607 OFFCURVE",
"106 607 CURVE",
"92 607 OFFCURVE",
"87 601 OFFCURVE",
"84 579 CURVE",
"68 461 OFFCURVE",
"56 368 OFFCURVE",
"47 294 CURVE SMOOTH",
"39 229 OFFCURVE",
"55 193 OFFCURVE",
"114 147 CURVE"
);
}
);
width = 415;
}
);
},
{
color = 3;
glyphname = gjT;
lastChange = "2015-09-01 12:24:29 +0000";
layers = (
{
background = {
paths = (
{
closed = 0;
nodes = (
"360 396 LINE",
"188 390 OFFCURVE",
"51 403 OFFCURVE",
"51 238 CURVE SMOOTH",
"51 175 OFFCURVE",
"72 92 OFFCURVE",
"89 29 CURVE SMOOTH",
"97 0 OFFCURVE",
"104 2 OFFCURVE",
"126 8 CURVE SMOOTH",
"149 14 OFFCURVE",
"155 16 OFFCURVE",
"147 43 CURVE SMOOTH",
"126 114 OFFCURVE",
"113 180 OFFCURVE",
"113 234 CURVE SMOOTH",
"113 346 OFFCURVE",
"215 327 OFFCURVE",
"356 337 CURVE"
);
},
{
closed = 0;
nodes = (
"356 337 LINE",
"315 349 LINE",
"281 89 OFFCURVE",
"275 58 OFFCURVE",
"275 36 CURVE SMOOTH",
"275 12 OFFCURVE",
"292 0 OFFCURVE",
"308 0 CURVE SMOOTH",
"348 0 OFFCURVE",
"429 51 OFFCURVE",
"429 66 CURVE SMOOTH",
"429 82 OFFCURVE",
"413 108 OFFCURVE",
"400 108 CURVE SMOOTH",
"390 108 OFFCURVE",
"353 67 OFFCURVE",
"334 47 CURVE",
"397 520 LINE SMOOTH",
"401 552 OFFCURVE",
"404 569 OFFCURVE",
"404 577 CURVE SMOOTH",
"404 600 OFFCURVE",
"378 607 OFFCURVE",
"367 607 CURVE SMOOTH",
"353 607 OFFCURVE",
"348 601 OFFCURVE",
"345 579 CURVE SMOOTH",
"318 372 LINE",
"360 396 LINE"
);
},
{
closed = 1;
nodes = (
"299 338 CURVE",
"300 350 LINE",
"301 368 OFFCURVE",
"326 379 OFFCURVE",
"271 373 CURVE SMOOTH",
"143 369 OFFCURVE",
"51 353 OFFCURVE",
"51 218 CURVE SMOOTH",
"51 175 OFFCURVE",
"72 92 OFFCURVE",
"89 29 CURVE SMOOTH",
"97 0 OFFCURVE",
"104 2 OFFCURVE",
"126 8 CURVE SMOOTH",
"149 14 OFFCURVE",
"155 16 OFFCURVE",
"147 43 CURVE SMOOTH",
"126 114 OFFCURVE",
"113 180 OFFCURVE",
"113 214 CURVE SMOOTH",
"113 303 OFFCURVE",
"170 310 OFFCURVE",
"270 313 CURVE SMOOTH",
"327 313 OFFCURVE",
"298 321 OFFCURVE"
);
}
);
};
layerId = "70F97C4B-94FA-40A4-8E29-E667CA674F9A";
name = Regular;
paths = (
{
closed = 1;
nodes = (
"309 335 CURVE",
"310 353 LINE",
"311 371 OFFCURVE",
"306 374 OFFCURVE",
"281 373 CURVE SMOOTH",
"141 368 OFFCURVE",
"51 353 OFFCURVE",
"51 218 CURVE SMOOTH",
"51 175 OFFCURVE",
"72 92 OFFCURVE",
"89 29 CURVE SMOOTH",
"97 0 OFFCURVE",
"104 2 OFFCURVE",
"126 8 CURVE SMOOTH",
"149 14 OFFCURVE",
"155 16 OFFCURVE",
"147 43 CURVE SMOOTH",
"126 114 OFFCURVE",
"113 180 OFFCURVE",
"113 214 CURVE SMOOTH",
"113 303 OFFCURVE",
"168 309 OFFCURVE",
"280 313 CURVE SMOOTH",
"308 314 OFFCURVE",
"308 318 OFFCURVE"
);
}
);
width = 200;
}
);
},
{
color = 9;
glyphname = gjT.alt1;
lastChange = "2015-09-01 14:19:52 +0000";
layers = (
{
background = {
paths = (
{
closed = 1;
nodes = (
"309 335 CURVE",
"310 353 LINE",
"311 371 OFFCURVE",
"306 374 OFFCURVE",
"281 373 CURVE SMOOTH",
"141 368 OFFCURVE",
"51 353 OFFCURVE",
"51 218 CURVE SMOOTH",
"51 175 OFFCURVE",
"72 92 OFFCURVE",
"89 29 CURVE SMOOTH",
"97 0 OFFCURVE",
"104 2 OFFCURVE",
"126 8 CURVE SMOOTH",
"149 14 OFFCURVE",
"155 16 OFFCURVE",
"147 43 CURVE SMOOTH",
"126 114 OFFCURVE",
"113 180 OFFCURVE",
"113 214 CURVE SMOOTH",
"113 303 OFFCURVE",
"168 309 OFFCURVE",
"280 313 CURVE SMOOTH",
"308 314 OFFCURVE",
"308 318 OFFCURVE"
);
}
);
};
layerId = "70F97C4B-94FA-40A4-8E29-E667CA674F9A";
name = Regular;
paths = (
{
closed = 1;
nodes = (
"384 375 CURVE",
"385 393 LINE",
"386 411 OFFCURVE",
"381 413 OFFCURVE",
"356 413 CURVE SMOOTH",
"147 412 OFFCURVE",
"51 393 OFFCURVE",
"51 248 CURVE SMOOTH",
"51 175 OFFCURVE",
"72 92 OFFCURVE",
"89 29 CURVE SMOOTH",
"97 0 OFFCURVE",
"104 2 OFFCURVE",
"126 8 CURVE SMOOTH",
"149 14 OFFCURVE",
"155 16 OFFCURVE",
"147 43 CURVE SMOOTH",
"126 114 OFFCURVE",
"113 180 OFFCURVE",
"113 244 CURVE SMOOTH",
"113 343 OFFCURVE",
"180 349 OFFCURVE",
"361 353 CURVE SMOOTH",
"389 354 OFFCURVE",
"383 358 OFFCURVE"
);
}
);
width = 200;
}
);
},
{
color = 3;
glyphname = gjN;
lastChange = "2015-08-30 17:54:05 +0000";
layers = (
{
background = {
paths = (
{
closed = 1;
nodes = (
"346 371 OFFCURVE",
"340 375 OFFCURVE",
"311 370 CURVE SMOOTH",
"62 327 LINE SMOOTH",
"31 321 OFFCURVE",
"20 312 OFFCURVE",
"20 289 CURVE SMOOTH",
"20 264 OFFCURVE",
"34 228 OFFCURVE",
"48 193 CURVE SMOOTH",
"53 180 OFFCURVE",
"58 178 OFFCURVE",
"69 176 CURVE SMOOTH",
"79 174 OFFCURVE",
"92 172 OFFCURVE",
"93 185 CURVE",
"99 275 LINE",
"325 314 LINE SMOOTH",
"356 319 OFFCURVE",
"366 327 OFFCURVE",
"356 349 CURVE"
);
}
);
};
layerId = "70F97C4B-94FA-40A4-8E29-E667CA674F9A";
name = Regular;
paths = (
{
closed = 1;
nodes = (
"305 369 OFFCURVE",
"299 374 OFFCURVE",
"270 368 CURVE SMOOTH",
"62 327 LINE SMOOTH",
"31 321 OFFCURVE",
"20 312 OFFCURVE",
"20 289 CURVE SMOOTH",
"20 264 OFFCURVE",
"34 228 OFFCURVE",
"48 193 CURVE SMOOTH",
"53 180 OFFCURVE",
"58 178 OFFCURVE",
"69 176 CURVE SMOOTH",
"79 174 OFFCURVE",
"92 172 OFFCURVE",
"93 185 CURVE",
"99 275 LINE",
"284 312 LINE SMOOTH",
"315 318 OFFCURVE",
"325 325 OFFCURVE",
"315 347 CURVE"
);
}
);
width = 219;
}
);
},
{
color = 9;
glyphname = gjN.alt1;
lastChange = "2015-08-30 17:54:07 +0000";
layers = (
{
layerId = "70F97C4B-94FA-40A4-8E29-E667CA674F9A";
name = Regular;
paths = (
{
closed = 1;
nodes = (
"305 429 OFFCURVE",
"299 434 OFFCURVE",
"270 428 CURVE SMOOTH",
"62 387 LINE SMOOTH",
"31 381 OFFCURVE",
"20 372 OFFCURVE",
"20 349 CURVE SMOOTH",
"20 324 OFFCURVE",
"34 288 OFFCURVE",
"48 253 CURVE SMOOTH",
"53 240 OFFCURVE",
"58 238 OFFCURVE",
"69 236 CURVE SMOOTH",
"79 234 OFFCURVE",
"92 232 OFFCURVE",
"93 245 CURVE",
"99 335 LINE",
"284 372 LINE SMOOTH",
"315 378 OFFCURVE",
"325 385 OFFCURVE",
"315 407 CURVE"
);
}
);
width = 219;
}
);
},
{
color = 3;
glyphname = gjP;
lastChange = "2015-09-02 11:41:06 +0000";
layers = (
{
background = {
paths = (
{
closed = 1;
nodes = (
"167 593 OFFCURVE",
"155 605 OFFCURVE",
"133 605 CURVE",
"102 605 OFFCURVE",
"56 593 OFFCURVE",
"37 583 CURVE SMOOTH",
"31 580 OFFCURVE",
"30 576 OFFCURVE",
"30 571 CURVE",
"30 562 OFFCURVE",
"45 535 OFFCURVE",
"54 535 CURVE",
"63 535 OFFCURVE",
"86 546 OFFCURVE",
"105 554 CURVE",
"92 473 OFFCURVE",
"76 391 OFFCURVE",
"76 328 CURVE",
"76 259 OFFCURVE",
"119 217 OFFCURVE",
"174 217 CURVE",
"227 217 OFFCURVE",
"274 246 OFFCURVE",
"304 282 CURVE",
"297 252 LINE",
"288 180 OFFCURVE",
"269 59 OFFCURVE",
"269 36 CURVE",
"269 12 OFFCURVE",
"286 0 OFFCURVE",
"302 0 CURVE",
"342 0 OFFCURVE",
"423 51 OFFCURVE",
"423 66 CURVE",
"423 82 OFFCURVE",
"407 108 OFFCURVE",
"394 108 CURVE",
"384 108 OFFCURVE",
"347 67 OFFCURVE",
"328 47 CURVE",
"352 224 OFFCURVE",
"401 551 OFFCURVE",
"401 577 CURVE",
"401 600 OFFCURVE",
"372 607 OFFCURVE",
"361 607 CURVE",
"347 607 OFFCURVE",
"342 601 OFFCURVE",
"339 579 CURVE",
"325 462 LINE",
"314 390 OFFCURVE",
"306 369 OFFCURVE",
"277 331 CURVE SMOOTH",
"252 301 OFFCURVE",
"217 279 OFFCURVE",
"180 279 CURVE",
"153 279 OFFCURVE",
"138 298 OFFCURVE",
"138 330 CURVE",
"138 408 OFFCURVE",
"167 533 OFFCURVE",
"167 574 CURVE"
);
},
{
closed = 1;
nodes = (
"167 593 OFFCURVE",
"155 605 OFFCURVE",
"133 605 CURVE",
"102 605 OFFCURVE",
"56 593 OFFCURVE",
"37 583 CURVE SMOOTH",
"31 580 OFFCURVE",
"30 576 OFFCURVE",
"30 571 CURVE",
"30 562 OFFCURVE",
"45 535 OFFCURVE",
"54 535 CURVE",
"63 535 OFFCURVE",
"86 546 OFFCURVE",
"105 554 CURVE",
"92 473 OFFCURVE",
"76 391 OFFCURVE",
"76 328 CURVE",
"76 259 OFFCURVE",
"119 217 OFFCURVE",
"190 217 CURVE",
"252 217 OFFCURVE",
"315 251 OFFCURVE",
"345 287 CURVE",
"317 341 LINE",
"292 311 OFFCURVE",
"247 278 OFFCURVE",
"186 278 CURVE",
"153 278 OFFCURVE",
"138 298 OFFCURVE",
"138 330 CURVE",
"138 408 OFFCURVE",
"167 533 OFFCURVE",
"167 574 CURVE"
);
},
{
closed = 1;
nodes = (
"167 593 OFFCURVE",
"155 605 OFFCURVE",
"133 605 CURVE",
"102 605 OFFCURVE",
"56 593 OFFCURVE",
"37 583 CURVE SMOOTH",
"31 580 OFFCURVE",
"30 576 OFFCURVE",
"30 571 CURVE",
"30 562 OFFCURVE",
"45 535 OFFCURVE",
"54 535 CURVE",
"63 535 OFFCURVE",
"86 546 OFFCURVE",
"105 554 CURVE",
"92 473 OFFCURVE",
"76 391 OFFCURVE",
"76 328 CURVE",
"76 259 OFFCURVE",
"119 217 OFFCURVE",
"190 217 CURVE",
"262 217 OFFCURVE",
"325 269 OFFCURVE",
"355 305 CURVE",
"327 359 LINE",
"302 329 OFFCURVE",
"257 278 OFFCURVE",
"186 278 CURVE",
"153 278 OFFCURVE",
"138 298 OFFCURVE",
"138 330 CURVE",
"138 408 OFFCURVE",
"167 533 OFFCURVE",
"167 574 CURVE"
);
}
);
};
layerId = "70F97C4B-94FA-40A4-8E29-E667CA674F9A";
name = Regular;
paths = (
{
closed = 1;
nodes = (
"138 408 OFFCURVE",
"167 533 OFFCURVE",
"167 574 CURVE",
"167 593 OFFCURVE",
"155 605 OFFCURVE",
"133 605 CURVE",
"102 605 OFFCURVE",
"56 593 OFFCURVE",
"37 583 CURVE SMOOTH",
"31 580 OFFCURVE",
"30 578 OFFCURVE",
"30 573 CURVE",
"30 564 OFFCURVE",
"45 535 OFFCURVE",
"54 535 CURVE",
"63 535 OFFCURVE",
"86 546 OFFCURVE",
"105 554 CURVE",
"92 473 OFFCURVE",
"76 391 OFFCURVE",
"76 328 CURVE",
"76 259 OFFCURVE",
"119 217 OFFCURVE",
"190 217 CURVE",
"254 217 OFFCURVE",
"310 257 OFFCURVE",
"343 292 CURVE SMOOTH",
"355 305 OFFCURVE",
"354 308 OFFCURVE",
"345 324 CURVE",
"336 341 LINE",
"331 351 OFFCURVE",
"327 358 OFFCURVE",
"314 344 CURVE SMOOTH",
"285 313 OFFCURVE",
"246 278 OFFCURVE",
"186 278 CURVE",
"153 278 OFFCURVE",
"138 298 OFFCURVE",
"138 330 CURVE"
);
}
);
width = 230;
}
);
},
{
color = 9;
glyphname = gjB;
lastChange = "2015-09-02 09:33:49 +0000";
layers = (
{
background = {
paths = (
{
closed = 1;
nodes = (
"477 579 LINE",
"480 601 OFFCURVE",
"485 607 OFFCURVE",
"499 607 CURVE",
"510 607 OFFCURVE",
"539 600 OFFCURVE",
"539 577 CURVE",
"539 551 OFFCURVE",
"500 224 OFFCURVE",
"466 47 CURVE",
"485 67 OFFCURVE",
"522 108 OFFCURVE",
"532 108 CURVE",
"545 108 OFFCURVE",
"561 82 OFFCURVE",
"561 66 CURVE",
"561 51 OFFCURVE",
"480 0 OFFCURVE",
"440 0 CURVE",
"424 0 OFFCURVE",
"407 12 OFFCURVE",
"407 36 CURVE",
"407 59 OFFCURVE",
"426 180 OFFCURVE",
"435 252 CURVE",
"463 462 LINE"
);
},
{
closed = 1;
nodes = (
"192 594 CURVE",
"208 583 OFFCURVE",
"215 571 OFFCURVE",
"205 560 CURVE SMOOTH",
"142 491 OFFCURVE",
"98 425 OFFCURVE",
"98 329 CURVE",
"98 255 OFFCURVE",
"123 211 OFFCURVE",
"170 211 CURVE",
"227 211 OFFCURVE",
"253 249 OFFCURVE",
"272 305 CURVE",
"233 413 LINE",
"245 435 OFFCURVE",
"265 455 OFFCURVE",
"289 455 CURVE",
"324 455 OFFCURVE",
"339 419 OFFCURVE",
"339 372 CURVE SMOOTH",
"338 281 OFFCURVE",
"287 149 OFFCURVE",
"169 149 CURVE",
"86 149 OFFCURVE",
"35 221 OFFCURVE",
"35 314 CURVE",
"35 446 OFFCURVE",
"96 525 OFFCURVE",
"158 597 CURVE SMOOTH",
"170 611 OFFCURVE",
"180 603 OFFCURVE"
);
},
{
closed = 1;
nodes = (
"307 321 OFFCURVE",
"343 294 OFFCURVE",
"375 294 CURVE SMOOTH",
"427 294 OFFCURVE",
"444 322 OFFCURVE",
"458 423 CURVE",
"497 307 LINE",
"460 250 OFFCURVE",
"415 240 OFFCURVE",
"379 240 CURVE SMOOTH",
"339 240 OFFCURVE",
"295 271 OFFCURVE",
"277 308 CURVE",
"293 352 LINE"
);
}
);
};
layerId = "70F97C4B-94FA-40A4-8E29-E667CA674F9A";
name = Regular;
paths = (
{
closed = 1;
nodes = (
"170 611 OFFCURVE",
"180 603 OFFCURVE",
"192 594 CURVE",
"208 583 OFFCURVE",
"215 571 OFFCURVE",
"205 560 CURVE SMOOTH",
"142 491 OFFCURVE",
"98 425 OFFCURVE",
"98 329 CURVE",
"98 255 OFFCURVE",
"123 211 OFFCURVE",
"170 211 CURVE",
"227 211 OFFCURVE",
"253 249 OFFCURVE",
"272 305 CURVE",
"233 413 LINE",
"245 435 OFFCURVE",
"265 455 OFFCURVE",
"289 455 CURVE",
"324 455 OFFCURVE",
"339 419 OFFCURVE",
"339 372 CURVE SMOOTH",
"338 281 OFFCURVE",
"287 149 OFFCURVE",
"169 149 CURVE",
"86 149 OFFCURVE",
"35 221 OFFCURVE",
"35 314 CURVE",
"35 446 OFFCURVE",
"96 525 OFFCURVE",
"158 597 CURVE SMOOTH"
);
},
{
closed = 1;
nodes = (
"307 321 OFFCURVE",
"338 294 OFFCURVE",
"375 294 CURVE SMOOTH",
"404 294 OFFCURVE",
"426 306 OFFCURVE",
"443 332 CURVE SMOOTH",
"453 348 OFFCURVE",
"461 344 OFFCURVE",
"471 334 CURVE",
"478 326 LINE",
"491 314 OFFCURVE",
"497 303 OFFCURVE",
"482 286 CURVE SMOOTH",
"448 247 OFFCURVE",
"410 240 OFFCURVE",
"379 240 CURVE SMOOTH",
"339 240 OFFCURVE",
"295 271 OFFCURVE",
"277 308 CURVE",
"293 352 LINE"
);
}
);
width = 397;
}
);
},
{
color = 3;
glyphname = gjBh;
lastChange = "2015-08-30 18:35:50 +0000";
layers = (
{
background = {
paths = (
{
closed = 1;
nodes = (
"546 361 OFFCURVE",
"540 364 OFFCURVE",
"511 360 CURVE SMOOTH",
"240 322 LINE SMOOTH",
"209 318 OFFCURVE",
"198 311 OFFCURVE",
"198 288 CURVE SMOOTH",
"198 263 OFFCURVE",
"224 229 OFFCURVE",
"246 194 CURVE SMOOTH",
"253 183 OFFCURVE",
"258 179 OFFCURVE",
"269 177 CURVE SMOOTH",
"279 175 OFFCURVE",
"299 178 OFFCURVE",
"303 191 CURVE",
"309 272 LINE",
"525 304 LINE SMOOTH",
"556 309 OFFCURVE",
"566 317 OFFCURVE",
"556 339 CURVE"
);
},
{
closed = 1;
nodes = (
"45 233 OFFCURVE",
"85 132 OFFCURVE",
"151 43 CURVE SMOOTH",
"164 25 OFFCURVE",
"177 25 OFFCURVE",
"193 37 CURVE",
"210 52 OFFCURVE",
"215 58 OFFCURVE",
"200 77 CURVE SMOOTH",
"155 132 OFFCURVE",
"104 232 OFFCURVE",
"104 344 CURVE",
"104 464 OFFCURVE",
"162 549 OFFCURVE",
"220 549 CURVE",
"278 549 OFFCURVE",
"275 498 OFFCURVE",
"249 287 CURVE",
"308 289 LINE",
"320 410 LINE",
"337 557 OFFCURVE",
"301 606 OFFCURVE",
"233 606 CURVE",
"110 605 OFFCURVE",
"45 476 OFFCURVE",
"45 342 CURVE"
);
},
{
closed = 1;
nodes = (
"520 357 OFFCURVE",
"514 360 OFFCURVE",
"485 356 CURVE SMOOTH",
"237 321 LINE SMOOTH",
"206 317 OFFCURVE",
"195 310 OFFCURVE",
"195 287 CURVE SMOOTH",
"195 262 OFFCURVE",
"221 228 OFFCURVE",
"243 193 CURVE SMOOTH",
"250 182 OFFCURVE",
"255 178 OFFCURVE",
"266 176 CURVE SMOOTH",
"276 174 OFFCURVE",
"296 177 OFFCURVE",
"300 190 CURVE",
"309 276 LINE",
"499 300 LINE SMOOTH",
"530 304 OFFCURVE",
"540 313 OFFCURVE",
"530 335 CURVE"
);
},
{
closed = 1;
nodes = (
"319 383 OFFCURVE",
"341 554 OFFCURVE",
"341 574 CURVE",
"342 593 OFFCURVE",
"329 605 OFFCURVE",
"307 605 CURVE",
"276 605 OFFCURVE",
"230 593 OFFCURVE",
"211 583 CURVE SMOOTH",
"205 580 OFFCURVE",
"204 576 OFFCURVE",
"204 571 CURVE",
"204 562 OFFCURVE",
"219 535 OFFCURVE",
"228 535 CURVE",
"237 535 OFFCURVE",
"260 546 OFFCURVE",
"279 554 CURVE",
"249 286 LINE",
"309 288 LINE"
);
}
);
};
layerId = "70F97C4B-94FA-40A4-8E29-E667CA674F9A";
name = Regular;
paths = (
{
closed = 1;
nodes = (
"45 233 OFFCURVE",
"85 132 OFFCURVE",
"151 43 CURVE SMOOTH",
"164 25 OFFCURVE",
"177 25 OFFCURVE",
"193 37 CURVE",
"210 52 OFFCURVE",
"215 58 OFFCURVE",
"200 77 CURVE SMOOTH",
"155 132 OFFCURVE",
"104 232 OFFCURVE",
"104 344 CURVE",
"104 464 OFFCURVE",
"162 549 OFFCURVE",
"220 549 CURVE",
"278 549 OFFCURVE",
"275 498 OFFCURVE",
"249 287 CURVE",
"308 289 LINE",
"320 410 LINE",
"337 557 OFFCURVE",
"301 606 OFFCURVE",
"233 606 CURVE",
"110 605 OFFCURVE",
"45 476 OFFCURVE",
"45 342 CURVE"
);
},
{
closed = 1;
nodes = (
"520 357 OFFCURVE",
"514 360 OFFCURVE",
"485 356 CURVE SMOOTH",
"237 321 LINE SMOOTH",
"206 317 OFFCURVE",
"195 310 OFFCURVE",
"195 287 CURVE SMOOTH",
"195 262 OFFCURVE",
"221 228 OFFCURVE",
"243 193 CURVE SMOOTH",
"250 182 OFFCURVE",
"255 178 OFFCURVE",
"266 176 CURVE SMOOTH",
"276 174 OFFCURVE",
"296 177 OFFCURVE",
"300 190 CURVE",
"309 276 LINE",
"499 300 LINE SMOOTH",
"530 304 OFFCURVE",
"540 313 OFFCURVE",
"530 335 CURVE"
);
}
);
width = 434;
}
);
},
{
color = 3;
glyphname = gjM;
lastChange = "2015-08-30 18:21:11 +0000";
layers = (
{
background = {
paths = (
{
closed = 1;
nodes = (
"405 363 OFFCURVE",
"399 366 OFFCURVE",
"370 362 CURVE SMOOTH",
"79 321 LINE SMOOTH",
"48 317 OFFCURVE",
"37 310 OFFCURVE",
"37 287 CURVE SMOOTH",
"37 262 OFFCURVE",
"63 228 OFFCURVE",
"85 193 CURVE SMOOTH",
"92 182 OFFCURVE",
"97 178 OFFCURVE",
"108 176 CURVE SMOOTH",
"118 174 OFFCURVE",
"138 177 OFFCURVE",
"142 190 CURVE",
"151 276 LINE",
"384 306 LINE SMOOTH",
"415 310 OFFCURVE",
"425 319 OFFCURVE",
"415 341 CURVE"
);
},
{
closed = 1;
nodes = (
"161 383 OFFCURVE",
"183 554 OFFCURVE",
"183 574 CURVE",
"184 593 OFFCURVE",
"171 605 OFFCURVE",
"149 605 CURVE",
"118 605 OFFCURVE",
"72 593 OFFCURVE",
"53 583 CURVE SMOOTH",
"47 580 OFFCURVE",
"46 576 OFFCURVE",
"46 571 CURVE",
"46 562 OFFCURVE",
"61 535 OFFCURVE",
"70 535 CURVE",
"79 535 OFFCURVE",
"102 546 OFFCURVE",
"121 554 CURVE",
"91 286 LINE",
"151 288 LINE"
);
}
);
};
layerId = "70F97C4B-94FA-40A4-8E29-E667CA674F9A";
name = Regular;
paths = (
{
closed = 1;
nodes = (
"362 357 OFFCURVE",
"356 360 OFFCURVE",
"327 356 CURVE SMOOTH",
"79 321 LINE SMOOTH",
"48 317 OFFCURVE",
"37 310 OFFCURVE",
"37 287 CURVE SMOOTH",
"37 262 OFFCURVE",
"63 228 OFFCURVE",
"85 193 CURVE SMOOTH",
"92 182 OFFCURVE",
"97 178 OFFCURVE",
"108 176 CURVE SMOOTH",
"118 174 OFFCURVE",
"138 177 OFFCURVE",
"142 190 CURVE",
"151 276 LINE",
"341 300 LINE SMOOTH",
"372 304 OFFCURVE",
"382 313 OFFCURVE",
"372 335 CURVE"
);
},
{
closed = 1;
nodes = (
"161 383 OFFCURVE",
"183 554 OFFCURVE",
"183 574 CURVE",
"184 593 OFFCURVE",
"171 605 OFFCURVE",
"149 605 CURVE",
"118 605 OFFCURVE",
"72 593 OFFCURVE",
"53 583 CURVE SMOOTH",
"47 580 OFFCURVE",
"46 576 OFFCURVE",
"46 571 CURVE",
"46 562 OFFCURVE",
"61 535 OFFCURVE",
"70 535 CURVE",
"79 535 OFFCURVE",
"102 546 OFFCURVE",
"121 554 CURVE",
"91 286 LINE",
"151 288 LINE"
);
}
);
width = 246;
}
);
},
{
color = 3;
glyphname = gjY;
lastChange = "2015-09-02 12:22:28 +0000";
layers = (
{
background = {
paths = (
{
closed = 1;
nodes = (
"93 603 CURVE",
"109 612 OFFCURVE",
"125 616 OFFCURVE",
"148 599 CURVE SMOOTH",
"181 574 OFFCURVE",
"213 535 OFFCURVE",
"211 472 CURVE SMOOTH",
"209 390 OFFCURVE",
"155 349 OFFCURVE",
"86 318 CURVE",
"99 284 OFFCURVE",
"131 258 OFFCURVE",
"182 258 CURVE",
"229 258 OFFCURVE",
"262 281 OFFCURVE",
"287 311 CURVE SMOOTH",
"316 349 OFFCURVE",
"322 370 OFFCURVE",
"335 452 CURVE",
"350 579 LINE",
"353 601 OFFCURVE",
"358 607 OFFCURVE",
"372 607 CURVE",
"383 607 OFFCURVE",
"412 600 OFFCURVE",
"412 577 CURVE",
"412 551 OFFCURVE",
"363 224 OFFCURVE",
"339 47 CURVE",
"358 67 OFFCURVE",
"395 108 OFFCURVE",
"405 108 CURVE",
"418 108 OFFCURVE",
"434 82 OFFCURVE",
"434 66 CURVE",
"434 51 OFFCURVE",
"353 0 OFFCURVE",
"313 0 CURVE",
"297 0 OFFCURVE",
"280 12 OFFCURVE",
"280 36 CURVE",
"280 59 OFFCURVE",
"296 160 OFFCURVE",
"305 232 CURVE",
"311 259 LINE",
"277 225 OFFCURVE",
"234 200 OFFCURVE",
"179 200 CURVE",
"80 200 OFFCURVE",
"26 272 OFFCURVE",
"20 344 CURVE",
"19 354 OFFCURVE",
"26 360 OFFCURVE",
"35 363 CURVE SMOOTH",
"95 383 OFFCURVE",
"148 408 OFFCURVE",
"150 472 CURVE SMOOTH",
"151 519 OFFCURVE",
"125 546 OFFCURVE",
"90 570 CURVE SMOOTH",
"74 581 OFFCURVE",
"73 591 OFFCURVE"
);
}
);
};
layerId = "70F97C4B-94FA-40A4-8E29-E667CA674F9A";
name = Regular;
paths = (
{
closed = 1;
nodes = (
"74 581 OFFCURVE",
"73 591 OFFCURVE",
"93 603 CURVE",
"109 612 OFFCURVE",
"125 616 OFFCURVE",
"148 599 CURVE SMOOTH",
"181 574 OFFCURVE",
"213 535 OFFCURVE",
"211 472 CURVE SMOOTH",
"209 390 OFFCURVE",
"155 349 OFFCURVE",
"86 318 CURVE",
"99 284 OFFCURVE",
"131 258 OFFCURVE",
"182 258 CURVE",
"220 258 OFFCURVE",
"247 272 OFFCURVE",
"270 293 CURVE SMOOTH",
"280 303 OFFCURVE",
"289 300 OFFCURVE",
"296 287 CURVE",
"303 273 LINE",
"307 263 OFFCURVE",
"312 253 OFFCURVE",
"301 244 CURVE SMOOTH",
"268 217 OFFCURVE",
"229 200 OFFCURVE",
"179 200 CURVE",
"80 200 OFFCURVE",
"26 272 OFFCURVE",
"20 344 CURVE",
"19 354 OFFCURVE",
"26 360 OFFCURVE",
"35 363 CURVE SMOOTH",
"95 383 OFFCURVE",
"148 408 OFFCURVE",
"150 472 CURVE SMOOTH",
"151 519 OFFCURVE",
"125 546 OFFCURVE",
"90 570 CURVE SMOOTH"
);
}
);
width = 231;
}
);
},
{
color = 3;
glyphname = gjL;
lastChange = "2015-08-31 08:29:45 +0000";
layers = (
{
background = {
paths = (
{
closed = 1;
nodes = (
"192 605 OFFCURVE",
"204 607 OFFCURVE",
"224 596 CURVE",
"241 587 OFFCURVE",
"244 577 OFFCURVE",
"228 557 CURVE SMOOTH",
"171 485 OFFCURVE",
"104 397 OFFCURVE",
"104 295 CURVE",
"104 188 OFFCURVE",
"158 128 OFFCURVE",
"231 58 CURVE SMOOTH",
"250 40 OFFCURVE",
"247 31 OFFCURVE",
"232 16 CURVE",
"217 -1 OFFCURVE",
"205 -1 OFFCURVE",
"186 17 CURVE SMOOTH",
"108 89 OFFCURVE",
"45 171 OFFCURVE",
"45 289 CURVE",
"45 413 OFFCURVE",
"118 512 OFFCURVE",
"179 587 CURVE SMOOTH"
);
},
{
closed = 1;
nodes = (
"433 314 LINE SMOOTH",
"464 318 OFFCURVE",
"473 327 OFFCURVE",
"464 349 CURVE",
"453 371 OFFCURVE",
"447 375 OFFCURVE",
"419 370 CURVE SMOOTH",
"188 329 LINE",
"157 324 OFFCURVE",
"156 317 OFFCURVE",
"166 295 CURVE",
"174 279 OFFCURVE",
"182 278 OFFCURVE",
"211 283 CURVE"
);
}
);
};
layerId = "70F97C4B-94FA-40A4-8E29-E667CA674F9A";
name = Regular;
paths = (
{
closed = 1;
nodes = (
"192 605 OFFCURVE",
"204 607 OFFCURVE",
"224 596 CURVE",
"241 587 OFFCURVE",
"244 577 OFFCURVE",
"228 557 CURVE SMOOTH",
"171 485 OFFCURVE",
"104 397 OFFCURVE",
"104 295 CURVE",
"104 188 OFFCURVE",
"158 128 OFFCURVE",
"231 58 CURVE SMOOTH",
"250 40 OFFCURVE",
"247 31 OFFCURVE",
"232 16 CURVE",
"217 -1 OFFCURVE",
"205 -1 OFFCURVE",
"186 17 CURVE SMOOTH",
"108 89 OFFCURVE",
"45 171 OFFCURVE",
"45 289 CURVE",
"45 413 OFFCURVE",
"118 512 OFFCURVE",
"179 587 CURVE SMOOTH"
);
},
{
closed = 1;
nodes = (
"372 312 LINE SMOOTH",
"403 316 OFFCURVE",
"412 322 OFFCURVE",
"403 344 CURVE",
"392 366 OFFCURVE",
"386 370 OFFCURVE",
"358 365 CURVE SMOOTH",
"188 335 LINE",
"157 330 OFFCURVE",
"156 323 OFFCURVE",
"166 301 CURVE",
"174 285 OFFCURVE",
"182 284 OFFCURVE",
"211 289 CURVE"
);
}
);
width = 313;
}
);
},
{
color = 9;
glyphname = gjL.alt1;
lastChange = "2015-08-31 09:46:48 +0000";
layers = (
{
background = {
paths = (
{
closed = 1;
nodes = (
"192 605 OFFCURVE",
"204 607 OFFCURVE",
"224 596 CURVE",
"241 587 OFFCURVE",
"244 577 OFFCURVE",
"228 557 CURVE SMOOTH",
"171 485 OFFCURVE",
"104 397 OFFCURVE",
"104 295 CURVE",
"104 188 OFFCURVE",
"158 128 OFFCURVE",
"231 58 CURVE SMOOTH",
"250 40 OFFCURVE",
"247 31 OFFCURVE",
"232 16 CURVE",
"217 -1 OFFCURVE",
"205 -1 OFFCURVE",
"186 17 CURVE SMOOTH",
"108 89 OFFCURVE",
"45 171 OFFCURVE",
"45 289 CURVE",
"45 413 OFFCURVE",
"118 512 OFFCURVE",
"179 587 CURVE SMOOTH"
);
},
{
closed = 1;
nodes = (
"372 312 LINE SMOOTH",
"403 316 OFFCURVE",
"412 322 OFFCURVE",
"403 344 CURVE",
"392 366 OFFCURVE",
"386 370 OFFCURVE",
"358 365 CURVE SMOOTH",
"188 335 LINE",
"157 330 OFFCURVE",
"156 323 OFFCURVE",
"166 301 CURVE",
"174 285 OFFCURVE",
"182 284 OFFCURVE",
"211 289 CURVE"
);
}
);
};
layerId = "70F97C4B-94FA-40A4-8E29-E667CA674F9A";
name = Regular;
paths = (
{
closed = 1;
nodes = (
"192 605 OFFCURVE",
"204 607 OFFCURVE",
"224 596 CURVE",
"241 587 OFFCURVE",
"244 577 OFFCURVE",
"228 557 CURVE SMOOTH",
"171 485 OFFCURVE",
"104 397 OFFCURVE",
"104 295 CURVE",
"104 188 OFFCURVE",
"158 128 OFFCURVE",
"231 58 CURVE SMOOTH",
"250 40 OFFCURVE",
"247 31 OFFCURVE",
"232 16 CURVE",
"217 -1 OFFCURVE",
"205 -1 OFFCURVE",
"186 17 CURVE SMOOTH",
"108 89 OFFCURVE",
"45 171 OFFCURVE",
"45 289 CURVE",
"45 413 OFFCURVE",
"118 512 OFFCURVE",
"179 587 CURVE SMOOTH"
);
},
{
closed = 1;
nodes = (
"447 365 LINE SMOOTH",
"477 375 OFFCURVE",
"487 375 OFFCURVE",
"478 397 CURVE",
"467 419 OFFCURVE",
"460 427 OFFCURVE",
"433 418 CURVE SMOOTH",
"188 335 LINE",
"157 325 OFFCURVE",
"157 321 OFFCURVE",
"167 299 CURVE",
"175 283 OFFCURVE",
"182 278 OFFCURVE",
"211 289 CURVE"
);
}
);
width = 301;
}
);
},
{
color = 9;
glyphname = gjL.alt2;
lastChange = "2015-08-31 09:46:48 +0000";
layers = (
{
background = {
paths = (
{
closed = 1;
nodes = (
"192 605 OFFCURVE",
"204 607 OFFCURVE",
"224 596 CURVE",
"241 587 OFFCURVE",
"244 577 OFFCURVE",
"228 557 CURVE SMOOTH",
"171 485 OFFCURVE",
"104 397 OFFCURVE",
"104 295 CURVE",
"104 188 OFFCURVE",
"158 128 OFFCURVE",
"231 58 CURVE SMOOTH",
"250 40 OFFCURVE",
"247 31 OFFCURVE",
"232 16 CURVE",
"217 -1 OFFCURVE",
"205 -1 OFFCURVE",
"186 17 CURVE SMOOTH",
"108 89 OFFCURVE",
"45 171 OFFCURVE",
"45 289 CURVE",
"45 413 OFFCURVE",
"118 512 OFFCURVE",
"179 587 CURVE SMOOTH"
);
},
{
closed = 1;
nodes = (
"447 365 LINE SMOOTH",
"477 375 OFFCURVE",
"487 375 OFFCURVE",
"478 397 CURVE",
"467 419 OFFCURVE",
"460 427 OFFCURVE",
"433 418 CURVE SMOOTH",
"188 335 LINE",
"157 325 OFFCURVE",
"157 321 OFFCURVE",
"167 299 CURVE",
"175 283 OFFCURVE",
"182 278 OFFCURVE",
"211 289 CURVE"
);
}
);
};
layerId = "70F97C4B-94FA-40A4-8E29-E667CA674F9A";
name = Regular;
paths = (
{
closed = 1;
nodes = (
"192 605 OFFCURVE",
"204 607 OFFCURVE",
"224 596 CURVE",
"241 587 OFFCURVE",
"244 577 OFFCURVE",
"228 557 CURVE SMOOTH",
"171 485 OFFCURVE",
"104 397 OFFCURVE",
"104 295 CURVE",
"104 188 OFFCURVE",
"158 128 OFFCURVE",
"231 58 CURVE SMOOTH",
"250 40 OFFCURVE",
"247 31 OFFCURVE",
"232 16 CURVE",
"217 -1 OFFCURVE",
"205 -1 OFFCURVE",
"186 17 CURVE SMOOTH",
"108 89 OFFCURVE",
"45 171 OFFCURVE",
"45 289 CURVE",
"45 413 OFFCURVE",
"118 512 OFFCURVE",
"179 587 CURVE SMOOTH"
);
},
{
closed = 1;
nodes = (
"391 346 LINE SMOOTH",
"421 356 OFFCURVE",
"431 356 OFFCURVE",
"422 378 CURVE",
"411 400 OFFCURVE",
"404 408 OFFCURVE",
"377 399 CURVE SMOOTH",
"188 335 LINE",
"157 325 OFFCURVE",
"157 321 OFFCURVE",
"167 299 CURVE",
"175 283 OFFCURVE",
"182 278 OFFCURVE",
"211 289 CURVE"
);
}
);
width = 301;
}
);
},
{
color = 9;
glyphname = gjL.alt3;
lastChange = "2015-08-31 09:46:48 +0000";
layers = (
{
background = {
paths = (
{
closed = 1;
nodes = (
"192 605 OFFCURVE",
"204 607 OFFCURVE",
"224 596 CURVE",
"241 587 OFFCURVE",
"244 577 OFFCURVE",
"228 557 CURVE SMOOTH",
"171 485 OFFCURVE",
"104 397 OFFCURVE",
"104 295 CURVE",
"104 188 OFFCURVE",
"158 128 OFFCURVE",
"231 58 CURVE SMOOTH",
"250 40 OFFCURVE",
"247 31 OFFCURVE",
"232 16 CURVE",
"217 -1 OFFCURVE",
"205 -1 OFFCURVE",
"186 17 CURVE SMOOTH",
"108 89 OFFCURVE",
"45 171 OFFCURVE",
"45 289 CURVE",
"45 413 OFFCURVE",
"118 512 OFFCURVE",
"179 587 CURVE SMOOTH"
);
},
{
closed = 1;
nodes = (
"372 312 LINE SMOOTH",
"403 316 OFFCURVE",
"412 322 OFFCURVE",
"403 344 CURVE",
"392 366 OFFCURVE",
"386 370 OFFCURVE",
"358 365 CURVE SMOOTH",
"188 335 LINE",
"157 330 OFFCURVE",
"156 323 OFFCURVE",
"166 301 CURVE",
"174 285 OFFCURVE",
"182 284 OFFCURVE",
"211 289 CURVE"
);
}
);
};
layerId = "70F97C4B-94FA-40A4-8E29-E667CA674F9A";
name = Regular;
paths = (
{
closed = 1;
nodes = (
"192 605 OFFCURVE",
"204 607 OFFCURVE",
"224 596 CURVE",
"241 587 OFFCURVE",
"244 577 OFFCURVE",
"228 557 CURVE SMOOTH",
"171 485 OFFCURVE",
"104 397 OFFCURVE",
"104 295 CURVE",
"104 188 OFFCURVE",
"158 128 OFFCURVE",
"231 58 CURVE SMOOTH",
"250 40 OFFCURVE",
"247 31 OFFCURVE",
"232 16 CURVE",
"217 -1 OFFCURVE",
"205 -1 OFFCURVE",
"186 17 CURVE SMOOTH",
"108 89 OFFCURVE",
"45 171 OFFCURVE",
"45 289 CURVE",
"45 413 OFFCURVE",
"118 512 OFFCURVE",
"179 587 CURVE SMOOTH"
);
},
{
closed = 1;
nodes = (
"496 328 LINE SMOOTH",
"527 332 OFFCURVE",
"536 341 OFFCURVE",
"527 363 CURVE",
"516 385 OFFCURVE",
"510 388 OFFCURVE",
"482 384 CURVE SMOOTH",
"188 340 LINE",
"157 335 OFFCURVE",
"156 328 OFFCURVE",
"166 306 CURVE",
"174 290 OFFCURVE",
"182 286 OFFCURVE",
"211 291 CURVE"
);
}
);
width = 313;
}
);
},
{
color = 9;
glyphname = gjL.alt4;
lastChange = "2015-08-31 09:46:48 +0000";
layers = (
{
background = {
paths = (
{
closed = 1;
nodes = (
"192 605 OFFCURVE",
"204 607 OFFCURVE",
"224 596 CURVE",
"241 587 OFFCURVE",
"244 577 OFFCURVE",
"228 557 CURVE SMOOTH",
"171 485 OFFCURVE",
"104 397 OFFCURVE",
"104 295 CURVE",
"104 188 OFFCURVE",
"158 128 OFFCURVE",
"231 58 CURVE SMOOTH",
"250 40 OFFCURVE",
"247 31 OFFCURVE",
"232 16 CURVE",
"217 -1 OFFCURVE",
"205 -1 OFFCURVE",
"186 17 CURVE SMOOTH",
"108 89 OFFCURVE",
"45 171 OFFCURVE",
"45 289 CURVE",
"45 413 OFFCURVE",
"118 512 OFFCURVE",
"179 587 CURVE SMOOTH"
);
},
{
closed = 1;
nodes = (
"372 312 LINE SMOOTH",
"403 316 OFFCURVE",
"412 322 OFFCURVE",
"403 344 CURVE",
"392 366 OFFCURVE",
"386 370 OFFCURVE",
"358 365 CURVE SMOOTH",
"188 335 LINE",
"157 330 OFFCURVE",
"156 323 OFFCURVE",
"166 301 CURVE",
"174 285 OFFCURVE",
"182 284 OFFCURVE",
"211 289 CURVE"
);
}
);
};
layerId = "70F97C4B-94FA-40A4-8E29-E667CA674F9A";
name = Regular;
paths = (
{
closed = 1;
nodes = (
"192 605 OFFCURVE",
"204 607 OFFCURVE",
"224 596 CURVE",
"241 587 OFFCURVE",
"244 577 OFFCURVE",
"228 557 CURVE SMOOTH",
"171 485 OFFCURVE",
"104 397 OFFCURVE",
"104 295 CURVE",
"104 188 OFFCURVE",
"158 128 OFFCURVE",
"231 58 CURVE SMOOTH",
"250 40 OFFCURVE",
"247 31 OFFCURVE",
"232 16 CURVE",
"217 -1 OFFCURVE",
"205 -1 OFFCURVE",
"186 17 CURVE SMOOTH",
"108 89 OFFCURVE",
"45 171 OFFCURVE",
"45 289 CURVE",
"45 413 OFFCURVE",
"118 512 OFFCURVE",
"179 587 CURVE SMOOTH"
);
},
{
closed = 1;
nodes = (
"406 270 LINE SMOOTH",
"437 275 OFFCURVE",
"446 280 OFFCURVE",
"437 302 CURVE",
"426 324 OFFCURVE",
"420 328 OFFCURVE",
"392 323 CURVE SMOOTH",
"188 287 LINE",
"157 282 OFFCURVE",
"156 275 OFFCURVE",
"166 253 CURVE",
"174 237 OFFCURVE",
"182 236 OFFCURVE",
"211 241 CURVE"
);
}
);
width = 303;
}
);
},
{
color = 3;
glyphname = gjS;
lastChange = "2015-09-02 11:07:53 +0000";
layers = (
{
layerId = "70F97C4B-94FA-40A4-8E29-E667CA674F9A";
name = Regular;
paths = (
{
closed = 1;
nodes = (
"441 292 LINE SMOOTH",
"472 296 OFFCURVE",
"481 305 OFFCURVE",
"472 327 CURVE",
"461 349 OFFCURVE",
"455 353 OFFCURVE",
"427 348 CURVE SMOOTH",
"230 312 LINE",
"199 307 OFFCURVE",
"198 300 OFFCURVE",
"208 278 CURVE",
"216 262 OFFCURVE",
"224 261 OFFCURVE",
"253 266 CURVE"
);
},
{
closed = 1;
nodes = (
"107 510 OFFCURVE",
"112 515 OFFCURVE",
"134 532 CURVE SMOOTH",
"157 550 OFFCURVE",
"175 560 OFFCURVE",
"207 560 CURVE",
"237 560 OFFCURVE",
"254 536 OFFCURVE",
"254 494 CURVE",
"254 388 OFFCURVE",
"143 320 OFFCURVE",
"89 287 CURVE",
"130 247 LINE",
"220 298 OFFCURVE",
"312 380 OFFCURVE",
"312 495 CURVE",
"312 564 OFFCURVE",
"284 616 OFFCURVE",
"207 616 CURVE",
"166 616 OFFCURVE",
"135 605 OFFCURVE",
"90 570 CURVE SMOOTH",
"72 556 OFFCURVE",
"69 548 OFFCURVE",
"89 528 CURVE"
);
},
{
closed = 1;
nodes = (
"313 43 OFFCURVE",
"299 74 OFFCURVE",
"288 74 CURVE",
"278 74 OFFCURVE",
"264 62 OFFCURVE",
"245 62 CURVE SMOOTH",
"197 62 OFFCURVE",
"168 132 OFFCURVE",
"128 278 CURVE",
"103 370 LINE",
"54 380 OFFCURVE",
"25 349 OFFCURVE",
"25 316 CURVE SMOOTH",
"25 275 OFFCURVE",
"54 244 OFFCURVE",
"86 229 CURVE",
"106 233 LINE",
"76 266 LINE",
"100 162 OFFCURVE",
"124 98 OFFCURVE",
"152 56 CURVE SMOOTH",
"175 21 OFFCURVE",
"205 4 OFFCURVE",
"245 4 CURVE SMOOTH",
"270 4 OFFCURVE",
"313 16 OFFCURVE",
"313 30 CURVE"
);
}
);
width = 355;
}
);
},
